<svg width="41" height="26" viewBox="0 0 41 26" fill="none" xmlns="http://www.w3.org/2000/svg">
<path d="M36.8568 0H2.86147C2.6169 0 2.34788 0.024457 2.10331 0.0733711C1.85873 0.122285 1.61416 0.195656 1.36959 0.317941C1.14948 0.41577 0.929367 0.586969 0.758168 0.758168C0.586969 0.929367 0.41577 1.14948 0.317941 1.36959C0.195656 1.58971 0.122285 1.83428 0.0733711 2.10331C0.024457 2.34788 0.024457 2.6169 0 2.86147V23.0385C0 23.2831 0.024457 23.5521 0.0733711 23.7967C0.122285 24.0413 0.195656 24.2858 0.317941 24.5304C0.440227 24.7505 0.586969 24.9706 0.758168 25.1418C0.929367 25.313 1.14948 25.4842 1.36959 25.5821C1.58971 25.7043 1.83428 25.7777 2.10331 25.8266C2.34788 25.8755 2.6169 25.8755 2.86147 25.9H37.6149C37.8595 25.9 38.1285 25.8755 38.3731 25.8266C38.6177 25.7777 38.8622 25.7043 39.1068 25.5821C39.3269 25.4598 39.547 25.313 39.7182 25.1418C39.8894 24.9706 40.0606 24.7505 40.1585 24.5304C40.2807 24.3103 40.3541 24.0657 40.403 23.7967C40.4519 23.5521 40.4519 23.2831 40.4764 23.0385V22.6961V3.61964V3.20387V2.86147C40.4764 2.6169 40.4519 2.34788 40.403 2.10331C40.3541 1.85873 40.2807 1.61416 40.1585 1.36959C40.0362 1.14948 39.8894 0.929367 39.7182 0.758168C39.547 0.586969 39.3269 0.41577 39.1068 0.317941C38.8867 0.195656 38.6421 0.122285 38.3731 0.0733711C38.1285 0.024457 37.8595 0.024457 37.6149 0H36.8568V0Z" fill="#B8B8B8"/>
<path d="M36.8567 0.855957H37.6149C37.8105 0.855957 38.0306 0.880414 38.2508 0.904871C38.4464 0.929328 38.5932 0.978242 38.7399 1.05161C38.8866 1.12498 39.0089 1.22281 39.1312 1.3451C39.2535 1.46738 39.3513 1.58967 39.4247 1.73641C39.4981 1.88315 39.547 2.02989 39.5714 2.22555C39.6204 2.44566 39.6204 2.66578 39.6204 2.86143V23.0385C39.6204 23.2341 39.5959 23.4543 39.5714 23.6744C39.547 23.8456 39.4981 24.0168 39.4247 24.1635C39.3513 24.3103 39.2535 24.4325 39.1312 24.5548C39.0089 24.6771 38.8866 24.7749 38.7399 24.8483C38.5932 24.9217 38.4464 24.9706 38.2508 24.9951C38.0306 25.044 37.8105 25.044 37.6149 25.044H2.86143C2.69023 25.044 2.44566 25.0195 2.22555 24.9951C2.05435 24.9706 1.88315 24.9217 1.73641 24.8239C1.58967 24.7505 1.46738 24.6527 1.3451 24.5304C1.22281 24.4081 1.12498 24.2858 1.05161 24.1391C0.978242 23.9923 0.929328 23.8456 0.904871 23.6499C0.855957 23.4298 0.855957 23.2097 0.855957 23.014V3.20383V2.86143C0.855957 2.66578 0.880414 2.44566 0.904871 2.22555C0.929328 2.05435 0.978242 1.88315 1.05161 1.73641C1.12498 1.58967 1.22281 1.46738 1.3451 1.3451C1.46738 1.22281 1.58967 1.12498 1.73641 1.05161C1.88315 0.978242 2.02989 0.929328 2.22555 0.904871C2.44566 0.855957 2.66578 0.855957 2.86143 0.855957H36.8567Z" fill="white"/>
<path d="M11.0548 8.70669C11.3972 8.26647 11.6418 7.6795 11.5684 7.09253C11.0548 7.11699 10.4434 7.43493 10.0765 7.8507C9.75857 8.21755 9.46509 8.82898 9.53846 9.39149C10.1254 9.46486 10.6879 9.14692 11.0548 8.70669ZM11.5684 9.53823C10.7369 9.48932 10.0276 10.0029 9.63629 10.0029C9.24497 10.0029 8.63355 9.56269 7.97321 9.56269C7.11721 9.58715 6.33459 10.0518 5.89436 10.8345C5.01391 12.3752 5.64979 14.6498 6.53024 15.8971C6.94601 16.5085 7.45961 17.1933 8.11995 17.1688C8.75583 17.1444 9.0004 16.7531 9.75857 16.7531C10.5167 16.7531 10.7369 17.1688 11.4216 17.1444C12.1064 17.1199 12.5467 16.5329 12.9624 15.8971C13.4516 15.1878 13.6472 14.503 13.6472 14.4786C13.6228 14.4541 12.3021 13.965 12.3021 12.4486C12.2776 11.1769 13.3293 10.5654 13.3782 10.541C12.8157 9.66052 11.8863 9.56269 11.5684 9.53823Z" fill="#B8B8B8"/>
<path d="M18.7585 7.80176C20.5684 7.80176 21.8157 9.04907 21.8157 10.8344C21.8157 12.6443 20.5439 13.8916 18.7096 13.8916H16.7286V17.0465H15.2856V7.80176H18.7585ZM16.7286 12.6932H18.3672C19.6145 12.6932 20.3238 12.0084 20.3238 10.8589C20.3238 9.68495 19.6145 9.02461 18.3672 9.02461H16.7042V12.6932H16.7286ZM22.1825 15.1633C22.1825 13.9894 23.0874 13.2557 24.7016 13.1578L26.5603 13.06V12.5464C26.5603 11.7883 26.0467 11.348 25.2152 11.348C24.4081 11.348 23.919 11.7393 23.7967 12.3263H22.476C22.5494 11.1035 23.601 10.1985 25.2641 10.1985C26.9027 10.1985 27.9544 11.0545 27.9544 12.4241V17.071H26.6337V15.9704H26.6093C26.2179 16.7286 25.3619 17.1933 24.4815 17.1933C23.1119 17.1933 22.1825 16.3617 22.1825 15.1633ZM26.5603 14.5519V14.0138L24.8973 14.1117C24.0657 14.1606 23.601 14.5274 23.601 15.1144C23.601 15.7014 24.0902 16.0927 24.8239 16.0927C25.8022 16.0927 26.5603 15.4324 26.5603 14.5519ZM29.1772 19.5656V18.4406C29.2751 18.465 29.5196 18.465 29.6175 18.465C30.2534 18.465 30.5957 18.196 30.8159 17.5112C30.8159 17.4867 30.9381 17.0954 30.9381 17.0954L28.4924 10.3453H29.9843L31.6963 15.8481H31.7208L33.4328 10.3453H34.9002L32.3811 17.4623C31.7941 19.1009 31.1338 19.6145 29.7398 19.6145C29.6419 19.59 29.2995 19.59 29.1772 19.5656Z" fill="#B8B8B8"/>
</svg>
