<svg width="53" height="25" viewBox="0 0 53 25" fill="none" xmlns="http://www.w3.org/2000/svg">
<path d="M18.3022 5.70361V20.5H20.9478V15.6089H23.9419C26.936 15.6089 29.0381 13.6094 29.0381 10.6562C29.0381 7.70312 26.9976 5.70361 24.0547 5.70361H18.3022ZM20.9478 7.86719H23.3574C25.2544 7.86719 26.3516 8.88232 26.3516 10.6562C26.3516 12.4507 25.2441 13.4761 23.3472 13.4761H20.9478V7.86719ZM33.5181 20.6743C34.9127 20.6743 36.2764 19.9463 36.9019 18.7671H36.9532V20.5H39.4141V13.0146C39.4141 10.8306 37.6607 9.40527 34.9639 9.40527C32.1954 9.40527 30.4625 10.8613 30.3497 12.8916H32.7183C32.8824 11.9893 33.6514 11.4048 34.8614 11.4048C36.1226 11.4048 36.8917 12.061 36.8917 13.1992V13.9785L34.0206 14.1426C31.3751 14.3066 29.8883 15.4653 29.8883 17.3931C29.8883 19.3516 31.4161 20.6743 33.5181 20.6743ZM34.2872 18.7466C33.1798 18.7466 32.4415 18.1826 32.4415 17.2905C32.4415 16.4292 33.149 15.8755 34.3795 15.7935L36.8917 15.6396V16.4702C36.8917 17.7827 35.733 18.7466 34.2872 18.7466ZM43.0534 24.54C45.5348 24.54 46.7345 23.6274 47.6574 20.9307L51.5949 9.63086H48.9084L46.3449 18.3262H46.2936L43.7404 9.63086H40.9513L44.817 20.5103C44.8273 20.541 44.6632 21.0845 44.6632 21.1152C44.3864 22.1201 43.8429 22.52 42.7868 22.52C42.633 22.52 42.1818 22.5098 42.0485 22.479V24.499C42.1818 24.5298 42.8996 24.54 43.0534 24.54Z" fill="white"/>
<path fill-rule="evenodd" clip-rule="evenodd" d="M10.1261 7.26635C10.7498 6.53386 11.1697 5.51446 11.0551 4.5C10.1561 4.53497 9.06868 5.08097 8.42354 5.81302C7.84557 6.46124 7.33922 7.49901 7.47577 8.4933C8.47816 8.56861 9.50205 7.99929 10.1261 7.26635ZM15 16.9372C14.9792 16.9979 14.6131 18.1665 13.7249 19.3731C12.9572 20.4167 12.1604 21.4563 10.9052 21.4776C9.67162 21.4989 9.27506 20.7974 7.86472 20.7974C6.45483 20.7974 6.01442 21.4563 4.84644 21.4989C3.63507 21.5414 2.71223 20.3706 1.93804 19.331C0.35596 17.2044 -0.853105 13.3221 0.770523 10.7013C1.57703 9.39983 3.01784 8.57559 4.58238 8.55432C5.77205 8.53349 6.89525 9.29879 7.62235 9.29879C8.34945 9.29879 9.71409 8.37839 11.1489 8.51355C11.7495 8.53659 13.4355 8.73911 14.5185 10.2125C14.4312 10.2626 12.5066 11.3044 12.5274 13.4714C12.5532 16.0638 14.9732 16.9261 15 16.9372Z" fill="white"/>
</svg>
