<svg width="375" height="558" viewBox="0 0 375 558" fill="none" xmlns="http://www.w3.org/2000/svg">
<g clip-path="url(#clip0)">
<rect width="375" height="546" fill="#EAFCFC"/>
<path d="M482 216H-107V446.767H482V216Z" fill="#EAFCFC"/>
<g style="mix-blend-mode:multiply">
<path d="M482 471.857V410.779H453.383V365.723H425.852V385.785H403.069V379.325V339.557H365.766V381.827L354.607 382.097V339.478H341.588V321.316H333.777V309.119H303.276V321.316H295.465V339.478H282.446V362.566L276.439 362.838L274.635 294.438H234.462V330.825L220.327 331.097V274.225H215.493V262.223H173.089V274.225H168.253V350.864H159.326V326.969H151.887V315.282H141.1V281.173H125.478V315.282H114.691V326.969H107.251V367.399H102.043L97.9512 367.358V320.516L-12.1491 321.283V426.763H-21.4476V412.937H-54.9253V429.007H-64.596V389.133H-85.798V439.301H-107V471.857H482Z" fill="#EAFCFC"/>
</g>
<path d="M79.835 455.049C79.835 455.049 97.8656 431.061 109.211 427.381C120.556 423.702 112.339 436.072 112.339 436.072C112.339 436.072 129.993 416.272 137.38 418.252C144.149 420.067 137.38 433.737 137.38 433.737C137.38 433.737 145.005 426.17 154.251 426.17C163.497 426.17 147.105 454.503 147.105 454.503L79.835 455.049Z" fill="#96D9C9"/>
<path d="M137.376 454.509C137.376 454.509 149.7 421.498 164.963 425.316C177.332 428.409 168.537 445.02 169.292 444.264C170.046 443.509 176.68 432.234 187.404 432.234C198.129 432.234 184.111 447.45 184.111 447.45C184.111 447.45 206.981 440.298 208.771 447.809C210.253 454.044 201.946 454.509 201.946 454.509H137.376Z" fill="#50BFA5"/>
<path d="M482 446.767H-107V546H482V446.767Z" fill="#184655"/>
<path d="M-30.7248 448.893C-30.9029 448.045 -30.9929 447.18 -30.9932 446.314C-30.9932 436.546 -19.6314 428.627 -5.62022 428.627C8.39097 428.627 19.7511 436.547 19.7511 446.314C19.7516 447.18 19.6617 448.045 19.4827 448.893H-30.7248Z" fill="#96D9C9"/>
<path d="M11.2034 360.796C11.1276 360.344 10.8642 360.043 10.7637 359.621C10.632 359.062 9.72308 359.005 9.62757 359.621C9.57323 359.972 9.37893 360.188 9.29824 360.548C9.05619 361.711 9.64403 368.25 8.10772 378.263C7.69936 380.922 7.24818 383.569 6.36558 386.108C4.93795 390.214 2.33792 394.639 -0.894415 397.436C-0.979563 391.571 -1.36428 385.715 -2.04706 379.889C-2.4664 376.404 -2.99662 372.935 -3.63771 369.485C-3.95057 367.805 -4.28923 366.131 -4.65368 364.464C-5.0357 362.711 -5.39467 361.032 -6.22951 359.448C-6.48638 358.953 -7.21749 359.187 -7.21749 359.726C-7.21749 361.281 -6.91121 362.713 -6.58847 364.223C-6.26573 365.732 -5.96604 367.234 -5.68611 368.747C-3.60806 379.957 -2.82756 389.912 -2.83579 401.137C-6.26079 396.81 -9.25766 391.631 -11.474 386.544C-14.1672 380.383 -15.9239 373.852 -16.6856 367.17C-16.8942 365.3 -17.0193 363.424 -17.0611 361.543C-17.0819 360.57 -17.1022 359.596 -17.122 358.623C-17.1319 358.128 -17.3229 356.611 -18.1627 357.053C-18.9366 357.461 -18.8641 358.373 -18.9283 359.162C-18.9991 360.028 -19.0041 360.891 -18.9942 361.759C-18.9733 363.422 -18.8855 365.082 -18.7307 366.737C-17.6193 378.731 -13.1108 390.585 -6.2575 400.298C-5.21189 401.783 -4.13335 403.366 -2.86379 404.658C-3.15689 423.852 -5.99239 448.099 -6.04673 450.033C-6.03344 450.465 -5.98388 450.896 -5.89853 451.32C-5.76845 452.191 -4.62898 451.99 -4.39516 451.32C-3.95551 450.054 -3.99996 449.562 -3.34296 442.56C-2.1722 430.074 -0.859837 401.475 -0.864777 400.308C3.20405 397.373 6.08566 392.858 7.96941 388.143C8.96892 385.64 9.55511 383.066 9.99477 380.399C11.4965 371.339 11.4504 362.279 11.2034 360.796Z" fill="#184655"/>
<path d="M8.34486 337.988C8.49964 336.038 8.57813 334.046 8.58032 332.013C8.58032 309.375 -1.35709 291.026 -13.6146 291.026C-25.8721 291.026 -35.8096 309.375 -35.8096 332.013C-35.8096 334.043 -35.7311 336.034 -35.5741 337.988H8.34486Z" fill="#96D9C9"/>
<path d="M-35.3006 363.106C-35.4996 361.12 -35.5991 359.125 -35.5986 357.129C-35.5986 334.493 -23.0019 316.142 -7.46265 316.142C8.0766 316.142 20.6733 334.493 20.6733 357.129C20.6737 359.125 20.5743 361.12 20.3753 363.106H-35.3006Z" fill="#50BFA5"/>
<path d="M-13.6985 316.142C-21.4641 316.142 -28.403 321.963 -32.9806 331.094C-35.3473 330.24 -37.8437 329.804 -40.3592 329.804C-54.1464 329.804 -65.3237 342.817 -65.3237 358.869C-65.3238 360.285 -65.2358 361.7 -65.0603 363.106H11.0042C11.1771 361.155 11.2677 359.159 11.2677 357.129C11.2677 334.493 0.0903473 316.142 -13.6985 316.142Z" fill="#96D9C9"/>
<path d="M38.4124 415.229H35.0039V450.826H38.4124V415.229Z" fill="#355389"/>
<path d="M37.1134 326.433L23.3442 437.904H50.8842L37.1134 326.433Z" fill="#96D9C9"/>
<path d="M28.3384 397.474L47.9728 414.34L47.2187 408.228L28.9476 392.535L28.3384 397.474Z" fill="#50BFA5"/>
<path d="M31.3564 373.04L43.3802 377.157L42.8154 372.582L31.8751 368.836L31.3564 373.04Z" fill="#50BFA5"/>
<path d="M336.937 418.285H335.04V451.224H336.937V418.285Z" fill="#355389"/>
<path d="M335.988 335.539L323.449 437.049H348.529L335.988 335.539Z" fill="#96D9C9"/>
<path d="M327.997 400.232L345.878 415.591L345.191 410.025L328.552 395.734L327.997 400.232Z" fill="#50BFA5"/>
<path d="M330.746 377.982L341.696 381.731L341.18 377.565L331.218 374.153L330.746 377.982Z" fill="#50BFA5"/>
<path d="M74.2662 408.677H71.2314V449.155H74.2662V408.677Z" fill="#355389"/>
<path d="M73.5434 313.721L58.5903 421.225H88.4981L73.5434 313.721Z" fill="#50BFA5"/>
<path d="M59.5386 414.404L86.3705 405.932L85.9637 403.016L59.9815 411.221L59.5386 414.404Z" fill="#3C8F7C"/>
<path d="M64.2627 380.442L82.043 374.827L81.6379 371.912L64.7056 377.258L64.2627 380.442Z" fill="#3C8F7C"/>
<path d="M262.7 437.136C262.838 436.208 262.908 435.27 262.908 434.331C262.908 423.702 254.133 415.084 243.313 415.084C232.493 415.084 223.718 423.702 223.718 434.331C223.718 435.27 223.787 436.208 223.924 437.136H262.7Z" fill="#50BFA5"/>
<path d="M284.88 432.406C285.019 431.09 285.088 429.769 285.088 428.446C285.088 413.454 276.313 401.3 265.493 401.3C254.673 401.3 245.898 413.454 245.898 428.446C245.898 429.769 245.966 431.09 246.104 432.406H284.88Z" fill="#96D9C9"/>
<path d="M277.704 449.039C277.567 448.111 277.497 447.173 277.497 446.234C277.497 435.603 286.271 426.985 297.091 426.985C307.911 426.985 316.686 435.603 316.686 446.234C316.687 447.173 316.617 448.111 316.479 449.039H277.704Z" fill="#50BFA5"/>
<path d="M246.339 449.039C246.163 447.727 246.075 446.404 246.076 445.079C246.076 430.088 257.2 417.934 270.922 417.934C284.643 417.934 295.766 430.091 295.766 445.083C295.766 446.407 295.678 447.73 295.503 449.043L246.339 449.039Z" fill="#50BFA5"/>
<path d="M265.415 417.937C258.557 417.937 252.43 421.793 248.388 427.837C246.263 427.266 244.073 426.979 241.873 426.982C229.698 426.982 219.827 435.6 219.827 446.231C219.827 447.171 219.905 448.109 220.06 449.036H287.228C287.384 447.722 287.461 446.4 287.461 445.076C287.461 430.091 277.591 417.937 265.415 417.937Z" fill="#96D9C9"/>
<g opacity="0.5">
<path opacity="0.5" d="M33.736 461.725H-30.5518L-26.1322 455.785H38.1556L33.736 461.725Z" fill="white"/>
<path opacity="0.5" d="M24.426 474.238H-39.8618L-35.4439 468.298H28.8455L24.426 474.238Z" fill="white"/>
<path opacity="0.5" d="M15.1144 486.753H-49.1733L-44.7538 480.813H19.534L15.1144 486.753Z" fill="white"/>
<path opacity="0.5" d="M5.80244 499.267H-58.4854L-54.0658 493.329H10.222L5.80244 499.267Z" fill="white"/>
<path opacity="0.5" d="M-3.50763 511.782H-67.7954L-63.3759 505.842H0.911919L-3.50763 511.782Z" fill="white"/>
</g>
<g opacity="0.5">
<path opacity="0.5" d="M427.77 461.725H363.482L367.902 455.785H432.189L427.77 461.725Z" fill="white"/>
<path opacity="0.5" d="M418.46 474.238H354.172L358.591 468.298H422.879L418.46 474.238Z" fill="white"/>
<path opacity="0.5" d="M409.148 486.753H344.86L349.28 480.813H413.568L409.148 486.753Z" fill="white"/>
<path opacity="0.5" d="M399.838 499.267H335.55L339.968 493.329H404.256L399.838 499.267Z" fill="white"/>
<path opacity="0.5" d="M390.526 511.782H326.238L330.658 505.842H394.946L390.526 511.782Z" fill="white"/>
<path opacity="0.5" d="M381.215 524.296H316.927L321.346 518.358H385.634L381.215 524.296Z" fill="white"/>
<path opacity="0.5" d="M371.905 536.811H307.617L312.036 530.871H376.324L371.905 536.811Z" fill="white"/>
</g>
<path opacity="0.5" d="M39.0743 486.932H22.2622V489.111H39.0743V486.932Z" fill="white"/>
<path opacity="0.5" d="M78.8668 486.932H62.0547V489.111H78.8668V486.932Z" fill="white"/>
<path opacity="0.5" d="M118.659 486.932H101.847V489.111H118.659V486.932Z" fill="white"/>
<path opacity="0.5" d="M158.452 486.932H141.64V489.111H158.452V486.932Z" fill="white"/>
<path opacity="0.5" d="M198.244 486.932H181.432V489.111H198.244V486.932Z" fill="white"/>
<path opacity="0.5" d="M238.035 486.932H221.223V489.111H238.035V486.932Z" fill="white"/>
<path opacity="0.5" d="M277.828 486.932H261.016V489.111H277.828V486.932Z" fill="white"/>
<path opacity="0.5" d="M317.62 486.932H300.808V489.111H317.62V486.932Z" fill="white"/>
<path d="M482 446.767H-107V449.625H482V446.767Z" fill="#2C8296"/>
<path d="M300.367 405.826C300.367 405.826 301.065 404.588 301.674 403.979C302.283 403.371 303.105 401.632 302.855 399.623C302.605 397.615 301.065 396.827 300.22 396.594C299.375 396.361 296.224 396.373 295.168 396.893C294.113 397.412 294.655 401.434 294.655 401.434L296.337 404.534L300.367 405.826Z" fill="#355389"/>
<path d="M283.074 435.466L283.13 435.427C283.304 435.308 283.846 434.957 284.231 434.917C284.557 434.891 284.885 434.899 285.209 434.942L284.411 435.849L283.074 435.466Z" fill="#F7A491"/>
<path d="M302.178 462.15L302.598 464.587L299.825 464.092C299.825 464.092 297.977 462.098 295.563 459.416C296.658 458.685 297.813 458.025 298.97 457.354C300.795 460.162 302.178 462.15 302.178 462.15Z" fill="#F7A491"/>
<path d="M299.636 463.972C299.636 463.972 300.874 463.36 301.139 463.01C301.404 462.66 301.46 461.896 301.981 461.824C302.501 461.751 304.651 463.122 304.897 463.622C305.155 464.147 305.256 464.883 304.986 465.241C304.716 465.599 299.656 470.296 298.564 470.874C297.472 471.451 296.323 470.78 296.917 469.513C297.512 468.245 298.867 464.077 299.636 463.972Z" fill="#50BFA5"/>
<path d="M304.271 430.805C304.271 430.805 281.989 437.928 282.132 440.87C282.461 447.741 298.292 463.119 298.292 463.119L301.585 460.926L291.87 443.523C291.87 443.523 301.885 440.689 302.684 439.893C303.482 439.098 304.271 430.805 304.271 430.805Z" fill="#EE944C"/>
<path d="M282.308 469.529C282.497 469.529 282.678 469.453 282.811 469.319C282.945 469.185 283.02 469.004 283.02 468.815C283.017 465.536 282.08 462.327 280.318 459.565C278.557 456.802 276.044 454.602 273.076 453.223C270.108 451.844 266.808 451.343 263.566 451.781C260.324 452.218 257.273 453.574 254.775 455.691C254.631 455.813 254.541 455.988 254.525 456.176C254.51 456.365 254.57 456.552 254.692 456.696C254.814 456.841 254.988 456.931 255.176 456.946C255.364 456.962 255.551 456.902 255.695 456.78C257.986 454.839 260.783 453.594 263.757 453.193C266.73 452.792 269.756 453.251 272.478 454.516C275.2 455.78 277.504 457.798 279.119 460.332C280.735 462.865 281.594 465.808 281.595 468.815C281.595 469.004 281.67 469.186 281.804 469.32C281.938 469.454 282.119 469.529 282.308 469.529Z" fill="#F7CC7F"/>
<path d="M298.292 468.815C298.291 465.803 299.181 462.858 300.85 460.354C302.518 457.849 304.891 455.896 307.668 454.743C310.444 453.589 313.499 453.287 316.447 453.874C319.395 454.46 322.104 455.91 324.229 458.039C326.355 460.168 327.803 462.881 328.39 465.835C328.977 468.789 328.676 471.851 327.526 474.633C326.376 477.416 324.429 479.794 321.93 481.468C319.431 483.141 316.493 484.034 313.487 484.034C309.459 484.031 305.597 482.426 302.749 479.573C299.9 476.72 298.297 472.851 298.292 468.815ZM300.192 468.815C300.191 471.45 300.97 474.026 302.43 476.218C303.89 478.409 305.966 480.118 308.395 481.127C310.824 482.137 313.497 482.401 316.077 481.888C318.656 481.375 321.026 480.107 322.886 478.244C324.746 476.381 326.013 474.007 326.526 471.423C327.04 468.838 326.777 466.159 325.771 463.725C324.765 461.29 323.061 459.209 320.874 457.745C318.688 456.281 316.117 455.499 313.487 455.499C309.963 455.502 306.584 456.906 304.092 459.402C301.599 461.898 300.197 465.283 300.192 468.815Z" fill="#EAFCFC"/>
<path d="M301.694 468.815C301.693 466.478 302.384 464.193 303.679 462.249C304.974 460.305 306.815 458.79 308.97 457.895C311.124 457 313.495 456.765 315.783 457.22C318.07 457.676 320.172 458.801 321.822 460.453C323.471 462.105 324.595 464.211 325.05 466.503C325.505 468.795 325.272 471.171 324.38 473.33C323.488 475.49 321.976 477.335 320.037 478.634C318.098 479.932 315.818 480.625 313.485 480.625C310.36 480.622 307.363 479.377 305.153 477.163C302.942 474.949 301.698 471.947 301.694 468.815ZM302.168 468.815C302.167 471.058 302.829 473.251 304.072 475.117C305.315 476.983 307.082 478.437 309.15 479.297C311.218 480.156 313.494 480.381 315.689 479.945C317.885 479.508 319.902 478.428 321.486 476.843C323.069 475.257 324.148 473.236 324.585 471.036C325.022 468.836 324.798 466.556 323.942 464.483C323.086 462.41 321.635 460.639 319.774 459.392C317.912 458.146 315.724 457.481 313.485 457.481C310.486 457.484 307.61 458.679 305.489 460.803C303.368 462.928 302.174 465.809 302.17 468.815H302.168Z" fill="#86B1F2"/>
<path d="M313.487 479.142C316.22 479.139 318.84 478.051 320.773 476.115C322.706 474.178 323.793 471.553 323.797 468.815C323.802 467.173 323.412 465.554 322.661 464.096C322.632 464.04 322.582 463.997 322.522 463.978C322.462 463.958 322.396 463.964 322.34 463.993C322.284 464.022 322.242 464.072 322.222 464.132C322.203 464.192 322.209 464.257 322.237 464.314C322.955 465.705 323.327 467.249 323.322 468.815C323.319 471.427 322.282 473.932 320.438 475.779C318.594 477.626 316.094 478.664 313.487 478.667C312.076 478.671 310.681 478.367 309.399 477.778C309.37 477.765 309.34 477.757 309.308 477.756C309.277 477.755 309.246 477.76 309.217 477.771C309.188 477.782 309.161 477.798 309.138 477.819C309.115 477.841 309.097 477.866 309.084 477.895C309.071 477.923 309.064 477.954 309.063 477.985C309.062 478.016 309.067 478.047 309.077 478.077C309.088 478.106 309.105 478.133 309.126 478.155C309.147 478.178 309.173 478.197 309.201 478.21C310.546 478.828 312.008 479.146 313.487 479.142Z" fill="#86B1F2"/>
<path d="M306.14 462.157C306.172 462.157 306.205 462.151 306.234 462.137C306.264 462.124 306.291 462.105 306.313 462.081C307.235 461.099 308.347 460.316 309.581 459.78C310.816 459.244 312.147 458.967 313.492 458.964C313.555 458.964 313.615 458.939 313.66 458.895C313.704 458.85 313.729 458.79 313.729 458.727C313.729 458.664 313.704 458.603 313.66 458.559C313.615 458.514 313.555 458.489 313.492 458.489C312.082 458.491 310.687 458.782 309.393 459.344C308.099 459.906 306.933 460.727 305.967 461.756C305.926 461.802 305.904 461.861 305.905 461.923C305.907 461.985 305.933 462.043 305.977 462.086C306.02 462.13 306.078 462.155 306.14 462.157Z" fill="#86B1F2"/>
<path d="M302.865 456.948C303.033 456.949 303.195 456.891 303.324 456.783C305.936 454.571 309.195 453.271 312.61 453.08C316.024 452.889 319.407 453.817 322.249 455.724C322.326 455.78 322.414 455.821 322.508 455.843C322.601 455.864 322.698 455.867 322.793 455.85C322.887 455.834 322.978 455.798 323.058 455.746C323.139 455.693 323.208 455.625 323.261 455.546C323.315 455.466 323.352 455.376 323.37 455.282C323.388 455.187 323.387 455.09 323.366 454.996C323.346 454.902 323.307 454.813 323.252 454.734C323.196 454.656 323.126 454.589 323.044 454.539C319.945 452.46 316.255 451.448 312.531 451.657C308.807 451.865 305.253 453.282 302.404 455.694C302.292 455.788 302.212 455.915 302.175 456.056C302.138 456.197 302.145 456.347 302.195 456.484C302.245 456.621 302.337 456.74 302.456 456.823C302.576 456.907 302.719 456.952 302.865 456.951V456.948Z" fill="#F7CC7F"/>
<path d="M293.36 468.49C293.466 468.49 293.57 468.462 293.661 468.408C293.752 468.355 293.827 468.278 293.879 468.186L306.973 444.731C307.05 444.594 307.069 444.431 307.026 444.279C306.983 444.127 306.882 443.999 306.745 443.922C306.608 443.845 306.445 443.826 306.294 443.869C306.142 443.911 306.014 444.013 305.937 444.15L292.367 467.541C292.203 467.826 292.784 468.254 293.07 468.415C293.159 468.464 293.259 468.49 293.36 468.49Z" fill="#B75742"/>
<path d="M292.239 469.651C314.286 469.268 313.699 469.701 314.016 469.087C314.236 468.656 314.839 469.98 303.349 450.145L278.417 445.525C278.329 445.509 278.238 445.513 278.151 445.537C278.064 445.561 277.984 445.605 277.917 445.665C277.85 445.725 277.797 445.799 277.762 445.882C277.727 445.965 277.712 446.055 277.717 446.145C277.735 446.457 277.51 445.956 292.239 469.651ZM279.524 446.947L302.596 451.214L312.463 468.232L292.894 468.45L279.524 446.947Z" fill="#B75742"/>
<path d="M313.487 467.231C313.534 467.23 313.579 467.212 313.613 467.18C313.647 467.147 313.667 467.103 313.67 467.056C313.671 467.032 313.668 467.008 313.66 466.985C313.652 466.962 313.639 466.941 313.623 466.923C313.607 466.905 313.587 466.891 313.565 466.881C313.543 466.871 313.519 466.865 313.495 466.864L292.575 465.893C292.527 465.891 292.48 465.909 292.444 465.941C292.409 465.974 292.387 466.019 292.384 466.067C292.383 466.091 292.387 466.116 292.395 466.138C292.403 466.161 292.415 466.182 292.432 466.199C292.448 466.217 292.467 466.232 292.489 466.242C292.511 466.252 292.535 466.258 292.559 466.259L313.479 467.231H313.487Z" fill="#184655"/>
<path d="M292.27 471.738H292.278L313.495 470.767C313.544 470.764 313.589 470.743 313.622 470.707C313.655 470.671 313.672 470.624 313.67 470.575C313.667 470.527 313.646 470.481 313.61 470.448C313.575 470.415 313.527 470.398 313.479 470.4L292.262 471.372C292.238 471.373 292.214 471.379 292.192 471.389C292.17 471.399 292.151 471.413 292.134 471.431C292.118 471.449 292.106 471.47 292.097 471.493C292.089 471.515 292.086 471.539 292.087 471.564C292.09 471.611 292.11 471.655 292.144 471.687C292.178 471.72 292.223 471.738 292.27 471.738Z" fill="#184655"/>
<path d="M295.977 468.815C295.977 469.491 295.777 470.151 295.403 470.714C295.028 471.276 294.496 471.714 293.873 471.973C293.249 472.232 292.564 472.3 291.902 472.168C291.241 472.036 290.633 471.711 290.156 471.233C289.679 470.755 289.354 470.146 289.222 469.484C289.09 468.821 289.158 468.134 289.416 467.509C289.674 466.885 290.111 466.351 290.672 465.975C291.232 465.6 291.892 465.399 292.566 465.399C293.014 465.399 293.458 465.487 293.871 465.659C294.285 465.83 294.661 466.082 294.978 466.399C295.294 466.716 295.546 467.093 295.717 467.507C295.888 467.922 295.977 468.366 295.977 468.815Z" fill="#86B1F2"/>
<path d="M287.698 477.169C287.738 477.169 287.778 477.158 287.814 477.138C287.849 477.118 287.879 477.09 287.9 477.055L292.767 469.178C292.798 469.124 292.806 469.061 292.791 469.001C292.775 468.942 292.738 468.891 292.685 468.858C292.633 468.826 292.571 468.815 292.511 468.829C292.451 468.842 292.398 468.877 292.364 468.929L287.497 476.806C287.48 476.832 287.468 476.862 287.463 476.893C287.458 476.924 287.459 476.956 287.466 476.987C287.473 477.018 287.487 477.047 287.505 477.072C287.524 477.098 287.547 477.119 287.574 477.136C287.611 477.158 287.654 477.17 287.698 477.169Z" fill="#86B1F2"/>
<path d="M290.312 477.792C290.432 477.792 290.548 477.747 290.636 477.665C290.724 477.584 290.778 477.472 290.786 477.352C290.795 477.232 290.758 477.113 290.683 477.02C290.608 476.926 290.5 476.864 290.382 476.847L285.159 476.073C285.095 476.06 285.03 476.061 284.967 476.074C284.904 476.087 284.844 476.113 284.791 476.151C284.739 476.188 284.694 476.235 284.66 476.29C284.626 476.345 284.604 476.406 284.595 476.47C284.585 476.534 284.589 476.599 284.605 476.662C284.621 476.724 284.65 476.783 284.69 476.834C284.73 476.885 284.779 476.927 284.836 476.958C284.892 476.989 284.954 477.009 285.019 477.015L290.242 477.787L290.312 477.792Z" fill="#184655"/>
<path d="M309.72 443.311H305.089C304.924 443.311 304.766 443.376 304.649 443.493C304.532 443.61 304.467 443.769 304.467 443.934V444.68C304.467 444.762 304.483 444.843 304.514 444.918C304.545 444.994 304.591 445.063 304.649 445.121C304.707 445.178 304.776 445.224 304.851 445.255C304.927 445.286 305.008 445.302 305.089 445.302H310.936C311.041 445.303 311.145 445.277 311.237 445.227C311.329 445.176 311.407 445.103 311.463 445.015C311.52 444.926 311.553 444.824 311.559 444.719C311.565 444.614 311.545 444.509 311.5 444.414C311.335 444.083 311.081 443.804 310.766 443.609C310.452 443.414 310.089 443.311 309.72 443.311Z" fill="#F47458"/>
<path d="M291.297 473.367L289.611 475.182L288.325 472.674C288.325 472.674 288.796 469.994 289.467 466.445C290.711 466.879 291.937 467.401 293.167 467.919C292.041 471.062 291.297 473.367 291.297 473.367Z" fill="#F7A491"/>
<path d="M288.312 472.44C288.312 472.44 289.547 473.058 289.986 473.058C290.426 473.058 291.065 472.641 291.437 473.014C291.809 473.387 292.02 475.929 291.766 476.426C291.503 476.951 290.979 477.476 290.531 477.476C290.084 477.476 282.041 475.865 280.92 475.34C279.799 474.816 280.337 473.659 281.705 473.36C283.074 473.062 287.762 471.89 288.312 472.44Z" fill="#50BFA5"/>
<path d="M300.472 431.51L307.255 429.112C307.255 429.112 312.292 433.609 311.371 436.605C310.451 439.601 298.885 454.778 298.885 454.778C298.885 454.778 293.937 467.117 292.298 471.699C291.065 471.181 289.318 470.483 288.075 470.049C289.239 463.907 292.012 450.691 292.012 450.691L299.706 435.024L300.472 431.51Z" fill="#F7CC7F"/>
<path d="M283.821 389.478C283.625 391.022 283.382 390.925 283.362 391.128C283.339 391.364 284.748 394.197 284.748 394.197C284.748 394.197 288.848 402.574 289.086 403.018L296.379 409.179L294.49 413.729C294.49 413.729 286.724 406.813 286.379 406.379C286.033 405.945 281.768 393.976 281.355 392.933C281.355 392.933 280.424 391.869 279.861 391.182C279.298 390.496 279.056 389.588 278.927 389.367C278.635 388.782 278.414 388.165 278.269 387.527C278.058 386.618 278.661 387.387 278.661 387.387C278.661 387.387 279.346 389.004 279.459 388.928C279.547 388.869 279.122 388.009 278.878 387.004C278.816 386.747 278.755 386.493 278.7 386.257C278.559 385.641 278.885 385.382 279.132 386.003C279.248 386.283 279.344 386.573 279.418 386.867C279.503 387.14 279.608 387.405 279.733 387.661C279.826 387.939 279.936 388.211 280.062 388.476C280.082 388.453 280.184 388.522 280.126 388.247C280.055 387.917 279.756 387.242 279.69 386.747C279.652 386.465 279.538 385.882 279.538 385.882C279.538 385.882 279.527 384.972 279.578 384.953C279.856 384.858 280.036 385.48 280.039 385.867C280.143 386.147 280.219 386.437 280.266 386.732C280.266 386.732 280.744 387.933 280.91 387.869C280.979 387.841 280.772 387.069 280.683 386.282C280.6 385.549 280.633 384.797 280.772 384.76C281.006 384.698 281.18 385.503 281.18 385.503C281.18 385.503 281.274 386.072 281.32 386.259C281.373 386.478 281.58 387.121 281.58 387.121C281.58 387.121 282.404 389.332 282.555 389.257C282.707 389.181 283.016 388.829 283.011 388.674C283.006 388.519 282.846 388.24 282.846 388.085C282.845 387.997 282.874 387.911 282.929 387.842C282.984 387.773 283.062 387.726 283.148 387.709C283.331 387.691 283.642 388.43 283.642 388.43C283.642 388.43 283.879 389.032 283.821 389.478Z" fill="#F8A492"/>
<path d="M292.578 405.603C292.865 405.534 300.558 410.243 300.647 412.074C300.736 413.906 298.106 416.815 295.904 415.637C293.703 414.459 289.212 409.73 289.212 409.73C289.212 409.73 291.649 405.826 292.578 405.603Z" fill="#B94838"/>
<path d="M296.39 409.735C296.317 409.807 294.312 414.19 294.694 417.351C295.392 423.116 298.326 432.52 299.382 432.838C307.854 435.396 310.954 433.483 310.954 433.483C310.954 433.483 307.597 415.993 305.657 412.022C304.852 410.372 303.864 408.967 301.995 408.675C301.569 408.609 298.037 408.086 296.39 409.735Z" fill="#F47458"/>
<path d="M296.77 406.41L296.393 409.875C296.393 409.875 296.306 410.839 296.787 411.221C297.61 411.881 300.698 408.56 300.698 408.56L300.368 403.115L296.77 406.41Z" fill="#F7A491"/>
<path d="M300.463 404.76C299.7 406.969 297.663 408.032 296.578 408.194L296.771 406.42L300.362 403.12L300.463 404.76Z" fill="#F47458"/>
<path d="M298.669 397.635C298.292 397.486 297.887 397.422 297.482 397.446C297.077 397.471 296.683 397.584 296.326 397.778C295.97 397.972 295.66 398.241 295.419 398.568C295.177 398.894 295.01 399.27 294.929 399.668C294.754 400.545 294.634 401.432 294.572 402.325C294.407 404.75 295.545 407.176 296.645 407.232C297.745 407.288 300.867 405.866 301.149 402.424C301.322 400.305 300.357 398.312 298.669 397.635Z" fill="#F7A491"/>
<path d="M300.324 402.656C300.298 403.191 300.63 403.646 301.068 403.664C301.506 403.683 301.882 403.27 301.908 402.735C301.935 402.201 301.602 401.745 301.164 401.726C300.726 401.706 300.351 402.12 300.324 402.656Z" fill="#F7A491"/>
<path d="M313.487 471.356C313.989 471.356 314.479 471.207 314.896 470.927C315.313 470.648 315.638 470.251 315.83 469.787C316.022 469.323 316.072 468.812 315.974 468.319C315.876 467.826 315.635 467.373 315.28 467.018C314.925 466.663 314.474 466.421 313.982 466.323C313.49 466.224 312.98 466.275 312.517 466.467C312.053 466.659 311.657 466.985 311.379 467.403C311.1 467.821 310.951 468.312 310.951 468.815C310.952 469.488 311.219 470.134 311.695 470.61C312.17 471.087 312.815 471.355 313.487 471.356Z" fill="#184655"/>
<path d="M315.656 468.815C315.657 469.245 315.53 469.666 315.292 470.024C315.054 470.382 314.715 470.661 314.318 470.826C313.922 470.991 313.485 471.035 313.064 470.951C312.642 470.868 312.255 470.661 311.952 470.356C311.648 470.052 311.441 469.665 311.357 469.242C311.273 468.82 311.316 468.383 311.481 467.985C311.645 467.588 311.924 467.248 312.281 467.009C312.638 466.77 313.058 466.643 313.487 466.643C314.062 466.643 314.614 466.872 315.02 467.279C315.427 467.686 315.656 468.239 315.656 468.815Z" fill="#466EB6"/>
<path d="M312.873 468.815C312.873 468.937 312.908 469.056 312.976 469.157C313.043 469.259 313.139 469.338 313.251 469.385C313.363 469.431 313.487 469.444 313.606 469.42C313.725 469.397 313.835 469.338 313.921 469.252C314.007 469.166 314.066 469.057 314.089 468.937C314.113 468.818 314.101 468.694 314.055 468.581C314.008 468.469 313.93 468.372 313.829 468.305C313.728 468.237 313.609 468.201 313.487 468.201C313.325 468.201 313.169 468.266 313.054 468.381C312.938 468.496 312.873 468.652 312.873 468.815Z" fill="#5BCFF7"/>
<g opacity="0.57">
<path opacity="0.57" d="M266.11 479.142C268.843 479.139 271.463 478.051 273.396 476.115C275.329 474.178 276.416 471.553 276.42 468.815C276.425 467.173 276.035 465.554 275.284 464.096C275.255 464.04 275.205 463.997 275.145 463.978C275.085 463.958 275.019 463.964 274.963 463.993C274.907 464.022 274.865 464.072 274.846 464.132C274.826 464.192 274.832 464.257 274.86 464.314C275.578 465.705 275.95 467.249 275.946 468.815C275.942 471.427 274.905 473.932 273.061 475.779C271.217 477.626 268.717 478.664 266.11 478.667C264.699 478.671 263.304 478.367 262.022 477.778C261.964 477.751 261.899 477.749 261.84 477.771C261.781 477.793 261.733 477.837 261.707 477.895C261.681 477.952 261.678 478.017 261.7 478.077C261.722 478.136 261.767 478.184 261.824 478.21C263.169 478.828 264.631 479.146 266.11 479.142Z" fill="#86B1F2"/>
</g>
<path d="M250.915 468.815C250.914 465.803 251.804 462.858 253.473 460.354C255.142 457.849 257.514 455.896 260.291 454.743C263.067 453.589 266.123 453.287 269.071 453.874C272.019 454.46 274.727 455.91 276.852 458.039C278.978 460.168 280.426 462.881 281.013 465.835C281.6 468.789 281.299 471.851 280.149 474.633C278.999 477.416 277.052 479.794 274.553 481.468C272.054 483.141 269.116 484.034 266.11 484.034C262.082 484.031 258.22 482.426 255.372 479.573C252.523 476.72 250.92 472.851 250.915 468.815ZM252.815 468.815C252.814 471.45 253.593 474.026 255.053 476.218C256.513 478.409 258.589 480.118 261.018 481.127C263.447 482.137 266.12 482.401 268.7 481.888C271.279 481.375 273.649 480.107 275.509 478.244C277.369 476.381 278.636 474.007 279.149 471.423C279.663 468.838 279.4 466.159 278.394 463.725C277.388 461.29 275.684 459.209 273.497 457.745C271.311 456.281 268.74 455.499 266.11 455.499C262.586 455.502 259.207 456.906 256.715 459.402C254.222 461.898 252.82 465.283 252.815 468.815Z" fill="#EAFCFC"/>
<g opacity="0.57">
<path opacity="0.57" d="M254.318 468.815C254.317 466.478 255.008 464.193 256.303 462.249C257.598 460.305 259.44 458.79 261.594 457.895C263.749 457 266.12 456.765 268.407 457.22C270.695 457.676 272.796 458.801 274.446 460.453C276.096 462.105 277.219 464.211 277.674 466.503C278.13 468.795 277.897 471.171 277.004 473.33C276.112 475.49 274.601 477.335 272.661 478.634C270.722 479.932 268.442 480.625 266.11 480.625C262.984 480.622 259.988 479.377 257.777 477.163C255.567 474.949 254.323 471.947 254.318 468.815ZM254.793 468.815C254.791 471.058 255.454 473.251 256.697 475.117C257.939 476.983 259.707 478.437 261.774 479.297C263.842 480.156 266.118 480.381 268.314 479.945C270.51 479.508 272.527 478.428 274.11 476.843C275.694 475.257 276.772 473.236 277.209 471.036C277.646 468.836 277.423 466.556 276.566 464.483C275.71 462.41 274.259 460.639 272.398 459.392C270.537 458.146 268.349 457.481 266.11 457.481C263.11 457.483 260.234 458.678 258.113 460.803C255.991 462.928 254.797 465.809 254.793 468.815Z" fill="#86B1F2"/>
</g>
<path d="M265.858 469.41C265.965 469.41 266.069 469.381 266.16 469.327C266.252 469.273 266.327 469.195 266.379 469.102L282.363 439.966C282.516 439.686 282.596 439.373 282.596 439.054V437.164C282.596 436.793 282.68 436.412 282.787 436.351C282.894 436.29 283.344 436.369 283.662 436.56L286.444 438.234C286.579 438.315 286.741 438.339 286.894 438.301C287.046 438.262 287.178 438.165 287.259 438.03C287.34 437.895 287.364 437.733 287.326 437.58C287.288 437.427 287.19 437.295 287.055 437.214L284.273 435.541C283.681 435.184 282.708 435.031 282.107 435.376C281.506 435.721 281.409 436.478 281.409 437.169V439.059C281.409 439.177 281.379 439.294 281.322 439.398L265.338 468.534C265.301 468.602 265.277 468.678 265.268 468.755C265.26 468.833 265.266 468.911 265.288 468.986C265.31 469.061 265.346 469.131 265.395 469.192C265.443 469.253 265.504 469.303 265.572 469.341C265.66 469.388 265.759 469.411 265.858 469.41Z" fill="#B75742"/>
<path d="M293.835 424.771C294.209 423.989 295.195 420.255 295.195 420.255L301.388 420.649C301.388 420.649 298.452 427.103 297.844 428.357C296.132 429.894 289.183 434.582 288.536 435.105C288.248 435.338 287.772 435.765 287.548 436.155C287.064 437.014 286.921 437.427 286.474 438.268C285.964 439.228 282.96 437.745 282.96 436.9C282.96 436.32 284.139 435.369 285.075 434.59C285.505 434.247 293.499 425.477 293.835 424.771Z" fill="#F7A491"/>
<path d="M303.285 409.141C304.72 409.944 305.544 411.246 304.215 415.667C303.44 418.273 302.434 420.804 301.208 423.23C301.208 423.23 296.659 423.042 294.408 420.755C294.408 420.765 298.345 406.38 303.285 409.141Z" fill="#B75742"/>
<path d="M268.279 468.815C268.28 469.245 268.153 469.666 267.915 470.024C267.677 470.382 267.338 470.661 266.941 470.826C266.544 470.991 266.108 471.035 265.687 470.951C265.265 470.868 264.878 470.661 264.575 470.356C264.271 470.052 264.064 469.665 263.98 469.242C263.896 468.82 263.939 468.383 264.104 467.985C264.268 467.588 264.547 467.248 264.904 467.009C265.261 466.77 265.681 466.643 266.11 466.643C266.685 466.643 267.236 466.872 267.643 467.279C268.05 467.686 268.278 468.239 268.279 468.815Z" fill="#466EB6"/>
<path d="M265.496 468.815C265.496 468.937 265.532 469.056 265.599 469.157C265.666 469.259 265.762 469.338 265.874 469.385C265.986 469.431 266.11 469.444 266.229 469.42C266.348 469.397 266.458 469.338 266.544 469.252C266.63 469.166 266.689 469.057 266.712 468.937C266.736 468.818 266.724 468.694 266.678 468.581C266.631 468.469 266.553 468.372 266.452 468.305C266.351 468.237 266.232 468.201 266.11 468.201C265.948 468.201 265.792 468.266 265.677 468.381C265.561 468.496 265.497 468.652 265.496 468.815Z" fill="#5BCFF7"/>
<path d="M283.276 435.212C283.494 434.995 283.754 434.826 284.041 434.716C284.328 434.607 284.635 434.559 284.941 434.577C285.952 434.658 285.46 435.447 285.46 435.481C285.46 435.516 283.742 436.343 283.742 436.343C283.742 436.343 284.072 435.503 283.831 435.366C283.659 435.277 283.47 435.225 283.276 435.212Z" fill="#F7A491"/>
<path d="M301.164 401.726C301.308 400.98 301.353 400.219 301.297 399.462C301.19 398.351 300.271 396.792 299.145 396.558C298.018 396.324 295.387 396.756 295.048 396.038C294.709 395.32 294.707 395.393 294.592 395.281C294.327 395.027 292.749 396.086 292.822 397.969C292.894 399.851 294.551 399.784 294.873 399.838C295.196 399.893 298.13 398.655 299.025 398.709C299.919 398.764 301.164 401.726 301.164 401.726Z" fill="#355389"/>
<path d="M-21.7408 484.468C-22.1146 483.425 -28.3833 463.924 -28.3833 463.924L-18.7373 466.069L-14.3441 481.221C-13.9703 481.978 -7.18292 500.307 -4.82494 506.215C-4.59003 506.799 -4.21465 507.315 -3.73227 507.718C-3.24989 508.121 -2.67548 508.399 -2.06025 508.525H-2.04049C-1.20565 508.705 0.417927 509.276 0.75878 509.515C1.15562 509.786 1.95753 510.373 2.43505 510.731C2.91257 511.089 3.4889 511.492 3.71943 511.721C3.85939 511.855 4.26281 512.015 4.55591 512.119C4.65333 512.153 4.73826 512.215 4.79946 512.298C4.86066 512.381 4.89523 512.481 4.89862 512.584C4.90202 512.687 4.87405 512.789 4.81844 512.876C4.76284 512.963 4.6822 513.031 4.5872 513.071C4.18377 513.236 3.58605 513.048 3.21556 512.927C2.1683 512.584 0.804888 511.479 0.760429 511.64C0.715969 511.802 2.27204 514.338 2.43176 514.64C2.59149 514.942 4.38631 517.899 4.54438 518.587C4.70246 519.275 4.30234 519.489 3.95655 519.273C3.66015 519.087 0.878992 515.185 0.878992 515.185C0.878992 515.185 0.523319 514.69 0.447575 515.006C0.37183 515.323 2.89117 518.872 3.1678 519.473C3.44444 520.074 3.34728 520.603 2.74297 520.463C2.00857 520.285 -0.446554 516.338 -0.446554 516.338C-0.446554 516.338 -0.762701 515.843 -0.912544 516.051C-1.06239 516.259 1.13092 519.237 1.19514 519.603C1.25936 519.97 0.972841 520.376 0.449213 520.126C-0.166628 519.834 -2.32865 516.287 -2.32865 516.287C-2.32865 516.287 -2.56906 516.064 -2.61352 516.247C-2.65798 516.43 -0.966887 519.105 -1.01958 519.532C-1.01935 519.579 -1.02883 519.624 -1.0474 519.667C-1.06597 519.709 -1.09321 519.747 -1.12737 519.778C-1.16153 519.809 -1.20184 519.833 -1.24568 519.847C-1.28952 519.862 -1.33591 519.867 -1.38184 519.862C-2.08331 519.947 -3.3578 517.118 -4.34578 516.01C-5.33376 514.901 -21.3275 485.623 -21.7408 484.468Z" fill="#F8A492"/>
<path d="M41.9477 546H55.8683L42.3363 501.184L35.9375 489.841L21.2627 503.265C21.2627 503.265 21.4883 513.234 24.3403 519.618C26.7147 524.923 36.8678 537.045 41.9477 546Z" fill="#B75742"/>
<path d="M351.773 544.289C351.798 544.518 351.88 545.125 352.002 546H360.314C360.599 541.561 360.871 538.285 360.871 538.285L362.353 508.637L349.973 508.547L353.123 536.656C353.123 536.656 351.587 542.601 351.773 544.289Z" fill="#F7A491"/>
<path d="M38.2018 483.851C37.9861 482.734 34.6978 461.954 34.6978 461.954L44.1478 465.663L46.2176 481.733C46.4794 482.558 50.479 502.234 51.9413 508.601C52.0882 509.229 52.388 509.811 52.8137 510.295C53.2395 510.779 53.7781 511.15 54.3816 511.375H54.4013C55.2246 511.688 56.7774 512.53 57.0886 512.817C57.4492 513.147 58.1705 513.876 58.5986 514.317C59.0267 514.757 59.547 515.256 59.7512 515.515C59.8731 515.68 60.2567 515.899 60.5383 516.051C60.6316 516.101 60.7077 516.178 60.7565 516.272C60.8053 516.366 60.8246 516.472 60.8117 516.578C60.7989 516.683 60.7546 516.782 60.6846 516.861C60.6146 516.94 60.5223 516.997 60.4197 517.023C59.9834 517.13 59.4071 516.841 59.0498 516.66C58.042 516.147 56.8317 514.808 56.7609 514.965C56.6901 515.122 57.8724 517.935 57.986 518.265C58.0997 518.595 59.4565 521.88 59.5075 522.605C59.5586 523.329 59.1189 523.482 58.8028 523.209C58.5311 522.973 56.3229 518.574 56.3229 518.574C56.3229 518.574 56.0414 518.013 55.9146 518.325C55.7878 518.636 57.7835 522.634 57.9712 523.286C58.1589 523.938 57.9712 524.461 57.385 524.215C56.6687 523.918 54.7998 519.519 54.7998 519.519C54.7998 519.519 54.5561 518.971 54.3717 519.153C54.1873 519.334 55.9426 522.709 55.9524 523.091C55.9623 523.474 55.6034 523.839 55.111 523.504C54.5314 523.11 52.8979 519.168 52.8979 519.168C52.8979 519.168 52.6888 518.904 52.6147 519.084C52.5406 519.263 53.8332 522.243 53.7147 522.671C53.7063 522.717 53.6886 522.761 53.6627 522.8C53.6368 522.84 53.6031 522.873 53.5638 522.899C53.5246 522.925 53.4804 522.942 53.4342 522.95C53.3879 522.958 53.3405 522.957 53.2948 522.946C52.5703 522.92 51.7157 519.846 50.8956 518.567C50.0756 517.288 38.4405 485.089 38.2018 483.851Z" fill="#F8A492"/>
<path d="M42.1616 441.586C42.3526 436.966 41.6676 432.402 39.6208 428.099C37.8523 424.398 33.4772 422.298 29.4858 422.293C16.8166 422.276 15.2045 439.123 7.13934 445.612C4.6694 447.592 1.91952 449.213 -0.412108 451.353C-9.02564 459.258 -5.14452 473.895 2.7626 480.825C8.24918 485.635 16.8726 488.365 23.6353 484.607C27.1657 482.645 29.8464 479.383 31.7548 475.809C34.4652 470.738 36.2106 464.886 38.1388 459.474C40.1905 453.719 41.908 447.729 42.1616 441.586Z" fill="#F7CC7F"/>
<path d="M13.8989 546H27.5017L38.0814 513.625L41.6743 500.176L21.6513 497.026C21.6513 497.026 16.1351 505.326 14.821 512.195C13.6437 518.349 15.3447 535.935 13.8989 546Z" fill="#A34B3D"/>
<path d="M2.0744 511.358C2.05135 511.254 6.26179 493.347 7.96276 489.387C9.66373 485.427 16.2782 467.036 16.2782 467.036L7.71576 465.163C7.71576 465.163 2.19461 479.554 -0.321442 486.062C-2.83749 492.57 -1.76389 504.565 -1.87586 507.951C-1.87586 507.999 -2.24471 510.814 -2.248 510.862C-2.29607 511.116 -2.36378 511.365 -2.45053 511.609C-2.55098 511.774 -2.84572 512.911 -2.8589 513.008C-2.96107 513.234 -3.08342 513.451 -3.22445 513.655C-3.32654 513.82 -3.55377 516.12 -3.60976 516.493C-3.66574 516.866 -3.49614 517.704 -3.49614 517.704L-3.58507 519.245C-3.65093 520.379 -2.48017 520.078 -2.48017 520.078C-2.50817 520.613 -2.3155 520.892 -2.0224 520.993C-1.7293 521.093 -1.36376 521.007 -1.31107 521.03C-1.25838 521.054 -1.23202 521.22 -1.23202 521.22C-1.26331 521.56 -0.88129 521.821 -0.634295 521.87C-0.339679 521.892 -0.0483255 521.797 0.177492 521.606C0.302636 521.459 0.388256 521.481 0.388256 521.481C0.638544 521.694 1.5936 521.684 1.81589 521.375C2.03819 521.067 2.23742 519.442 2.33622 519.295C2.43502 519.148 2.64909 518.899 2.68037 518.664C2.71166 518.43 3.49545 516.762 3.54156 516.43C3.58766 516.099 3.1019 514.975 2.99323 514.303C2.88455 513.632 2.23248 512.586 2.0744 512.285C2.01183 512.167 2.02994 511.782 2.0744 511.358Z" fill="#F48C7F"/>
<path d="M44.2316 463.964C40.2797 451.939 35.8486 452.452 35.8486 452.452L39.2703 477.731C41.7156 477.071 44.8969 475.573 47.3388 474.882C46.5287 471.08 45.2064 466.925 44.2316 463.964Z" fill="#6394DB"/>
<path d="M25.7186 450.3C25.7186 450.3 18.4273 449.835 15.5424 452.991C12.6575 456.148 21.9412 481.117 22.4582 485.135C22.9753 489.153 19.7907 499.825 19.7907 499.825C19.7907 499.825 36.9156 503.29 41.8144 500.034C41.8144 500.034 42.3396 471.144 41.8144 468.275C41.2891 465.406 36.9189 453.735 35.87 452.589C34.8211 451.442 25.7186 450.3 25.7186 450.3Z" fill="#86B1F2"/>
<path d="M28.1475 440.511C28.1475 440.511 28.1096 440.727 28.0421 441.093C27.7128 442.854 26.4646 448.683 25.6199 450.297C24.5974 452.236 29.119 458.423 33.4694 457.667C34.7653 457.443 32.3744 451.983 32.4814 451.397C32.7021 450.29 33.0001 448.779 33.3048 447.231C33.4694 446.358 33.6522 445.472 33.8152 444.641C34.2812 442.274 34.6599 440.339 34.6599 440.339L28.1475 440.511Z" fill="#F7A491"/>
<path d="M28.0418 441.093C28.1093 440.727 28.1472 440.511 28.1472 440.511L34.6679 440.346C34.6679 440.346 34.2892 442.281 33.8232 444.647C33.6585 445.472 33.4938 446.355 33.316 447.223C32.3099 447.074 31.2577 446.583 30.2022 445.657C29.1239 444.708 28.3111 443.494 27.8442 442.134C27.9249 441.72 27.9908 441.367 28.0418 441.093Z" fill="#F47458"/>
<path d="M343.831 546L345.494 541.243L350.416 515.008L340.314 514.462C339.635 514.627 338.59 538.801 338.028 539.872C337.244 541.365 336.591 543.532 336.052 546H343.831Z" fill="#F7A491"/>
<path d="M32.5353 425.631C32.5353 425.631 29.4627 425.274 27.5362 427.776C25.6096 430.277 23.5332 438.006 28.3183 442.218C33.1034 446.431 37.8342 441.664 38.5274 436.608C39.2207 431.553 39.5088 425.448 32.5353 425.631Z" fill="#F7A491"/>
<path d="M39.9501 436.542C39.3787 437.656 38.4204 438.275 37.8095 437.92C37.1986 437.565 37.164 436.377 37.7354 435.262C38.3067 434.146 39.2651 433.529 39.876 433.882C40.4869 434.235 40.5215 435.427 39.9501 436.542Z" fill="#F7A491"/>
<path d="M32.8797 424.804C32.8797 424.804 28.7747 432.16 25.8371 432.5C22.8995 432.84 22.5142 436.749 22.5142 436.749C22.5142 436.749 23.5631 427.741 26.4661 426.005C29.3691 424.27 32.8797 424.804 32.8797 424.804Z" fill="#F7CC7F"/>
<path d="M29.4841 437.902L35.6277 438.146C35.6277 438.146 35.3939 440.478 32.6901 440.456C29.3919 440.413 29.4841 437.902 29.4841 437.902Z" fill="white"/>
<path d="M12.939 477.789C12.939 477.789 22.3923 466.46 24.0982 462.267C25.8041 458.075 23.2519 451.796 19.2654 451.303C15.2789 450.81 5.30029 469.405 5.30029 469.405L12.939 477.789Z" fill="#6394DB"/>
<path d="M374.905 472.331L372.642 470.333C372.763 470.174 372.861 469.998 372.93 469.811C372.93 469.565 372.766 467.252 372.874 466.414C372.91 466.145 373.161 465.424 373.395 465.47C373.492 465.484 373.58 465.534 373.642 465.611C373.703 465.688 373.732 465.786 373.724 465.884C373.702 466.071 373.694 466.293 373.673 466.482C373.651 466.67 373.686 467.237 373.872 467.353C374.058 467.468 375.329 464.898 375.329 464.898C375.329 464.898 375.659 464.143 375.748 463.884C375.823 463.665 376 462.984 376 462.984C376 462.984 376.377 461.891 376.67 462.003C377.03 462.14 375.949 465.825 376.118 465.911C376.324 466.015 377.055 464.622 377.055 464.622C377.055 464.622 377.246 463.886 377.43 463.604C377.472 463.13 377.859 462.347 378.208 462.507C378.272 462.536 378.071 463.698 378.071 463.698C378.071 463.698 377.868 464.391 377.793 464.728C377.659 465.322 377.21 466.097 377.088 466.49C376.986 466.82 377.123 466.749 377.146 466.78C377.169 466.812 377.363 466.394 377.64 465.836C377.783 465.554 378.005 465.269 378.12 464.916C378.246 464.568 378.397 464.231 378.572 463.906C378.95 463.186 379.342 463.554 379.1 464.282C379.008 464.561 378.906 464.861 378.801 465.166C378.389 466.353 377.761 467.338 377.869 467.422C378.007 467.533 379.043 465.665 379.043 465.665C379.043 465.665 379.891 464.82 379.537 465.896C379.283 466.657 378.897 467.367 378.397 467.993C378.209 468.239 377.798 469.255 377.007 470.008C376.217 470.76 374.969 472.189 374.905 472.331Z" fill="#F7A491"/>
<path d="M344.671 511.436C344.671 511.436 344.312 510.726 344.212 510.482C344.095 510.195 343.81 509.309 343.81 509.309C343.81 509.309 342.967 506.174 343.212 506.133C343.457 506.091 343.91 506.548 344.035 506.723C344.16 506.898 344.317 507.093 344.439 507.268C344.506 507.358 344.605 507.419 344.716 507.437C344.827 507.456 344.941 507.431 345.033 507.367C345.269 507.233 344.941 506.431 344.77 506.176C344.236 505.382 342.371 503.536 342.183 503.334C341.959 503.093 341.532 497.394 341.226 495.451C340.823 492.26 340.568 488.956 340.531 488.618L342.942 475.024L338.154 472.253C338.154 472.253 335.26 487.305 335.204 488.073C335.176 488.44 336.705 495.764 336.708 495.764C337.696 499.325 338.573 502.46 338.725 503.065C338.725 503.065 338.672 505.001 338.56 506.232C338.448 507.463 338.863 508.636 338.89 508.986C338.932 509.894 339.135 510.788 339.489 511.626C339.983 512.809 340.077 511.461 340.077 511.461C340.077 511.461 339.56 509.101 339.759 509.089C339.914 509.089 340.116 510.388 340.655 511.703C340.795 512.033 340.931 512.373 341.062 512.678C341.401 513.478 342.008 513.503 341.791 512.601C341.698 512.194 341.574 511.794 341.421 511.406C341.256 511.02 341.23 510.611 341.141 510.264C340.964 509.578 340.826 509.078 340.861 509.086C340.895 509.094 340.968 508.934 341.127 509.289C341.318 509.715 341.514 510.71 341.845 511.314C342.033 511.657 342.379 512.396 342.379 512.396C342.379 512.396 343.077 513.535 343.154 513.511C343.569 513.384 343.319 512.429 342.99 511.997C342.934 511.617 342.547 510.85 342.547 510.85C342.547 510.85 342.125 509.119 342.382 509.053C342.59 508.999 344.426 512.939 344.834 512.785C345.165 512.647 344.671 511.436 344.671 511.436Z" fill="#F7A491"/>
<path d="M343.354 482.777C343.354 482.777 340.884 482.793 339.532 482.557C337.721 482.241 336.514 481.897 336.514 481.897C336.514 481.897 336.942 473.862 338.391 468.777C338.99 466.673 339.786 465.571 341.095 465.112C341.103 465.112 344.281 466.432 344.979 470.819C345.135 471.854 343.354 482.777 343.354 482.777Z" fill="#F47458"/>
<path d="M358.202 467.49C356.751 465.51 350.766 459.776 350.1 459.787C348.162 459.82 341.8 459.824 340.55 460.447L340.611 471.364C340.813 472.28 345.205 486.544 344.95 489.679L344.981 489.707C345.847 490.547 346.877 491.201 348.005 491.627C349.134 492.054 350.337 492.244 351.542 492.186C352.746 492.128 353.926 491.824 355.009 491.291C356.092 490.759 357.054 490.009 357.836 489.09C357.836 489.09 357.821 484.76 358.34 480.812C359.162 474.629 361.806 472.41 358.202 467.49Z" fill="#B75742"/>
<path d="M363.479 526.678L363.907 510.004C363.981 505.293 363.019 500.623 361.089 496.327L357.844 489.095C356.527 489.512 355.29 489.869 353.909 490.024C350.903 490.354 347.946 490.024 344.957 489.684C344.951 489.783 344.938 489.881 344.916 489.977C344.375 492.434 341.355 497.909 340.082 505.392C338.638 513.888 338.259 525.664 338.435 526.66C346.812 528.616 355.374 528.675 363.479 526.678Z" fill="#F47458"/>
<path d="M348.149 453.641C348.149 453.641 348.313 457.669 347.954 459.197C347.595 460.725 347.11 460.839 350.22 461.304C351.442 461.485 352.621 461.758 352.621 461.758C352.621 461.758 352.301 459.515 352.252 458.57C352.173 457.011 352.613 452.196 352.613 452.196L348.149 453.641Z" fill="#F7A491"/>
<path d="M350.518 455.646C351.074 455.958 351.68 456.172 352.308 456.28C352.413 454.379 352.613 452.196 352.613 452.196L348.354 453.575C348.874 454.45 349.622 455.166 350.518 455.646Z" fill="#F47458"/>
<path d="M349.865 504.471V509.718C349.865 512.447 352.147 514.658 354.959 514.658H360.201V502.425H351.976C351.438 502.423 350.92 502.624 350.523 502.988C350.316 503.175 350.151 503.404 350.037 503.66C349.924 503.915 349.865 504.192 349.865 504.471Z" fill="#13375B"/>
<path d="M349.889 504.666L351.445 504.635L350.568 463.591C351.369 463.729 352.117 464.087 352.727 464.626C353.338 465.165 353.787 465.862 354.026 466.642L364.852 503.704L366.351 503.291L355.522 466.229C354.796 463.754 352.432 462.012 349.769 462.012H348.974L349.889 504.666Z" fill="#13375B"/>
<path d="M350.197 471.323L356.792 470.168L360.883 479.318C363.482 476.812 372.881 469.861 372.93 469.81L375.016 472.179C375.016 472.179 363.954 486.516 358.914 485.852C354.615 485.29 350.118 471.281 350.197 471.323Z" fill="#F8A492"/>
<path d="M347.459 465.124C346.56 468.823 351.36 477.071 351.36 477.071C351.36 477.071 358.2 473.851 359.402 472.463C359.402 472.463 354.755 464.459 354.45 463.972C353.072 461.769 351.2 461.766 349.98 461.91C349 462.025 347.459 465.124 347.459 465.124Z" fill="#F47458"/>
<path d="M347.348 466.257C350.513 463.5 351.707 457.421 349.642 453.798C351.076 451.935 351.995 452.268 351.676 449.95C351.045 445.38 357.417 442.627 352.664 441.411C347.854 440.448 343.851 443.391 341.651 446.328C340.666 447.668 339.408 448.781 337.959 449.594C335.053 451.184 333.513 455.001 335.064 458.979C332.736 460.282 330.706 464.051 332.245 467.179C332.614 467.93 333.362 468.81 333.385 469.024C333.34 468.76 331.216 475.738 339.148 478.114C347.233 480.538 348.899 472.785 347.348 466.257Z" fill="#F7CC7F"/>
<path d="M352.02 449.78C352.02 450.785 351.644 451.595 351.18 451.595C350.716 451.595 350.34 450.78 350.34 449.78C350.34 448.78 350.716 447.965 351.18 447.965C351.644 447.965 352.02 448.775 352.02 449.78Z" fill="#F7A491"/>
<path d="M350.523 502.988H350.558C351.068 502.98 351.561 503.175 351.929 503.531C352.296 503.887 352.507 504.375 352.515 504.887V508.746C352.515 512.012 355.244 514.658 358.608 514.658H361.796C365.163 514.658 367.888 512.018 367.888 508.746V504.905C367.876 504.237 367.6 503.601 367.121 503.137C366.641 502.673 365.998 502.419 365.331 502.43H351.965C351.432 502.429 350.918 502.628 350.523 502.988Z" fill="#355389"/>
<path d="M293.229 546C296.084 544.279 298.312 542.99 298.649 542.944C299.69 542.804 301.324 543.172 301.521 543.934C301.554 544.063 301.6 544.827 301.653 546.002H309.479L310.186 538.479L294.747 533.843L281.276 546H293.229Z" fill="#B75742"/>
<path d="M345.033 446.213C344.096 450.069 349.166 452.871 353.182 452.978C355.791 453.044 356.991 452.777 357.412 450.031C358.097 445.576 356.26 442.865 353.685 441.743C350.362 440.288 345.805 443.04 345.033 446.213Z" fill="#F7CC7F"/>
<path d="M350.928 443.619C349.777 444.067 348.819 444.906 348.223 445.99C347.281 447.77 347.748 453.466 351.664 455.346C355.58 457.225 357.378 452.958 357.098 449.81C356.818 446.662 355.677 442.545 350.928 443.619Z" fill="#F7A491"/>
<path d="M346.833 450.3C346.253 447.356 346.48 445.124 348.575 444.048C350.669 442.972 352.463 441.903 354.338 443.839L354.761 444.076C354.761 444.076 351.223 445.053 351.025 446.929C350.828 448.805 348.947 451.034 349.237 451.957C349.527 452.879 349.861 454.715 349.861 454.715L349.085 454.079C349.085 454.079 347.412 453.245 346.833 450.3Z" fill="#F7CC7F"/>
<path d="M350.48 449.175C350.773 449.988 350.551 450.805 349.986 450.99C349.421 451.174 348.726 450.681 348.435 449.869C348.144 449.058 348.363 448.239 348.929 448.054C349.495 447.87 350.187 448.361 350.48 449.175Z" fill="#F7A491"/>
<path d="M352.828 452.501L355.779 452.618C355.779 452.618 355.667 453.739 354.368 453.724C352.784 453.707 352.828 452.501 352.828 452.501Z" fill="white"/>
<path d="M322.868 510.602C324.3 509.662 327.664 506.047 328.796 504.818C328.809 504.672 328.917 503.828 329.833 502.773C330.48 502.022 330.971 500.31 331.396 500.793C331.82 501.277 330.767 502.638 331.249 502.648C331.732 502.658 334.124 499.962 334.508 500.402C334.891 500.843 332.463 503.237 332.894 503.245C333.326 503.253 335.298 500.828 335.842 501.448C336.385 502.069 333.256 504.088 333.548 504.418C333.839 504.748 335.779 503.428 336.217 503.923C336.655 504.418 333.482 505.603 333.736 505.608C333.989 505.613 335.82 505.563 335.833 505.916C335.848 506.314 331.201 506.936 330.633 507.628C329.418 509.563 327.258 513.101 325.069 514.652C322.39 516.551 316.202 520.578 316.202 520.578L313.128 516.6C313.128 516.6 321.17 511.718 322.868 510.602Z" fill="#F7A491"/>
<path d="M294.498 506.251C293.362 504.968 291.06 500.599 290.281 499.112C290.307 498.968 290.421 498.133 289.813 496.868C289.385 495.974 289.359 494.193 288.825 494.558C288.292 494.923 288.95 496.505 288.483 496.386C288.015 496.267 286.409 493.042 285.922 493.367C285.435 493.692 287.157 496.639 286.745 496.533C286.334 496.427 285.056 493.563 284.369 494.027C283.683 494.49 286.181 497.251 285.807 497.492C285.433 497.733 283.912 495.954 283.358 496.322C282.805 496.69 285.56 498.66 285.313 498.597C285.066 498.534 283.314 498.008 283.208 498.346C283.09 498.726 287.412 500.544 287.781 501.359C288.448 503.545 289.611 507.525 291.316 509.598C293.406 512.13 298.328 517.64 298.328 517.64L302.334 514.605C302.334 514.605 295.846 507.771 294.498 506.251Z" fill="#F7A491"/>
<path d="M297.742 509.188L294.129 513.909L298.613 520.592C298.613 520.592 298.192 525.556 297.545 527.106C296.897 528.655 293.156 535.026 293.156 535.026C293.156 535.026 302.242 540.604 311.131 539.788C311.131 539.788 313.634 526.885 314.337 525.646C315.04 524.406 321.819 518.263 321.819 518.263L318.526 512.937L312.845 516.094C312.845 516.094 302.46 514.412 301.959 513.912C301.459 513.412 297.742 509.188 297.742 509.188Z" fill="#96D9C9"/>
<path d="M310.881 508.608C310.596 509.405 310.802 510.207 311.338 510.4C311.875 510.593 312.542 510.103 312.82 509.306C313.099 508.509 312.901 507.708 312.364 507.515C311.827 507.322 311.166 507.811 310.881 508.608Z" fill="#F7A491"/>
<path d="M301.422 506.652C301.382 507.497 301.812 508.205 302.384 508.231C302.955 508.258 303.447 507.594 303.487 506.746C303.526 505.898 303.098 505.195 302.527 505.167C301.955 505.139 301.463 505.808 301.422 506.652Z" fill="#F7A491"/>
<path d="M305.433 512.249C305.433 512.305 304.977 514.266 304.735 515.303C304.692 515.491 304.715 515.688 304.8 515.86C304.885 516.033 305.026 516.171 305.201 516.251C306.166 516.691 308.061 517.307 309.372 516.117C309.43 516.063 309.477 515.997 309.507 515.923C309.538 515.85 309.552 515.771 309.55 515.691L309.385 511.01L305.433 512.249Z" fill="#F7A491"/>
<path d="M305.188 513.348C306.209 513.863 307.493 513.873 308.932 513.028C309.11 512.923 309.282 512.809 309.448 512.687L309.39 511.01L305.438 512.249C305.433 512.276 305.326 512.749 305.188 513.348Z" fill="#F48C7F"/>
<path d="M308.24 501.45C309.379 501.815 310.351 502.576 310.981 503.595C311.995 505.276 312.555 510.142 308.933 512.269C305.31 514.396 302.676 511.102 302.741 507.979C302.807 504.855 304.192 500.871 308.24 501.45Z" fill="#F7A491"/>
<path d="M309.464 499.534C309.464 499.534 305.959 497.675 304.758 500.755C304.758 500.755 301.608 500.435 302.152 503.704C302.152 503.704 298.982 505.3 300.989 509.413C300.989 509.413 300.108 513.282 304.627 513.526C304.627 513.526 305.302 514.898 307.365 514.579C309.428 514.261 309.952 513.715 309.952 513.715C309.952 513.715 313.609 514.785 314.716 511.48C314.716 511.48 317.228 510.878 315.539 507.648C315.539 507.648 317.732 503.46 313.869 502.203C313.879 502.201 313.421 497.919 309.464 499.534Z" fill="#F7CC7F"/>
<path d="M149.631 519.638C149.631 519.638 149.94 523.015 149.738 524.116C149.695 524.3 149.64 524.481 149.573 524.657C149.364 525.274 149.937 527.16 149.937 527.16L157.622 527.188C158.04 527.188 157.76 526.924 157.419 526.68C156.863 526.281 156.413 526.02 154.638 525.187C154.523 525.132 154.101 524.872 153.948 524.781C153.536 524.515 153.162 524.193 152.839 523.824C152.279 523.217 152.193 520.24 152.193 520.24L149.631 519.638Z" fill="#F7A491"/>
<path d="M153.955 524.781C151.93 525.327 150.423 524.991 149.578 524.664C149.369 525.279 148.975 527.365 149.211 527.365C151.137 527.365 152.768 527.73 158.289 527.642C158.486 527.642 158.463 526.959 158.333 526.817C157.978 526.395 154.106 524.88 153.955 524.781Z" fill="#F7CC7F"/>
<path d="M139.995 479.543C139.995 479.543 140.103 484.364 141.477 487.451C142.82 490.459 149.25 497.874 150.96 502.204C150.431 504.646 148.984 508.078 149.084 510.784C149.203 513.85 149.025 521.964 149.025 521.964L152.474 522.075L157.001 501.135L150.181 478.541L147.085 473.055L139.995 479.543Z" fill="#327765"/>
<path d="M125.253 514.835C125.253 514.835 123.132 517.75 122.198 518.486C121.704 518.881 120.339 519.41 120.196 520.064C120.053 520.717 126.348 526.487 126.348 526.487C126.677 526.782 126.644 526.373 126.542 525.939C126.377 525.228 126.203 524.703 125.368 522.791C125.314 522.667 125.159 522.162 125.101 521.983C124.958 521.48 124.885 520.961 124.884 520.438C124.862 519.56 126.881 517.123 126.881 517.123L125.253 514.835Z" fill="#F7A491"/>
<path d="M125.099 521.981C123.1 520.991 122.135 519.671 121.687 518.811C121.088 519.156 119.478 519.894 119.619 520.098C120.732 521.717 121.888 523.728 126.357 527.541C126.522 527.677 127.18 526.891 127.18 526.68C127.182 526.099 125.158 522.161 125.099 521.981Z" fill="#F7CC7F"/>
<path d="M137.195 450.336C137.195 450.336 132.687 442.278 131.597 440.563C130.507 438.849 127.645 432.043 127.541 431.774C127.437 431.505 129.517 428.284 129.046 428.174C128.575 428.063 128.073 429.873 127.581 429.659C127.088 429.444 125.647 425.088 125.366 425.304C124.841 425.707 126.143 428.005 125.86 428.149C125.577 428.292 124.732 425.623 124.182 425.7C123.632 425.778 125.228 428.15 125.074 428.358C124.921 428.566 123.263 426.335 122.962 426.811C122.797 427.07 124.487 428.761 124.162 428.919C123.838 429.078 122.338 427.985 122.186 428.301C122.035 428.616 123.574 429.046 124.035 429.894C124.496 430.743 125.287 431.111 125.613 432.683C125.939 434.255 126.436 439.943 128.104 442.778C129.772 445.612 133.466 451.896 133.466 451.896L137.195 450.336Z" fill="#F79C8D"/>
<path d="M140.237 476.456C140.237 476.456 137.569 480.47 136.934 483.792C136.316 487.027 137.344 496.795 136.275 501.325C134.446 503.022 131.292 505.002 129.832 507.281C128.175 509.863 123.387 516.411 123.387 516.411L126.153 518.481L141.841 503.915L148.192 484.483L150.37 478.802L140.237 476.456Z" fill="#3C8F7C"/>
<path d="M142.397 453.616C142.397 453.616 138.865 453.39 137.467 454.913C136.069 456.436 140.568 468.481 140.821 470.423C141.075 472.365 138.737 476.225 138.737 476.225C138.737 476.225 148.452 480.779 150.829 479.21C150.829 479.21 150.451 463.678 150.195 462.294C149.94 460.909 147.824 455.28 147.315 454.727C146.807 454.174 142.397 453.616 142.397 453.616Z" fill="#F7CC7F"/>
<path d="M209.435 498.521L209.081 499.812L211.241 500.495L211.312 499.957L209.435 498.521ZM209.535 499.711L209.736 499.128L211.004 500.064L209.535 499.711Z" fill="#86B1F2"/>
<path d="M216.669 494.088L215.969 490.925L211.763 493.538L214.169 495.48C214.169 495.48 214.926 493.507 216.669 494.088Z" fill="#F47458"/>
<path d="M189.293 505.862C189.293 505.862 184.439 508.033 179.068 510.725C173.696 513.416 172.405 513.155 171.631 512.375C170.857 511.594 170.808 509.865 170.808 509.865C170.427 510.485 170.175 511.176 170.069 511.897C169.963 512.617 170.003 513.352 170.189 514.056C170.834 516.409 172.693 516.435 172.693 516.435L174.035 515.633L173.158 517.211C173.158 517.211 175.056 518.201 176.825 516.435C178.593 514.67 178.965 513.538 178.965 513.538C178.965 513.538 178.269 516.28 177.572 516.978C177.572 516.978 179.534 517.858 180.701 516.28C181.868 514.703 182.379 512.685 182.379 512.685L181.941 516.382C181.941 516.382 183.752 515.684 184.729 512.813L184.213 515.529C184.213 515.529 186.036 512.998 186.777 510.177C187.518 507.355 189.068 507.042 189.068 507.042L189.293 505.862Z" fill="#B75742"/>
<path d="M198.551 515.341C198.551 515.341 198.727 521.337 194.732 523.535C193.761 524.068 192.193 526.01 192.503 527.088C192.796 528.107 195.185 530.198 195.185 530.198C195.185 530.198 196.848 530.32 197.597 532.208C197.718 532.506 197.178 532.432 197.178 532.432H192.944L189.293 526.2L189.542 522.289L191.917 516.201L196.461 515.47L198.551 515.341Z" fill="#B75742"/>
<path d="M218.524 511.609C218.524 511.609 223.95 519.775 225.134 521.547C225.957 522.783 225.957 524.334 225.957 524.334C225.957 524.334 225.726 526.819 225.236 527.304C225.132 527.39 225.008 527.447 224.875 527.469C224.59 527.537 224.292 527.529 224.012 527.446C223.731 527.362 223.477 527.207 223.274 526.995C223.072 526.782 222.929 526.521 222.859 526.236C222.789 525.951 222.795 525.652 222.876 525.37C223.014 524.945 223.111 524.507 223.168 524.063C223.168 523.494 222.911 523.443 222.911 523.443L216.919 519.978L214.958 514.231L218.524 511.609Z" fill="#B75742"/>
<path d="M214.587 513.414L213.599 521.182L214.064 530.018C214.064 530.018 215.974 530.483 216.533 531.467C217.093 532.45 216.999 532.605 216.999 532.605H212.455C212.455 532.605 208.735 523.746 208.735 522.763C208.735 521.78 207.747 516.298 207.747 515.574C207.747 514.85 208.366 511.602 210.535 511.345C212.703 511.088 214.587 513.414 214.587 513.414Z" fill="#F47458"/>
<path d="M220.887 492.845L219.717 491.258C219.717 491.258 215.86 490.154 214.209 491.811C213.55 492.438 213.079 493.239 212.852 494.121C212.73 494.649 212.709 495.723 212.718 496.68C212.728 497.754 212.511 498.463 212.085 499.43C211.324 500.585 208.18 503.027 206.926 503.333L207.808 503.217C207.808 503.217 206.115 504.116 204.719 504.356C199.285 505.209 191.103 505.365 189.282 505.887C187.113 506.507 185.796 512.922 186.389 516.155C186.982 519.387 182.567 518.092 181.5 520.181C180.494 522.161 184.363 531.236 184.363 531.236C184.363 531.236 185.365 532.458 185.546 532.638H189.919C189.919 532.638 189.781 529.812 187.594 529.087C185.407 528.363 185.719 523.69 185.719 523.69C185.719 523.69 191.976 524.552 195.065 520.483C197.453 517.348 197.225 516.506 196.995 516.283C198.138 516.92 206.124 521.25 210.146 520.483C214.484 519.658 215.482 517.749 215.482 517.749L215.569 518.93C215.569 518.93 218.487 517.871 218.203 515.491C218.348 515.611 218.463 515.763 218.539 515.935C218.615 516.107 218.651 516.294 218.643 516.481C218.643 516.481 219.908 514.853 219.908 509.68C219.908 506.794 219.804 499.483 219.804 499.483C219.804 499.483 224.992 498.529 225.666 497.855C226.124 497.396 226.723 494.048 226.723 494.048L220.887 492.845Z" fill="#F47458"/>
<path d="M211.763 493.538C211.763 493.538 212.81 495.812 213.904 496.157C214.997 496.502 215.977 490.925 215.977 490.925C215.487 490.767 214.962 490.751 214.463 490.878C213.964 491.005 213.511 491.27 213.155 491.642C212.633 492.157 211.763 493.538 211.763 493.538Z" fill="#B75742"/>
<path d="M215.089 514.752C213.793 516.255 214.982 514.876 214.101 515.907C213.917 514.082 214.491 511.805 214.966 510C214.159 510.868 213.084 512.594 212.575 513.33C213.49 511.749 213.26 508.697 213.079 506.905C213.079 506.905 212.023 508.156 211.597 508.67C211.513 507.857 211.373 506.06 211.649 505.273C211.926 504.486 212.759 503.517 213.375 502.927C212.685 503.501 211.829 504.387 211.495 505.214C211.035 506.351 211.366 509.174 211.376 509.373C212.912 507.631 211.87 508.817 212.827 507.723C212.927 509.235 213.075 512.376 212.374 513.63C213.197 513.106 213.981 511.98 214.457 511.109C213.217 514.318 214.02 516.198 214.022 516.247C214.022 516.247 214.09 516.161 215.071 514.886C215.15 515.156 215.209 515.432 215.247 515.711C215.246 515.64 215.137 514.98 215.089 514.752Z" fill="#B75742"/>
<path d="M211.707 499.128L211.004 500.613C211.004 500.613 211.674 505.613 219.873 505.055L220.141 502.938C220.141 502.938 212.665 502.669 211.707 499.128Z" fill="#F7CC7F"/>
<path d="M168.432 486.742L168.17 487.29L209.474 499.782L209.736 499.234L168.432 486.742Z" fill="#50BFA5"/>
<path d="M164.159 482.094C163.665 481.663 162.601 480.724 162.697 480.627C162.822 480.5 163.286 480.591 163.433 480.647C163.579 480.703 163.762 480.754 163.904 480.812C163.98 480.839 164.064 480.835 164.138 480.801C164.211 480.766 164.268 480.704 164.296 480.627C164.378 480.449 163.841 480.097 163.637 480.013C162.978 479.751 161.095 479.403 160.897 479.353C160.663 479.299 157.974 476.019 156.963 474.968C155.361 473.199 153.802 471.298 153.634 471.11L149.242 461.87L145.236 462.164C145.236 462.164 149.965 472.486 150.26 472.976C150.4 473.209 154.432 477.02 154.434 477.018C156.538 478.771 158.396 480.318 158.745 480.615C158.745 480.615 159.542 481.81 160.004 482.595C160.281 483.039 160.62 483.439 161.012 483.783C161.844 483.031 162.901 482.803 163.882 482.274C163.974 482.224 164.068 482.16 164.159 482.094Z" fill="#F48C7F"/>
<path d="M147.316 454.724C147.316 454.724 150.413 456.209 151.941 465.43L146.69 466.897L144.505 460.957L147.316 454.724Z" fill="#FAE0B2"/>
<path d="M149.293 443.715C148.661 439.38 144.776 436.29 140.675 438.423C139.753 438.903 138.501 439.874 137.861 440.697C136.099 442.961 135.656 445.753 133.79 447.931C132.181 449.808 127.926 449.487 125.927 450.937C123.928 452.387 122.516 454.969 122.494 458.048C122.47 461.49 123.217 465.143 125.857 467.288C128.496 469.433 132.267 469.961 135.572 469.016C138.877 468.07 141.729 465.79 143.787 463.008C145.845 460.226 147.309 457.182 148.348 453.887C149.511 450.217 149.71 446.517 149.293 443.715Z" fill="#A34B3D"/>
<path d="M167.686 482.797L167.029 482.12L163.273 480.749L159.025 482.797L163.97 487.809L164.329 486.592L161.222 483.506L163.688 481.888L164.055 482.1L165.338 482.848L167.686 482.797Z" fill="#FAE0B2"/>
<path d="M170.485 485.592C170.486 486.35 170.261 487.091 169.841 487.722C169.421 488.352 168.824 488.844 168.125 489.134C167.426 489.425 166.657 489.501 165.915 489.353C165.173 489.205 164.491 488.84 163.956 488.304C163.421 487.768 163.056 487.085 162.909 486.342C162.761 485.598 162.837 484.828 163.126 484.127C163.415 483.427 163.906 482.828 164.535 482.407C165.164 481.985 165.903 481.76 166.66 481.76C167.674 481.76 168.647 482.164 169.364 482.883C170.082 483.601 170.485 484.576 170.485 485.592Z" fill="#F7CC7F"/>
<path d="M168.432 485.547C168.434 485.929 168.323 486.302 168.113 486.62C167.903 486.939 167.603 487.187 167.252 487.335C166.901 487.482 166.514 487.522 166.141 487.449C165.767 487.376 165.424 487.193 165.153 486.925C164.883 486.656 164.699 486.313 164.624 485.939C164.548 485.565 164.585 485.177 164.73 484.824C164.875 484.472 165.121 484.17 165.437 483.957C165.753 483.745 166.125 483.631 166.505 483.63C167.014 483.629 167.503 483.83 167.864 484.189C168.226 484.549 168.43 485.037 168.432 485.547Z" fill="#FAE0B2"/>
<path d="M164.335 482.048C164.254 481.868 163.611 481.374 163.571 481.292C163.53 481.175 163.466 481.068 163.382 480.977C163.289 480.904 162.759 480.129 162.629 480.026C162.499 479.924 161.913 479.871 161.603 479.756C161.323 479.684 161.033 479.658 160.744 479.68L160.721 479.665L158.956 480.947C159.285 481.219 159.695 482.228 159.925 482.483C159.993 482.558 160.895 483.247 161.042 483.363C161.188 483.478 161.467 483.693 161.467 483.693L162.214 484.023C162.679 484.333 162.815 483.716 162.815 483.716C163.036 483.859 163.197 483.843 163.309 483.727C163.383 483.629 163.442 483.521 163.487 483.407C163.508 483.386 163.584 483.417 163.584 483.417C163.721 483.516 163.914 483.402 163.994 483.3C164.071 483.166 164.097 483.009 164.067 482.858C164.032 482.764 164.067 482.729 164.067 482.729C164.2 482.673 164.416 482.226 164.335 482.048Z" fill="#F48C7F"/>
<path d="M375.562 386.749C375.265 386.719 374.97 386.671 374.679 386.604C374.353 386.515 374.017 386.467 373.68 386.46C373.151 386.495 372.285 386.74 371.916 387.376C371.457 388.166 370.269 387.871 371.241 391.255C372.344 395.091 374.409 394.185 374.447 394.108C374.485 394.03 375.823 391.192 375.823 391.192C375.823 391.192 376.795 392.482 376.783 392.43C376.772 392.377 379.123 387.133 375.562 386.749Z" fill="#0E2E35"/>
<path d="M378.061 403.605C378.061 403.605 374.302 399.742 373.719 398.16C373.136 396.578 375.158 395.807 376.634 396.003C378.109 396.2 380.597 401.036 380.597 401.036L378.061 403.605Z" fill="#3C8F7C"/>
<path d="M370.11 449.64C370.11 449.64 369.982 451.937 369.982 451.94C369.934 452.232 369.75 452.952 369.75 453.217C369.75 454.207 374.09 452.372 373.119 451.932C373.03 451.891 372.432 451.364 372.402 451.026C372.358 450.503 372.382 449.673 372.382 449.673L370.11 449.64Z" fill="#F7A491"/>
<path d="M373.107 451.919C372.6 452.072 372.085 452.199 371.566 452.3C371.044 452.376 370.355 451.734 369.986 451.907C369.581 452.099 369.565 453.813 369.565 453.813C369.565 453.813 375.379 454.244 376.748 453.839C377.362 453.658 375.19 452.628 373.107 451.919Z" fill="#F7CC7F"/>
<path d="M376.988 416.503L378.822 417.31L382.682 436.12L382.517 450.219L379.423 450.293C379.423 450.293 377.984 437.96 377.984 437.004C377.984 436.049 371.327 420.27 371.327 420.27L376.988 416.503Z" fill="#86B1F2"/>
<path d="M375.571 417.538C375.571 417.538 374.22 432.028 374.22 434.47C374.22 436.912 373.123 450.584 373.123 450.584L370.021 450.564C370.021 450.564 369.797 446.398 369.464 440.268C369.413 439.308 369.532 437.371 369.464 436.377C368.982 429.228 368.43 417.191 368.698 416.907C370.73 414.764 375.571 417.538 375.571 417.538Z" fill="#6394DB"/>
<path d="M372.54 395.799C372.54 395.799 370.108 396.058 369.51 396.431C368.839 396.85 368.488 398.597 368.488 398.597C368.488 398.597 368.871 407.687 368.695 409.817C368.557 411.467 368.488 418.186 368.488 418.186C368.488 418.186 376.355 419.376 379.456 418.425C379.456 418.425 378.921 413.545 379.03 412.284C379.138 411.023 378.987 399.465 378.799 398.642C378.626 397.896 378.305 396.555 376.894 396.107C375.483 395.66 372.54 395.799 372.54 395.799Z" fill="#355389"/>
<path d="M373.191 393.325L372.402 396.322C372.402 396.322 373.839 398.125 375.017 397.911C376.005 397.731 375.865 396.459 375.865 396.459C375.865 396.459 375.486 394.692 375.718 393.844C375.95 392.995 373.191 393.325 373.191 393.325Z" fill="#F7A491"/>
<path d="M375.718 393.844C375.95 392.995 373.19 393.325 373.19 393.325L373.125 393.573C373.182 393.738 373.27 393.891 373.383 394.023C373.993 394.656 374.802 395.059 375.674 395.165C375.617 394.725 375.632 394.279 375.718 393.844Z" fill="#F47458"/>
<path d="M386.454 403.552C386.008 403.542 380.869 403.499 378.938 403.483C378.467 403.478 378.011 403.317 377.64 403.026L373.344 399.645L370.737 402.384L375.983 406.014C376.341 406.271 378.341 406.496 378.783 406.451C380.811 406.247 385.967 405.211 386.484 405.281L386.454 403.552Z" fill="#F8A492"/>
<path d="M376.39 401.396C376.39 401.396 372.794 397.601 371.493 396.652C370.192 395.703 368.544 396.502 368.46 398.155C368.34 400.564 373.107 404.875 373.107 404.875L376.39 401.396Z" fill="#3C8F7C"/>
<path d="M374.042 388.182C374.3 388.082 374.577 388.039 374.853 388.058C375.129 388.076 375.398 388.154 375.641 388.288C375.883 388.421 376.094 388.607 376.257 388.83C376.421 389.054 376.534 389.311 376.587 389.583C376.705 390.183 376.784 390.789 376.825 391.398C376.932 393.058 376.151 394.713 375.4 394.746C374.649 394.779 372.525 393.799 372.341 391.446C372.227 389.994 372.891 388.64 374.042 388.182Z" fill="#F7A491"/>
<path d="M372.904 391.609C372.921 391.976 372.692 392.284 372.394 392.297C372.096 392.311 371.841 392.025 371.824 391.659C371.808 391.293 372.035 390.984 372.333 390.971C372.631 390.958 372.886 391.243 372.904 391.609Z" fill="#F7A491"/>
<path d="M372.334 390.971C372.334 390.971 373.256 390.994 373.456 390.36C373.655 389.727 374.547 388.253 376.133 388.43C377.719 388.606 374.565 387.493 374.447 387.519L372.912 387.849C372.912 387.849 372.02 388.989 372.002 389.097C371.983 389.204 371.908 390.351 371.908 390.351L372.334 390.971Z" fill="#0E2E35"/>
<path d="M374.45 392.966L376.107 392.918C376.107 392.918 376.089 393.552 375.359 393.593C374.475 393.644 374.45 392.966 374.45 392.966Z" fill="white"/>
<path opacity="0.5" d="M48.7795 264.871C48.4174 263.304 47.7456 261.825 46.8039 260.523C45.8621 259.22 44.6694 258.119 43.2962 257.286C41.923 256.452 40.3971 255.903 38.8085 255.67C37.22 255.437 35.601 255.526 34.0471 255.93C32.2322 252.053 29.0787 248.965 25.1689 247.237C21.2591 245.508 16.8572 245.255 12.7759 246.525C10.651 242.996 7.57288 240.142 3.89734 238.292C0.22179 236.442 -3.90115 235.672 -7.99497 236.071C-12.0888 236.47 -15.9864 238.021 -19.2373 240.546C-22.4882 243.071 -24.9597 246.467 -26.3662 250.34C-28.6411 249.072 -31.2071 248.421 -33.8101 248.452C-36.4131 248.483 -38.963 249.195 -41.2073 250.516C-43.4516 251.838 -45.3126 253.724 -46.6062 255.988C-47.8997 258.251 -48.581 260.814 -48.5825 263.423C-48.5825 263.918 -48.5578 264.398 -48.5117 264.876L48.7795 264.871Z" fill="white"/>
<path opacity="0.5" d="M261.989 264.932C262.103 264.437 262.316 263.97 262.613 263.559C262.911 263.147 263.288 262.799 263.722 262.536C264.155 262.273 264.638 262.099 265.139 262.026C265.641 261.952 266.153 261.98 266.644 262.108C267.217 260.882 268.213 259.907 269.448 259.361C270.684 258.815 272.075 258.735 273.364 259.138C274.035 258.023 275.008 257.121 276.169 256.537C277.33 255.953 278.632 255.709 279.926 255.835C281.219 255.961 282.45 256.451 283.477 257.249C284.504 258.046 285.285 259.119 285.73 260.342C286.449 259.942 287.259 259.737 288.082 259.747C288.904 259.757 289.709 259.982 290.418 260.4C291.127 260.817 291.715 261.413 292.123 262.128C292.532 262.843 292.747 263.653 292.748 264.477C292.748 264.63 292.74 264.784 292.726 264.936L261.989 264.932Z" fill="white"/>
<path opacity="0.5" d="M344.534 302.483C344.713 301.711 345.045 300.984 345.509 300.342C345.973 299.701 346.561 299.159 347.237 298.749C347.914 298.338 348.665 298.068 349.447 297.953C350.23 297.838 351.027 297.881 351.793 298.079C352.686 296.169 354.239 294.647 356.165 293.794C358.091 292.942 360.259 292.817 362.27 293.443C363.317 291.704 364.834 290.298 366.645 289.387C368.456 288.476 370.487 288.097 372.504 288.293C374.521 288.49 376.441 289.254 378.043 290.498C379.644 291.742 380.862 293.414 381.555 295.322C382.676 294.697 383.94 294.377 385.222 294.392C386.505 294.407 387.761 294.758 388.866 295.409C389.972 296.06 390.889 296.989 391.526 298.104C392.163 299.219 392.498 300.482 392.499 301.767C392.499 302.01 392.487 302.247 392.464 302.483H344.534Z" fill="white"/>
<path opacity="0.5" d="M89.1628 292.02C89.008 291.354 88.7216 290.725 88.3205 290.17C87.9194 289.616 87.4116 289.148 86.8272 288.793C86.2428 288.438 85.5934 288.204 84.9174 288.105C84.2413 288.005 83.5523 288.042 82.8908 288.214C82.1179 286.563 80.7753 285.249 79.1108 284.512C77.4463 283.776 75.5722 283.668 73.8343 284.208C72.9302 282.704 71.6199 281.488 70.0548 280.7C68.4898 279.911 66.734 279.583 64.9906 279.753C63.2471 279.923 61.5873 280.584 60.2031 281.66C58.8189 282.735 57.7669 284.182 57.1688 285.831C56.2002 285.293 55.1083 285.018 54.0009 285.032C52.8935 285.046 51.8091 285.35 50.8547 285.913C49.9003 286.476 49.109 287.279 48.559 288.242C48.009 289.205 47.7194 290.295 47.7188 291.405C47.7188 291.613 47.7286 291.819 47.7484 292.024L89.1628 292.02Z" fill="white"/>
<path opacity="0.5" d="M363.14 262.269C363.486 260.769 364.129 259.354 365.03 258.107C365.931 256.861 367.073 255.807 368.387 255.01C369.701 254.213 371.161 253.687 372.682 253.465C374.202 253.243 375.751 253.328 377.238 253.716C378.974 250.005 381.991 247.049 385.732 245.394C389.473 243.738 393.686 243.495 397.592 244.71C399.625 241.333 402.571 238.602 406.088 236.831C409.605 235.061 413.55 234.324 417.467 234.706C421.385 235.088 425.114 236.572 428.225 238.988C431.336 241.405 433.701 244.654 435.046 248.36C437.224 247.145 439.68 246.522 442.172 246.551C444.663 246.58 447.104 247.261 449.253 248.525C451.401 249.79 453.183 251.596 454.421 253.763C455.659 255.93 456.311 258.383 456.313 260.88C456.313 261.349 456.288 261.812 456.244 262.271L363.14 262.269Z" fill="white"/>
<path d="M230.194 396.304C230.194 396.304 228.054 396.404 227.169 397.436C226.285 398.467 224.441 399.449 223.14 399.564C221.839 399.68 219.188 400.389 218.646 403.088C218.105 405.788 219.919 408.24 222.718 407.92C225.518 407.6 226.012 404.918 226.871 403.81C227.731 402.701 228.949 400.661 229.536 399.991C230.122 399.322 230.428 397.45 230.428 397.45L230.194 396.304Z" fill="#0E2E35"/>
<path d="M231.888 399.059C229.128 400.559 227.075 398.204 226.757 397.267C226.522 396.574 225.919 395.916 226.487 394.362C226.937 393.132 227.395 391.619 229.889 391.448C232.046 391.301 233.737 393.347 233.714 395.512C233.699 396.762 233.34 398.269 231.888 399.059Z" fill="#0E2E35"/>
<path d="M233.764 439.887C233.764 439.887 231.285 445.145 230.777 445.992C230.268 446.838 231.498 450.577 231.6 449.503C231.623 449.256 231.75 448.459 231.778 448.393C231.929 448.033 235.418 442.317 235.418 442.317L233.764 439.887Z" fill="#F7A491"/>
<path d="M232.29 452.115L231.753 448.485C231.753 448.485 230.951 447.676 230.765 446.01C230.213 445.893 229.643 445.897 229.092 446.02C228.939 446.056 227.904 446.297 227.902 446.454C227.902 447.031 228.521 448.543 229.204 450.194C229.204 450.194 230.296 452.252 231.212 453.509C232.127 454.767 232.29 452.115 232.29 452.115Z" fill="#F47458"/>
<path d="M243.497 431.594C243.003 429.601 233.836 420.499 233.836 420.499L233.029 418.01L226.946 419.344C226.946 419.344 225.595 424.065 225.506 425.449C225.387 427.286 229.128 428.985 231.447 429.949C233.579 430.837 237.272 432.932 237.272 432.932L231.015 443.959C231.015 443.959 233.342 445.65 234.108 445.866C234.197 445.883 244.101 434.072 243.497 431.594Z" fill="#EAB054"/>
<path d="M235.445 413.583C235.084 413.279 232.876 409.142 232.876 409.142L235.604 407.974C235.604 407.974 236.777 410.195 236.961 410.423C236.961 410.423 241.508 409.317 243.694 408.608C243.847 408.463 244.424 408.039 244.506 407.836C244.655 407.487 244.841 407.155 245.061 406.846C245.19 406.714 245.463 406.448 245.629 406.291C245.795 406.134 245.985 405.943 246.084 405.87C246.166 405.785 246.235 405.687 246.288 405.58C246.307 405.546 246.337 405.518 246.372 405.501C246.407 405.484 246.447 405.478 246.485 405.483C246.524 405.489 246.561 405.506 246.59 405.532C246.619 405.558 246.639 405.593 246.648 405.631C246.686 405.796 246.574 406.007 246.505 406.139C246.308 406.514 245.802 406.964 245.86 406.984C245.917 407.004 246.974 406.588 247.098 406.549C247.221 406.509 248.455 406.022 248.725 406.007C248.995 405.993 249.054 406.159 248.944 406.275C248.833 406.39 247.202 407.171 247.202 407.171C247.202 407.171 246.993 407.273 247.106 407.322C247.22 407.372 248.723 406.653 248.967 406.587C249.211 406.521 249.405 406.587 249.309 406.811C249.194 407.078 247.544 407.747 247.544 407.747C247.544 407.747 247.338 407.834 247.406 407.912C247.473 407.989 248.74 407.349 248.888 407.347C248.926 407.344 248.964 407.352 248.997 407.372C249.03 407.391 249.056 407.419 249.072 407.454C249.088 407.488 249.093 407.527 249.087 407.565C249.081 407.602 249.063 407.637 249.036 407.664C248.885 407.879 247.406 408.463 247.406 408.463C247.406 408.463 247.307 408.539 247.373 408.568C247.439 408.598 248.559 408.134 248.715 408.18C248.733 408.184 248.75 408.191 248.765 408.201C248.78 408.211 248.793 408.225 248.802 408.24C248.812 408.256 248.818 408.273 248.82 408.291C248.822 408.31 248.821 408.328 248.815 408.345C248.801 408.616 247.651 408.916 247.169 409.213C247.03 409.299 245.927 409.708 244.416 410.238C242.743 410.964 238.224 412.995 238.224 412.995C238.224 412.995 235.807 413.886 235.445 413.583Z" fill="#F8A492"/>
<path d="M214.812 448.919C214.812 448.919 213.177 451.166 212.458 451.735C212.073 452.039 211.025 452.448 210.915 452.952C210.805 453.455 215.657 457.902 215.657 457.902C215.914 458.129 215.886 457.814 215.807 457.479C215.68 456.931 215.545 456.525 214.901 455.052C214.86 454.956 214.737 454.557 214.696 454.428C214.586 454.041 214.531 453.64 214.531 453.237C214.514 452.559 216.07 450.68 216.07 450.68L214.812 448.919Z" fill="#F7A491"/>
<path d="M214.696 454.425C213.153 453.664 212.407 452.64 212.061 451.98C211.6 452.247 210.357 452.815 210.467 452.97C211.325 454.217 212.216 455.775 215.662 458.708C215.786 458.814 216.291 458.213 216.293 458.048C216.301 457.605 214.74 454.569 214.696 454.425Z" fill="#F47458"/>
<path d="M226.369 419.325C226.369 419.325 224.312 422.42 223.821 424.981C223.344 427.477 224.137 435.009 223.309 438.501C221.898 439.811 219.466 441.337 218.34 443.094C217.062 445.084 213.37 450.135 213.37 450.135L215.511 451.731L227.595 440.499L232.492 425.515L233.831 420.499L226.369 419.325Z" fill="#F7CC7F"/>
<path d="M230.816 402.493L233.474 410.116C234.297 409.664 235.503 408.999 236.319 408.54C234.062 402.305 230.816 402.493 230.816 402.493Z" fill="#B75742"/>
<path d="M227.925 401.889C227.925 401.889 225.205 401.714 224.138 402.892C223.071 404.07 226.524 413.381 226.72 414.879C226.916 416.378 225.722 420.362 225.722 420.362C225.722 420.362 232.111 421.653 233.937 420.44C233.937 420.44 234.133 409.666 233.937 408.596C233.741 407.527 232.111 403.173 231.719 402.745C231.327 402.318 227.925 401.889 227.925 401.889Z" fill="#F47458"/>
<path d="M228.822 398.241C228.822 398.241 228.809 398.32 228.783 398.457C228.663 399.117 228.195 401.292 227.88 401.891C227.498 402.613 229.185 404.92 230.808 404.64C231.291 404.555 230.4 402.519 230.443 402.303C230.525 401.891 230.635 401.328 230.749 400.751C230.813 400.421 230.879 400.091 230.94 399.784L231.254 398.18L228.822 398.241Z" fill="#F7A491"/>
<path d="M228.783 398.457C228.809 398.32 228.822 398.241 228.822 398.241L231.255 398.18L230.94 399.784C230.879 400.092 230.815 400.421 230.751 400.744C230.318 400.666 229.917 400.463 229.598 400.16C229.194 399.805 228.891 399.349 228.719 398.84C228.748 398.693 228.765 398.559 228.783 398.457Z" fill="#F47458"/>
<path d="M230.459 392.69C230.459 392.69 229.306 392.558 228.595 393.491C227.884 394.423 227.102 397.309 228.886 398.878C230.671 400.447 232.435 398.67 232.697 396.787C232.959 394.905 233.061 392.623 230.459 392.69Z" fill="#F7A491"/>
<path d="M233.225 396.761C233.011 397.177 232.654 397.406 232.427 397.274C232.2 397.142 232.186 396.698 232.399 396.284C232.611 395.87 232.97 395.639 233.197 395.771C233.425 395.903 233.438 396.345 233.225 396.761Z" fill="#F7A491"/>
<path d="M227.483 396.761C227.696 397.177 228.053 397.406 228.282 397.274C228.511 397.142 228.522 396.698 228.308 396.284C228.094 395.87 227.738 395.639 227.509 395.771C227.281 395.903 227.266 396.345 227.483 396.761Z" fill="#F7A491"/>
<path d="M230.587 392.385C230.587 392.385 229.056 395.129 227.953 395.256C226.85 395.383 226.713 396.84 226.713 396.84C226.713 396.84 227.105 393.481 228.195 392.834C229.285 392.187 230.587 392.385 230.587 392.385Z" fill="#0E2E35"/>
<path d="M229.321 397.267L231.613 397.358C231.613 397.358 231.526 398.228 230.516 398.218C229.286 398.205 229.321 397.267 229.321 397.267Z" fill="white"/>
<path d="M220.321 409.56C220.321 409.56 224.893 407.845 226.115 406.682C227.337 405.519 227.432 402.991 226.15 402.212C224.867 401.434 218.633 406.222 218.633 406.222L220.321 409.56Z" fill="#F47458"/>
<path d="M214.065 409.226C214.365 408.862 218.71 406.377 218.71 406.377L220.087 409.098C220.087 409.098 217.452 410.532 217.233 410.716C217.233 410.716 218.376 415.262 219.096 417.445C219.242 417.597 219.672 418.173 219.874 418.252C220.226 418.397 220.561 418.581 220.872 418.8C221.006 418.927 221.273 419.199 221.431 419.364C221.589 419.529 221.781 419.717 221.854 419.815C221.941 419.896 222.04 419.965 222.147 420.017C222.182 420.036 222.21 420.065 222.228 420.1C222.246 420.136 222.253 420.175 222.248 420.215C222.243 420.254 222.226 420.291 222.199 420.32C222.172 420.349 222.138 420.37 222.099 420.379C221.934 420.418 221.722 420.308 221.589 420.239C221.215 420.044 220.765 419.542 220.741 419.6C220.716 419.658 221.146 420.714 221.187 420.838C221.228 420.961 221.724 422.191 221.74 422.461C221.757 422.732 221.592 422.791 221.475 422.684C221.358 422.577 220.566 420.946 220.566 420.946C220.566 420.946 220.462 420.737 220.415 420.852C220.367 420.968 221.098 422.466 221.164 422.71C221.23 422.954 221.164 423.148 220.943 423.055C220.676 422.941 219.995 421.295 219.995 421.295C219.995 421.295 219.906 421.09 219.83 421.156C219.754 421.222 220.403 422.488 220.406 422.631C220.41 422.669 220.402 422.708 220.383 422.741C220.364 422.774 220.335 422.801 220.301 422.817C220.266 422.834 220.228 422.839 220.19 422.833C220.152 422.826 220.117 422.808 220.09 422.781C219.876 422.633 219.28 421.158 219.28 421.158C219.28 421.158 219.203 421.059 219.175 421.125C219.147 421.191 219.618 422.308 219.573 422.466C219.57 422.484 219.563 422.501 219.553 422.516C219.542 422.531 219.529 422.544 219.514 422.554C219.498 422.563 219.481 422.569 219.462 422.572C219.444 422.574 219.426 422.572 219.408 422.567C219.138 422.555 218.831 421.412 218.529 420.927C218.442 420.788 218.035 419.686 217.48 418.178H217.49C216.751 416.508 214.691 412 214.691 412C214.691 412 213.764 409.591 214.065 409.226Z" fill="#F8A492"/>
<path d="M187.769 453.189C187.769 453.189 188.458 455.039 188.513 455.687C188.541 456.035 188.373 456.818 188.628 457.08C188.883 457.342 193.413 456.202 193.413 456.202C193.649 456.139 193.451 456.037 193.222 455.948C192.848 455.809 192.564 455.73 191.432 455.535C191.36 455.524 191.082 455.441 190.983 455.415C190.71 455.328 190.451 455.204 190.212 455.047C189.805 454.791 189.303 453.133 189.303 453.133L187.769 453.189Z" fill="#F7A491"/>
<path d="M190.983 455.415C189.929 456.034 189.031 456.075 188.513 456.021C188.49 456.4 188.348 457.359 188.477 457.355C189.55 457.334 190.816 457.413 193.91 456.517C194.021 456.486 193.861 455.948 193.766 455.884C193.489 455.704 191.082 455.441 190.983 455.415Z" fill="#F7CC7F"/>
<path d="M174.782 434.75C174.782 434.75 175.808 437.182 177.131 438.474C178.421 439.735 182.401 442.4 184.144 444.258C184.367 445.607 185.103 447.46 185.702 448.817C186.379 450.353 187.922 454.521 187.922 454.521L189.702 453.879L187.79 442.304L180.841 433.534L178.399 430.777L174.782 434.75Z" fill="#B75742"/>
<path d="M168.203 442.822C168.203 442.822 163.91 444.172 163.158 444.329C162.405 444.485 160.928 447.148 161.592 446.639C161.745 446.521 162.264 446.175 162.316 446.157C162.6 446.054 167.684 445.043 167.684 445.043L168.203 442.822Z" fill="#F7A491"/>
<path d="M160.477 448.403L162.257 446.193C162.257 446.193 162.295 445.31 163.15 444.325C162.927 443.948 162.625 443.624 162.265 443.375C162.163 443.307 161.483 442.842 161.393 442.925C161.063 443.223 160.53 444.373 159.95 445.632C159.622 446.578 159.347 447.541 159.127 448.518C158.883 449.701 160.477 448.403 160.477 448.403Z" fill="#F7CC7F"/>
<path d="M178.032 444.03C178.911 442.71 178.285 427.515 178.285 427.515C178.285 427.515 173.958 428.475 173.126 429.147C172.02 430.043 172.242 434.183 172.911 436.011C173.525 437.694 174.821 441.621 174.821 441.621L164.447 443.405C164.447 443.405 164.427 445.071 164.707 445.621C164.74 445.67 176.94 445.668 178.032 444.03Z" fill="#F47458"/>
<path d="M182.239 427.306C182.031 426.99 181.287 423.313 181.287 423.313L183.647 423.045C183.647 423.045 184.035 425.015 184.124 425.232C184.124 425.232 187.862 425.431 189.698 425.397C189.85 425.319 190.388 425.128 190.497 424.991C190.692 424.756 190.913 424.543 191.155 424.357C191.284 424.284 191.554 424.144 191.719 424.063C191.883 423.983 192.071 423.877 192.161 423.844C192.244 423.797 192.32 423.738 192.385 423.669C192.409 423.651 192.438 423.639 192.467 423.636C192.497 423.632 192.528 423.637 192.555 423.65C192.582 423.662 192.606 423.682 192.622 423.707C192.639 423.732 192.649 423.761 192.651 423.791C192.615 423.931 192.535 424.056 192.423 424.148C192.186 424.388 191.697 424.611 191.735 424.643C191.773 424.674 192.68 424.596 192.786 424.595C192.891 424.593 193.938 424.504 194.154 424.555C194.37 424.606 194.368 424.745 194.263 424.809C194.157 424.874 192.721 425.095 192.721 425.095C192.721 425.095 192.537 425.124 192.614 425.189C192.692 425.253 194.006 425.047 194.208 425.053C194.411 425.06 194.538 425.159 194.419 425.304C194.269 425.482 192.851 425.614 192.851 425.614C192.851 425.614 192.675 425.634 192.71 425.703C192.744 425.773 193.862 425.578 193.969 425.611C193.999 425.617 194.026 425.632 194.047 425.654C194.068 425.677 194.081 425.704 194.086 425.734C194.09 425.764 194.086 425.795 194.072 425.822C194.059 425.85 194.037 425.872 194.011 425.887C193.846 426.017 192.58 426.124 192.58 426.124C192.58 426.124 192.486 426.161 192.53 426.197C192.575 426.233 193.538 426.137 193.648 426.208C193.661 426.215 193.672 426.224 193.68 426.235C193.689 426.246 193.695 426.259 193.699 426.272C193.703 426.286 193.704 426.3 193.702 426.314C193.7 426.328 193.695 426.342 193.688 426.354C193.615 426.558 192.665 426.519 192.229 426.639C192.102 426.674 191.164 426.73 189.884 426.792C188.437 426.957 184.51 427.481 184.51 427.481C184.51 427.481 182.446 427.621 182.239 427.306Z" fill="#F8A492"/>
<path d="M181.233 417.744L181.523 424.195C182.255 424.03 183.334 423.806 184.065 423.643C183.764 418.344 181.233 417.744 181.233 417.744Z" fill="#EAB054"/>
<path d="M179.151 416.614C179.151 416.614 176.948 416.216 176.828 416.284C175.796 416.912 176.546 415.934 173.951 423.826C173.573 424.981 172.101 430.617 172.101 430.617C172.101 430.617 177.823 432.714 179.501 432.205C179.501 432.205 182.119 423.994 182.214 423.129C182.31 422.265 182.05 418.554 181.857 418.137C181.664 417.719 179.151 416.614 179.151 416.614Z" fill="#F7CC7F"/>
<path d="M171.572 420.745C171.572 420.745 175.468 420.483 176.677 419.872C177.886 419.262 178.569 417.397 177.765 416.5C176.962 415.602 171.049 417.8 171.049 417.8L171.572 420.745Z" fill="#F7CC7F"/>
<path d="M166.854 419.052C167.167 418.841 171.066 417.937 171.066 417.937L171.498 420.338C171.498 420.338 169.156 420.833 168.941 420.922C168.941 420.922 168.776 424.667 168.825 426.507C168.903 426.657 169.1 427.195 169.237 427.302C169.473 427.494 169.687 427.712 169.876 427.951C169.948 428.078 170.092 428.348 170.174 428.51C170.256 428.672 170.362 428.862 170.396 428.954C170.444 429.037 170.504 429.112 170.574 429.177C170.592 429.2 170.604 429.229 170.607 429.258C170.611 429.288 170.606 429.318 170.594 429.346C170.581 429.373 170.562 429.397 170.537 429.414C170.513 429.431 170.484 429.44 170.454 429.442C170.314 429.407 170.188 429.329 170.095 429.218C169.853 428.982 169.626 428.495 169.601 428.533C169.576 428.571 169.655 429.48 169.659 429.584C169.662 429.688 169.759 430.739 169.71 430.955C169.66 431.172 169.522 431.172 169.456 431.066C169.39 430.96 169.158 429.525 169.158 429.525C169.158 429.525 169.127 429.34 169.062 429.418C168.998 429.495 169.216 430.812 169.212 431.013C169.209 431.214 169.11 431.343 168.964 431.228C168.786 431.079 168.634 429.66 168.634 429.66C168.634 429.66 168.613 429.482 168.545 429.518C168.478 429.555 168.68 430.673 168.649 430.78C168.643 430.81 168.628 430.837 168.605 430.858C168.583 430.879 168.556 430.893 168.526 430.897C168.496 430.902 168.465 430.897 168.438 430.884C168.41 430.871 168.388 430.85 168.372 430.823C168.242 430.658 168.124 429.393 168.124 429.393C168.124 429.393 168.088 429.299 168.05 429.343C168.012 429.388 168.119 430.351 168.05 430.462C168.043 430.474 168.035 430.486 168.024 430.494C168.013 430.503 168 430.51 167.987 430.514C167.974 430.518 167.96 430.519 167.946 430.517C167.932 430.515 167.918 430.51 167.906 430.503C167.702 430.432 167.729 429.48 167.607 429.045C167.572 428.918 167.508 427.979 167.442 426.697C167.258 425.248 166.708 421.318 166.708 421.318C166.708 421.318 166.541 419.262 166.854 419.052Z" fill="#F8A492"/>
<path d="M182.643 408.954C182.643 408.954 183.96 408.878 184.376 410.324C184.793 411.769 184.403 411.527 184.597 412.246C184.791 412.965 185.809 413.134 185.527 414.074C185.246 415.015 184.763 415.031 184.763 415.031C184.807 415.298 184.786 415.571 184.701 415.827C184.617 416.083 184.471 416.315 184.278 416.503C183.619 417.123 182.33 417.444 181.447 417.066C181.447 417.066 179.848 417.407 178.577 416.638C177.306 415.869 177.787 416.013 177.224 415.843C176.66 415.673 175.369 414.444 175.957 413.391C175.957 413.391 175.36 412.007 176.53 411.375C177.701 410.743 178.144 409.877 179.028 408.821C179.912 407.765 182.096 408.474 182.643 408.954Z" fill="#0E2E35"/>
<path d="M181.501 415.65C181.501 415.65 180.954 417.3 181.063 417.505C181.172 417.709 181.312 418.031 180.964 418.359C180.617 418.688 179.696 418.137 179.3 417.769C179.057 417.532 178.871 417.244 178.753 416.925L179.774 414.358L181.501 415.65Z" fill="#F7A491"/>
<path d="M180.633 416.145C180.136 415.811 179.779 415.303 179.632 414.721L179.774 414.361L181.501 415.653C181.501 415.653 181.368 416.056 181.246 416.488C181.026 416.405 180.819 416.29 180.633 416.145Z" fill="#B75742"/>
<path d="M179.996 412.37C179.996 412.37 180.242 411.38 179.585 411.388C178.928 411.396 178.944 413.012 179.456 413.112C179.968 413.213 179.996 412.37 179.996 412.37Z" fill="#F7A491"/>
<path d="M182.838 409.738C182.838 409.738 183.782 409.999 184.044 410.875C184.305 411.751 184.208 413.998 182.977 415.203C181.745 416.407 180.848 415.749 180.474 415.477C180.1 415.205 179.374 414.634 179.359 413.167C179.344 411.7 180.554 408.746 182.838 409.738Z" fill="#F7A491"/>
<path d="M182.833 414.312L180.996 413.835C180.996 413.835 180.859 414.544 181.654 414.775C182.642 415.061 182.833 414.312 182.833 414.312Z" fill="white"/>
<path d="M174.821 441.608C174.821 441.608 173.126 441.463 172.996 441.42C172.866 441.377 164.449 443.4 164.449 443.4C164.449 443.4 169.137 444.048 169.31 443.962C169.482 443.877 174.821 441.608 174.821 441.608Z" fill="#F47458"/>
<path d="M113.787 451.59C113.787 451.59 113.881 454.184 113.678 455.017C113.571 455.465 113.038 456.37 113.247 456.803C113.456 457.235 119.57 457.692 119.57 457.692C119.889 457.71 119.687 457.496 119.437 457.296C119.028 456.966 118.697 456.748 117.378 456.039C117.293 455.993 116.981 455.776 116.869 455.709C116.566 455.488 116.294 455.226 116.061 454.932C115.661 454.437 115.72 452.166 115.72 452.166L113.787 451.59Z" fill="#F7A491"/>
<path d="M116.868 455.701C115.3 456.031 114.166 455.715 113.535 455.43C113.349 455.892 112.765 457.027 112.936 457.08C114.283 457.499 115.827 458.121 120.043 458.283C120.194 458.283 120.216 457.552 120.123 457.431C119.87 457.1 116.98 455.776 116.868 455.701Z" fill="#F47458"/>
<path d="M105.416 422.775C105.416 422.775 105.687 426.24 106.8 428.398C107.885 430.503 111.818 435.481 113.222 438.522C112.941 440.299 113.015 442.913 113.199 444.855C113.408 447.053 113.606 452.892 113.606 452.892L116.086 452.829L118.495 437.593L113.469 423.77L111.569 419.315L105.416 422.775Z" fill="#EAB054"/>
<path d="M91.7763 435.844C91.7763 435.844 86.377 437.059 85.4401 437.176C84.5032 437.293 82.4202 440.402 83.2847 439.847C83.4839 439.72 84.1558 439.352 84.2216 439.331C84.5806 439.233 90.9135 438.506 90.9135 438.506L91.7763 435.844Z" fill="#F7A491"/>
<path d="M81.7403 441.885L84.1444 439.361C84.1444 439.361 84.2827 438.283 85.4304 437.163C85.1946 436.679 84.8576 436.251 84.4425 435.909C84.3255 435.815 83.5401 435.176 83.4199 435.267C82.9836 435.597 82.2146 436.955 81.3764 438.437C81.3764 438.437 80.4691 440.464 80.0591 441.89C79.6491 443.316 81.7403 441.885 81.7403 441.885Z" fill="#F47458"/>
<path d="M103.699 438.319C104.911 436.787 109.815 421.778 109.815 421.778L107.768 422.488L101.751 419.95C101.587 419.699 99.0576 434.415 99.0576 434.415L87.1162 436.158C87.1162 436.158 87.2101 438.9 87.4966 439.603C87.5279 439.682 102.193 440.225 103.699 438.319Z" fill="#F7CC7F"/>
<path d="M114.449 412.68C114.136 412.35 112.427 408.225 112.427 408.225L115.126 407.374C115.126 407.374 116.028 409.588 116.181 409.821C116.181 409.821 120.597 409.2 122.736 408.74C122.901 408.616 123.482 408.268 123.578 408.08C123.75 407.761 123.957 407.462 124.195 407.189C124.33 407.075 124.613 406.859 124.786 406.717C124.959 406.575 125.157 406.42 125.256 406.361C125.342 406.287 125.417 406.201 125.478 406.105C125.499 406.074 125.529 406.05 125.565 406.037C125.6 406.023 125.638 406.021 125.674 406.029C125.711 406.038 125.744 406.058 125.769 406.086C125.794 406.113 125.81 406.148 125.816 406.186C125.805 406.358 125.74 406.522 125.631 406.656C125.409 406.986 124.887 407.364 124.94 407.395C124.992 407.426 126.035 407.124 126.156 407.098C126.278 407.072 127.49 406.727 127.749 406.738C128.007 406.75 128.042 406.903 127.931 407.012C127.821 407.121 126.196 407.699 126.196 407.699C126.196 407.699 125.987 407.776 126.092 407.832C126.198 407.888 127.688 407.349 127.925 407.309C128.162 407.27 128.338 407.357 128.228 407.555C128.094 407.796 126.466 408.276 126.466 408.276C126.466 408.276 126.263 408.341 126.321 408.413C126.379 408.486 127.638 408.004 127.773 408.015C127.81 408.016 127.845 408.028 127.874 408.049C127.904 408.071 127.926 408.1 127.938 408.135C127.95 408.169 127.951 408.206 127.941 408.241C127.932 408.276 127.912 408.307 127.884 408.331C127.719 408.519 126.265 408.935 126.265 408.935C126.265 408.935 126.163 408.997 126.224 409.03C126.285 409.063 127.388 408.73 127.533 408.789C127.55 408.794 127.565 408.802 127.578 408.813C127.591 408.825 127.602 408.838 127.61 408.854C127.617 408.87 127.621 408.887 127.622 408.904C127.622 408.921 127.619 408.938 127.612 408.954C127.574 409.21 126.459 409.385 125.965 409.614C125.825 409.682 124.742 409.962 123.26 410.329C121.605 410.86 117.131 412.362 117.131 412.362C117.131 412.362 114.763 413.01 114.449 412.68Z" fill="#F8A492"/>
<path d="M111.127 401.612L112.904 409.202C113.727 408.849 114.931 408.332 115.75 407.973C114.19 401.858 111.127 401.612 111.127 401.612Z" fill="#B75742"/>
<path d="M93.5599 406.08C93.8777 405.762 98.2313 403.813 98.2313 403.813L99.2819 406.522C99.2819 406.522 96.6572 407.634 96.425 407.789C96.425 407.789 97.0836 412.206 97.5628 414.345C97.6863 414.51 98.0403 415.087 98.2215 415.181C98.5406 415.353 98.8403 415.558 99.1156 415.794C99.2308 415.927 99.4581 416.209 99.5931 416.381C99.7281 416.553 99.8928 416.749 99.952 416.848C100.027 416.934 100.114 417.008 100.211 417.067C100.241 417.089 100.265 417.119 100.278 417.154C100.292 417.189 100.294 417.227 100.286 417.264C100.277 417.301 100.258 417.334 100.23 417.359C100.203 417.385 100.169 417.402 100.132 417.407C99.9599 417.398 99.7956 417.334 99.6622 417.226C99.3247 417.006 98.9476 416.488 98.9163 416.541C98.885 416.594 99.1962 417.635 99.2242 417.755C99.2522 417.876 99.6063 419.09 99.5964 419.348C99.5865 419.605 99.4317 419.643 99.3247 419.534C99.2176 419.425 98.6249 417.802 98.6249 417.802C98.6249 417.802 98.5458 417.592 98.4898 417.698C98.4338 417.803 98.9838 419.292 99.0283 419.529C99.0727 419.767 98.9855 419.945 98.7862 419.836C98.5442 419.702 98.0502 418.077 98.0502 418.077C98.0502 418.077 97.986 417.874 97.9135 417.932C97.8411 417.99 98.3334 419.252 98.3219 419.384C98.3215 419.42 98.31 419.455 98.2891 419.485C98.2682 419.515 98.2388 419.537 98.2048 419.549C98.1708 419.562 98.1338 419.563 98.0989 419.554C98.0639 419.545 98.0326 419.525 98.009 419.498C97.8197 419.333 97.3916 417.881 97.3916 417.881C97.3916 417.881 97.3273 417.78 97.296 417.84C97.2647 417.899 97.6056 418.995 97.548 419.15C97.5432 419.166 97.535 419.182 97.524 419.195C97.5129 419.208 97.4991 419.219 97.4836 419.227C97.4681 419.234 97.4511 419.239 97.4338 419.239C97.4166 419.24 97.3994 419.237 97.3833 419.23C97.1281 419.194 96.9437 418.075 96.7033 417.592C96.6325 417.453 96.3443 416.369 95.9656 414.888C95.4205 413.238 93.8826 408.768 93.8826 408.768C93.8826 408.768 93.2454 406.389 93.5599 406.08Z" fill="#F8A492"/>
<path d="M112.661 405.735C112.687 406.318 112.674 422.098 112.674 422.098C105.099 424.878 101.401 421.613 101.401 421.613C101.401 421.613 102.718 410.66 102.582 409.139C102.491 408.133 102.911 401.549 103.57 401.42C104.507 401.231 105.459 401.125 106.415 401.104C107.299 401.104 110.696 401.382 111.292 401.646C112.123 402.853 112.598 404.27 112.661 405.735Z" fill="#F47458"/>
<path d="M97.7222 403.354L99.0543 407.301C99.0543 407.301 102.361 406.184 103.818 406.001C105.642 405.771 107.64 401.45 106.833 401.114C105.032 400.363 97.7222 403.354 97.7222 403.354Z" fill="#F47458"/>
<path d="M107.686 397.995L106.833 401.198C106.833 401.198 108.371 405.532 109.568 405.298C110.573 405.102 110.322 401.486 110.322 401.486C110.322 401.486 109.98 399.523 110.233 398.582C110.487 397.642 107.686 397.995 107.686 397.995Z" fill="#F7A491"/>
<path d="M110.234 398.576C110.487 397.635 107.686 397.988 107.686 397.988L107.614 398.264C107.667 398.443 107.753 398.611 107.866 398.759C108.448 399.452 109.263 399.907 110.158 400.038C110.111 399.549 110.137 399.057 110.234 398.576Z" fill="#F47458"/>
<path d="M107.708 393.167C107.632 393.132 106.708 396.952 107.634 398.117C108.559 399.282 110.533 399.833 111.337 399.064C112.224 398.214 112.595 394.048 111.1 392.794C109.605 391.54 107.708 393.167 107.708 393.167Z" fill="#F7A491"/>
<path d="M108.231 391.713C107.663 391.713 106.869 391.944 105.955 393.123C104.832 394.57 105.381 396.352 106.428 397.302C107.475 398.252 107.362 399.213 107.362 399.213L107.592 398.738C107.764 398.372 107.852 397.973 107.851 397.569C107.853 397.322 107.815 397.077 107.739 396.842C107.521 396.254 108.414 395.967 108.699 395.522C108.919 395.18 109.01 394.367 109.357 393.794L109.749 393.377C109.749 393.377 110.61 392.855 111.378 393.103C112.145 393.35 111.546 389.58 108.231 391.713Z" fill="#0E2E35"/>
<path d="M108.579 396.208C108.541 396.682 108.279 397.046 107.994 397.023C107.709 397 107.51 396.596 107.549 396.124C107.589 395.652 107.849 395.286 108.134 395.309C108.419 395.332 108.618 395.734 108.579 396.208Z" fill="#F7A491"/>
<path d="M111.522 397.398H109.801C109.801 397.398 109.844 398.058 110.599 398.071C111.522 398.101 111.522 397.398 111.522 397.398Z" fill="white"/>
<path d="M295.72 404.549L297.996 404.64C297.996 404.64 297.91 405.503 296.907 405.493C295.685 405.479 295.72 404.549 295.72 404.549Z" fill="white"/>
</g>
<defs>
<clipPath id="clip0">
<rect width="375" height="558" fill="white"/>
</clipPath>
</defs>
</svg>
