<svg width="218" height="216" viewBox="0 0 218 216" fill="none" xmlns="http://www.w3.org/2000/svg">
<path d="M108.784 213.073C167.622 213.073 215.321 165.375 215.321 106.537C215.321 47.6981 167.622 0 108.784 0C49.9452 0 2.24707 47.6981 2.24707 106.537C2.24707 165.375 49.9452 213.073 108.784 213.073Z" fill="#474747"/>
<path d="M56.9487 114.789H169.761L158.989 169.392L69.6481 159.805C67.4245 159.558 65.5962 157.977 65.0526 155.803L55.6145 116.519C55.4169 115.629 56.0593 114.789 56.9487 114.789Z" fill="#474747"/>
<path d="M198.965 82.5215L179.94 86.2275C177.074 86.7711 174.85 88.9947 174.258 91.8607L154.739 191.677C154.393 193.555 153.257 195.136 151.626 196.124C150.588 196.767 149.402 197.063 148.167 197.063H65.2007" stroke="#747474" stroke-opacity="0.5" stroke-width="6" stroke-miterlimit="10" stroke-linecap="round"/>
<path d="M82.891 213.073C86.8209 213.073 90.0066 209.887 90.0066 205.957C90.0066 202.028 86.8209 198.842 82.891 198.842C78.9612 198.842 75.7754 202.028 75.7754 205.957C75.7754 209.887 78.9612 213.073 82.891 213.073Z" fill="#474747"/>
<path d="M135.171 213.073C139.101 213.073 142.287 209.887 142.287 205.957C142.287 202.028 139.101 198.842 135.171 198.842C131.241 198.842 128.056 202.028 128.056 205.957C128.056 209.887 131.241 213.073 135.171 213.073Z" fill="#474747"/>
<path d="M190.466 82.0273L171.441 85.7334C168.575 86.277 166.351 88.5006 165.759 91.3666L146.24 191.183C145.894 193.061 144.758 194.642 143.127 195.63C142.089 196.273 140.903 196.569 139.668 196.569H56.7017" stroke="white" stroke-width="4" stroke-miterlimit="10" stroke-linecap="round"/>
<path d="M126.622 212.579C130.552 212.579 133.738 209.393 133.738 205.463C133.738 201.533 130.552 198.348 126.622 198.348C122.693 198.348 119.507 201.533 119.507 205.463C119.507 209.393 122.693 212.579 126.622 212.579Z" fill="#474747" stroke="white" stroke-width="4" stroke-miterlimit="10" stroke-linecap="round"/>
<path d="M126.623 206.945C128.55 206.945 128.55 203.98 126.623 203.98C124.745 203.98 124.745 206.945 126.623 206.945Z" fill="white"/>
<path d="M74.3422 212.579C78.272 212.579 81.4578 209.393 81.4578 205.463C81.4578 201.533 78.272 198.348 74.3422 198.348C70.4123 198.348 67.2266 201.533 67.2266 205.463C67.2266 209.393 70.4123 212.579 74.3422 212.579Z" fill="#474747" stroke="white" stroke-width="4" stroke-miterlimit="10" stroke-linecap="round"/>
<path d="M74.3424 206.945C76.2695 206.945 76.2695 203.98 74.3424 203.98C72.4646 203.98 72.4646 206.945 74.3424 206.945Z" fill="white"/>
<path d="M48.4 114.344H161.212L150.44 168.946L61.0994 159.36C58.8757 159.113 57.0474 157.532 56.5039 155.357L47.1152 116.024C46.8681 115.184 47.5599 114.344 48.4 114.344Z" fill="#474747" stroke="white" stroke-width="4" stroke-miterlimit="10" stroke-linecap="round"/>
<path d="M82.1992 114.344L86.2512 161.534" stroke="white" stroke-width="4" stroke-miterlimit="10" stroke-linecap="round"/>
<path d="M126.623 115.826L120.199 165.685" stroke="white" stroke-width="4" stroke-miterlimit="10" stroke-linecap="round"/>
<path d="M62.9771 134.258L71.5257 140.78" stroke="white" stroke-width="2" stroke-miterlimit="10" stroke-linecap="round"/>
<path d="M62.9771 138.359L67.2761 141.621" stroke="white" stroke-width="2" stroke-miterlimit="10" stroke-linecap="round"/>
<path d="M69.1538 134.802L71.5257 136.63" stroke="white" stroke-width="2" stroke-miterlimit="10" stroke-linecap="round"/>
<path d="M147.525 149.625L146.635 154.023" stroke="white" stroke-width="2" stroke-miterlimit="10" stroke-linecap="round"/>
<path d="M151.181 131.095L148.414 145.079" stroke="white" stroke-width="2" stroke-miterlimit="10" stroke-linecap="round"/>
<path d="M183.646 213.37H215.123" stroke="white" stroke-width="4" stroke-miterlimit="10" stroke-linecap="round"/>
<path d="M18.9492 213.37H175.987" stroke="white" stroke-width="4" stroke-miterlimit="10" stroke-linecap="round"/>
<path d="M2 213.37H12.0311" stroke="white" stroke-width="4" stroke-miterlimit="10" stroke-linecap="round"/>
</svg>
