<svg width="450" height="115" viewBox="0 0 450 115" fill="none" xmlns="http://www.w3.org/2000/svg">
<g clip-path="url(#clip0)">
<rect width="450" height="115" fill="#FDCA02"/>
<path fill-rule="evenodd" clip-rule="evenodd" d="M216.485 73.587V79.4049H218.747C219.847 79.4669 220.949 79.3598 222.017 79.0872C222.547 78.8941 223.003 78.5383 223.319 78.0705C223.635 77.6026 223.796 77.0466 223.779 76.4818C223.803 75.8042 223.568 75.1428 223.123 74.632C222.686 74.1514 222.1 73.8329 221.46 73.7282C220.474 73.6036 219.48 73.5564 218.486 73.587H216.485ZM212.355 90.6311V70.1133H218.986C220.637 70.047 222.29 70.1511 223.92 70.4239C225.1 70.7377 226.139 71.4449 226.865 72.4291C227.7 73.589 228.119 74.997 228.056 76.4253C228.084 77.5262 227.842 78.6171 227.352 79.6026C226.942 80.4078 226.345 81.1028 225.611 81.6289C224.976 82.0869 224.258 82.4155 223.497 82.5962C222.078 82.8268 220.642 82.9261 219.205 82.8928H216.485V90.6593L212.355 90.6311ZM279.205 93.5682L280.375 76.8066L274.406 76.39L274.646 72.9728L290.643 74.0954L290.41 77.5056L284.448 77.089L283.3 93.8577L279.205 93.5682ZM254.244 91.8031L255.301 71.603L270.241 72.3867L270.065 75.804L259.191 75.2321L258.951 79.7155L269.071 80.2451L268.895 83.6412L258.768 83.1116L258.479 88.6118L269.755 89.1978L269.579 92.608L254.244 91.8031ZM232.581 90.9205L233.285 70.7063L237.359 70.8475L237.049 79.8214L245.59 71.137L251.066 71.3277L243.194 78.9389L250.777 91.556L245.505 91.3724L240.29 81.6925L236.922 84.9544L236.71 91.0618L232.581 90.9205ZM198.951 82.9704L195.907 75.564L193.447 83.1611L198.951 82.9704ZM206.703 90.737L202.27 90.8923L200.346 86.3595L192.284 86.6419L190.776 91.2948L186.456 91.443L193.609 70.9676L197.922 70.8122L206.703 90.737ZM163.327 93.5612L161.615 73.3823L167.696 72.8527L172.545 86.2677L174.948 72.2102L181.037 71.6736L182.799 91.8243L179.028 92.1491L177.619 76.2912L175.012 92.5303L171.1 92.8692L165.737 77.3361L167.154 93.1517L163.327 93.5612ZM205.949 64.6131L208.768 64.5708C208.723 66.0248 208.42 67.4593 207.873 68.8071C207.738 69.2218 207.48 69.5856 207.134 69.8504C206.788 70.1152 206.37 70.2684 205.935 70.2898C205.935 70.0356 205.935 69.7532 205.935 69.4425C205.935 68.7365 205.935 68.1787 205.935 67.755L205.949 64.6131ZM145 102C143.471 90.9007 142.557 80.0848 141 68.9998C162.057 66.7687 181.939 65.0368 202.813 64.6484V67.7339C202.813 68.5458 202.813 69.0683 202.813 69.3578C202.813 69.7908 202.799 70.1862 202.771 70.5439C202.767 70.6098 202.767 70.6758 202.771 70.7416V71.1582C202.769 71.3261 202.795 71.4932 202.848 71.6524C202.983 72.0508 203.228 72.4031 203.553 72.6692C203.807 72.8735 204.093 73.0356 204.399 73.1493C204.653 73.251 204.918 73.3267 205.188 73.3752C205.455 73.4271 205.726 73.4532 205.998 73.4529C208.169 73.4529 209.771 72.3514 210.805 70.1486C211.555 68.3572 211.969 66.4422 212.024 64.5002C243.948 64.2319 274.921 65.8607 307 68C305.591 79.3674 305.374 90.3288 304 102C251.322 96.4432 198.799 94.7063 145 102Z" fill="#313131"/>
<path d="M142 110L145 102C143.676 89.114 142.931 81.8867 141 69L137 76L142 110Z" fill="#3B3B3B"/>
<path d="M304 102L308 110L312 77L307 68C305.744 77.7425 305.094 85.4771 304 102Z" fill="#3C3C3C"/>
<path fill-rule="evenodd" clip-rule="evenodd" d="M117.962 113.114L142 110L137 76L112.585 80.3881L123.332 95.6953L117.962 113.114Z" fill="#313131"/>
<path fill-rule="evenodd" clip-rule="evenodd" d="M312 77L308 110L331.22 113L325.85 96.1466L336.315 79.7098L312 77Z" fill="#313131"/>
<path d="M330.564 25.125C329.507 26.7191 328.708 28.4705 328.196 30.3145C327.747 32.2442 327.537 34.2218 327.569 36.2029C327.552 38.7174 328.031 41.2106 328.979 43.5388C329.754 45.542 330.957 47.3516 332.502 48.8412C333.912 50.1404 335.244 50.797 336.526 50.797C337.009 50.7872 337.485 50.6722 337.919 50.4601C338.354 50.248 338.737 49.9437 339.042 49.5685C339.747 48.7565 340.226 47.3303 340.395 45.2757V42.628C340.196 40.3495 339.661 38.1131 338.81 35.9911C337.916 33.6331 336.707 31.4076 335.215 29.3754C334.026 27.6237 332.445 26.1733 330.6 25.1391L330.564 25.125ZM328.612 48.9613C328.838 51.0159 329.007 52.4915 329.077 53.3388C329.148 54.186 329.246 55.0898 329.331 55.9865C329.416 56.8831 329.472 57.9916 329.507 59.3402C329.542 60.6888 329.557 61.8537 329.557 62.8281C329.557 69.2108 328.055 72.4021 325.053 72.4021C324.704 72.4053 324.357 72.3406 324.031 72.2115C323.899 72.177 323.776 72.1135 323.671 72.0256C323.567 71.9377 323.483 71.8275 323.425 71.7031V71.2866C323.461 70.5805 323.482 69.5709 323.482 68.2788V62.1644C323.39 59.3402 323.27 57.222 323.101 55.8664C322.869 53.1976 322.601 50.218 322.284 46.9843C321.967 43.7506 321.819 41.0676 321.819 38.9918C321.779 35.4307 322.573 31.9098 324.137 28.7118C325.497 25.8586 327.4 23.2994 329.74 21.1782C331.887 19.3236 333.731 18.394 335.272 18.3893C336.59 18.3893 337.999 19.0459 339.5 20.3451C341.179 21.8574 342.606 23.6283 343.729 25.591C345.068 27.8496 346.121 30.2664 346.865 32.7857C347.632 35.3579 348.014 38.03 347.999 40.7146C347.999 45.1345 347.02 48.6506 345.06 51.263C343.101 53.8754 340.752 55.1792 338.013 55.1745C336.141 55.0962 334.333 54.4703 332.812 53.3741C331.063 52.2643 329.61 50.745 328.577 48.9471L328.612 48.9613ZM315.497 24.0448L317.344 26.2476C316.309 26.9517 315.2 27.5411 314.038 28.0057C312.993 28.4695 311.869 28.7306 310.726 28.7753C309.119 28.7753 307.442 27.9422 305.666 26.2618C305.399 26.0146 304.905 25.4851 304.208 24.6873C303.67 24.0569 303.076 23.4778 302.432 22.9574C301.956 22.606 301.38 22.4178 300.79 22.4208C298.626 22.4208 297.196 23.8329 296.505 26.5583C295.723 30.0176 295.324 33.5527 295.314 37.0996C296.796 36.0092 298.397 35.0902 300.085 34.3602C301.548 33.5912 303.152 33.1277 304.799 32.9975C305.679 32.9964 306.554 33.1419 307.386 33.4282C308.248 33.7862 309.08 34.2136 309.874 34.7061C310.606 35.204 311.43 35.5519 312.298 35.7299C313.315 35.6963 314.282 35.2833 315.011 34.572L316.42 36.5065C313.334 40.0086 310.79 41.7596 308.788 41.7596C308.23 41.7729 307.673 41.6844 307.146 41.4983C306.541 41.2298 305.961 40.9085 305.413 40.5381C304.465 39.8707 303.466 39.2805 302.425 38.773C301.708 38.4479 300.928 38.284 300.141 38.2929C298.34 38.3762 296.636 39.1318 295.363 40.411V41.3218C295.39 43.4989 295.87 45.6464 296.773 47.6268C297.546 49.3133 298.764 50.7562 300.296 51.7996C301.77 52.7863 303.506 53.3055 305.279 53.2894C308.069 53.2894 311.149 52.0538 314.518 49.5826L315.85 51.0865C314.892 52.0527 313.839 52.9185 312.707 53.6706C311.349 54.5789 309.871 55.2919 308.316 55.7888C306.6 56.3327 304.809 56.6019 303.01 56.5866C299.157 56.5866 296.019 55.897 293.594 54.5179C291.371 53.3091 289.499 51.5429 288.161 49.392C287.096 47.7354 286.321 45.9087 285.871 43.9907C285.561 42.5298 285.364 41.0476 285.279 39.5567V37.1844C285.413 35.1599 285.819 33.1628 286.484 31.2465C287.159 29.2254 288.141 27.3203 289.394 25.5981C290.647 23.8777 292.261 22.4533 294.123 21.4253C296.09 20.343 298.306 19.7953 300.55 19.8367C302.058 19.7688 303.566 19.9819 304.997 20.4651C306.054 20.9086 307.032 21.5215 307.893 22.2796C308.645 22.9864 309.495 23.5809 310.416 24.0448C311.538 24.4781 312.739 24.6682 313.94 24.6025C314.51 24.6175 315.066 24.4186 315.497 24.0448ZM246.751 20.8322H252.319C252.737 20.8138 253.156 20.8639 253.559 20.9805C253.698 21.0329 253.824 21.114 253.93 21.2186C254.036 21.3233 254.118 21.449 254.172 21.5877C254.332 22.0002 254.437 22.4324 254.482 22.8727C254.553 23.4234 254.672 24.3907 254.827 25.7605C255.067 27.6668 255.567 30.3498 256.35 33.7953C257.132 37.2408 258.02 40.9264 259.021 44.8732C259.266 42.8668 259.765 40.8998 260.508 39.0201C261.001 37.979 261.661 37.0252 262.46 36.1959C263.214 35.418 263.779 34.4755 264.109 33.4423C264.519 31.5892 264.685 29.6902 264.602 27.7939C264.617 26.2502 264.525 24.7073 264.327 23.1763C264.137 21.9478 264.038 21.3194 264.038 21.2982C264.038 21.0229 264.588 20.8746 265.68 20.8746H271.536C272.537 20.8746 273.143 20.9876 273.348 21.2135C273.552 21.4394 273.693 22.3573 273.742 23.9671C273.792 25.5769 273.883 27.1514 274.052 28.6553C274.336 30.7811 274.752 32.8869 275.3 34.9603C276.265 38.6106 277.118 41.4701 277.879 43.5317C278.64 45.5934 279.443 47.5704 280.24 49.4696C280.81 50.6231 281.214 51.8523 281.438 53.1199C281.438 53.5859 281.332 53.8683 281.107 53.9742C280.708 54.1096 280.286 54.1625 279.866 54.1296H275.025C274.45 54.1594 273.879 54.0195 273.383 53.7271C272.807 53.2507 272.357 52.6397 272.072 51.9479C271.602 51.03 270.923 49.3025 270.035 46.7654C269.147 44.2284 268.534 42.3785 268.196 41.2159C267.837 40.0015 267.491 38.3917 267.04 36.3512C266.589 34.3107 266.314 32.9481 266.174 32.242C265.37 34.0566 264.623 36.0335 263.897 38.1799C263.171 40.3608 262.559 42.5785 262.065 44.8238C261.615 46.7886 261.321 48.7858 261.184 50.797V52.3574C261.184 53.5012 260.98 54.0731 260.592 54.0731H255.116C254.531 54.0876 253.96 53.8895 253.51 53.5153C252.81 52.7054 252.286 51.7578 251.973 50.7335C251.088 48.2282 250.361 45.6696 249.796 43.0728C248.929 39.4367 247.977 34.9391 246.977 29.552C245.807 33.294 243.643 37.3185 242.086 41.2159C240.754 44.5202 239.972 46.0806 241.015 49.5543C241.272 50.4639 241.607 51.3497 242.016 52.202C242.269 52.6556 242.45 53.1465 242.551 53.6565C242.551 53.9319 242.304 54.0731 241.79 54.0731H235.588C234.813 54.0731 234.433 52.9999 234.433 50.8535C234.433 47.5986 234.891 45.2898 235.793 43.9059C240.162 37.2479 246.582 37.1844 245.032 23.6988V21.743C245.068 21.583 245.138 21.4324 245.236 21.301C245.335 21.1696 245.459 21.0605 245.603 20.9805C245.974 20.8646 246.363 20.8144 246.751 20.8322ZM212.051 25.125C210.991 26.7176 210.191 28.4694 209.683 30.3145C209.231 32.2438 209.018 34.2215 209.048 36.2029C209.027 38.7177 209.507 41.2115 210.458 43.5388C211.234 45.542 212.436 47.3516 213.982 48.8412C215.391 50.1404 216.716 50.797 218.006 50.797C218.488 50.7876 218.962 50.6728 219.395 50.4606C219.829 50.2484 220.211 49.9439 220.514 49.5685C221.219 48.7565 221.705 47.3303 221.874 45.2757V42.628C221.672 40.3501 221.137 38.1142 220.289 35.9911C219.395 33.6331 218.186 31.4076 216.695 29.3754C215.499 27.6152 213.908 26.1597 212.051 25.125ZM210.063 48.9471C210.289 51.0018 210.458 52.4774 210.528 53.3247C210.599 54.1719 210.69 55.0757 210.775 55.9723C210.86 56.869 210.916 57.9775 210.958 59.3261C211.001 60.6746 211.001 61.8396 211.001 62.814C211.001 69.1967 209.502 72.388 206.504 72.388C206.155 72.3912 205.808 72.3265 205.483 72.1974C205.35 72.1638 205.226 72.1007 205.121 72.0126C205.017 71.9246 204.933 71.814 204.876 71.689V71.2724C204.912 70.5664 204.933 69.5567 204.933 68.2647V62.1644C204.841 59.3402 204.721 57.222 204.552 55.8664C204.313 53.1976 204.052 50.218 203.728 46.9843C203.404 43.7506 203.27 41.0676 203.27 38.9918C203.232 35.4301 204.029 31.9092 205.595 28.7118C206.942 25.8564 208.834 23.2924 211.163 21.1641C213.319 19.3095 215.165 18.3799 216.702 18.3752C218.02 18.3752 219.422 19.0318 220.93 20.3309C222.611 21.8412 224.039 23.6124 225.158 25.5769C226.489 27.8403 227.531 30.2621 228.259 32.7857C229.045 35.3555 229.448 38.0271 229.457 40.7146C229.457 45.1345 228.478 48.6506 226.519 51.263C224.559 53.8754 222.21 55.1792 219.471 55.1745C217.599 55.0982 215.79 54.4721 214.27 53.3741C212.519 52.2669 211.065 50.747 210.035 48.9471H210.063ZM196.955 24.0448L198.802 26.2476C197.764 26.9516 196.654 27.5411 195.49 28.0057C194.447 28.4701 193.325 28.7312 192.184 28.7753C190.578 28.7753 188.9 27.9422 187.124 26.2618C186.85 26.0146 186.363 25.4851 185.659 24.6873C185.115 24.051 184.514 23.4672 183.862 22.9433C183.386 22.5919 182.81 22.4037 182.22 22.4067C180.049 22.4067 178.625 23.8188 177.935 26.5442C177.149 30.0029 176.75 33.5384 176.744 37.0855C178.235 35.9965 179.845 35.0821 181.543 34.3602C183.006 33.5896 184.61 33.1259 186.258 32.9975C187.135 32.9957 188.007 33.1413 188.837 33.4282C189.7 33.7846 190.532 34.2121 191.325 34.7061C192.053 35.195 192.869 35.5379 193.728 35.7158C194.744 35.6808 195.711 35.2681 196.441 34.5578L197.85 36.4924C194.768 39.9944 192.227 41.7454 190.225 41.7454C189.667 41.7594 189.11 41.6709 188.583 41.4842C187.976 41.2161 187.393 40.8947 186.843 40.524C185.897 39.8536 184.898 39.2632 183.855 38.7588C183.138 38.4324 182.358 38.2685 181.571 38.2787C179.773 38.3624 178.07 39.1181 176.8 40.3969V41.3077C176.824 43.4851 177.304 45.6332 178.21 47.6127C178.98 49.3012 180.199 50.7448 181.733 51.7855C183.21 52.7712 184.948 53.2901 186.723 53.2752C189.509 53.2752 192.588 52.0396 195.962 49.5685L197.294 51.0724C196.336 52.0385 195.283 52.9044 194.151 53.6565C192.792 54.5634 191.315 55.2764 189.76 55.7747C188.044 56.3186 186.253 56.5878 184.454 56.5725C180.592 56.5725 177.453 55.8829 175.038 54.5038C172.828 53.3079 170.961 51.5621 169.619 49.4343C168.559 47.776 167.787 45.9498 167.336 44.033C167.027 42.5722 166.829 41.0899 166.744 39.599V37.1844C166.876 35.1602 167.279 33.1631 167.942 31.2465C168.62 29.2251 169.604 27.3201 170.859 25.5981C172.11 23.8778 173.721 22.4534 175.581 21.4253C177.549 20.3445 179.764 19.797 182.008 19.8367C183.519 19.7696 185.029 19.9826 186.462 20.4651C187.514 20.9163 188.487 21.5337 189.344 22.2938C190.096 23.0006 190.946 23.5951 191.867 24.0589C192.989 24.4937 194.19 24.6839 195.391 24.6167C195.966 24.6295 196.524 24.4253 196.955 24.0448ZM125.369 11.2229C122.273 13.8353 119.865 15.9864 118.146 17.6762C116.411 19.3947 114.922 21.3454 113.72 23.4729C112.509 25.5847 111.873 27.9779 111.874 30.4133C111.89 33.3244 112.752 36.1678 114.354 38.5965C116.004 41.223 118.583 42.5292 122.001 42.5292C123.132 42.5517 124.262 42.4451 125.369 42.2114V11.2229ZM135.722 11.2229V42.2114C136.821 42.4526 137.944 42.5687 139.069 42.5574C141.194 42.6448 143.275 41.9405 144.911 40.5805C146.404 39.2921 147.534 37.6343 148.188 35.7723C148.831 34.0529 149.172 32.2351 149.196 30.3992C149.197 27.9637 148.56 25.5706 147.35 23.4587C146.148 21.3313 144.659 19.3806 142.924 17.6621C141.2 15.977 138.792 13.8306 135.701 11.2229H135.722ZM141.648 54.0872H119.421V51.0865H125.369V44.732C123.713 45.198 122.402 45.5652 121.444 45.8476C120.555 46.1065 119.651 46.3116 118.738 46.4618C117.666 46.6039 116.585 46.6676 115.503 46.6525C112.824 46.6803 110.173 46.0985 107.751 44.9509C105.501 43.8998 103.559 42.2851 102.113 40.2627C100.738 38.3748 99.9974 36.0974 99.9992 33.76C99.9519 31.1464 100.688 28.5786 102.113 26.3888C103.51 24.2615 105.238 22.3714 107.23 20.7899C109.231 19.1871 112.24 17.0337 116.264 14.3013C120.288 11.5689 123.312 9.35892 125.334 7.74207V7.03602H119.351V4H141.698V7.00777H135.701V7.71382C137.726 9.36127 140.779 11.5712 144.862 14.3436C148.942 17.1255 151.966 19.286 153.911 20.8322C155.87 22.392 157.564 24.2589 158.928 26.3606C160.348 28.5529 161.084 31.1189 161.043 33.7318C161.051 36.0548 160.326 38.321 158.971 40.2062C157.525 42.2286 155.583 43.8433 153.333 44.8944C150.913 46.0525 148.262 46.644 145.581 46.6242C144.738 46.6354 143.896 46.5976 143.058 46.5113C142.406 46.4307 141.759 46.3152 141.12 46.1653C140.415 46.0029 139.534 45.777 138.527 45.4593C137.519 45.1415 136.574 44.8944 135.708 44.6967V51.0512H141.634L141.648 54.0872Z" fill="#313131"/>
</g>
<defs>
<clipPath id="clip0">
<rect width="450" height="115" fill="white"/>
</clipPath>
</defs>
</svg>
