<svg width="375" height="812" viewBox="0 0 375 812" fill="none" xmlns="http://www.w3.org/2000/svg">
<rect width="375" height="812" fill="#FDCA02"/>
<path fill-rule="evenodd" clip-rule="evenodd" d="M179.485 421.587V427.405H181.747C182.847 427.467 183.949 427.36 185.017 427.087C185.547 426.894 186.003 426.538 186.319 426.07C186.635 425.603 186.796 425.047 186.779 424.482C186.803 423.804 186.568 423.143 186.123 422.632C185.686 422.151 185.1 421.833 184.46 421.728C183.474 421.604 182.48 421.556 181.486 421.587H179.485ZM175.355 438.631V418.113H181.986C183.637 418.047 185.29 418.151 186.92 418.424C188.1 418.738 189.139 419.445 189.865 420.429C190.7 421.589 191.119 422.997 191.056 424.425C191.084 425.526 190.842 426.617 190.352 427.603C189.942 428.408 189.345 429.103 188.611 429.629C187.976 430.087 187.258 430.416 186.497 430.596C185.078 430.827 183.642 430.926 182.205 430.893H179.485V438.659L175.355 438.631ZM242.205 441.568L243.375 424.807L237.406 424.39L237.646 420.973L253.643 422.095L253.41 425.506L247.448 425.089L246.3 441.858L242.205 441.568ZM217.244 439.803L218.301 419.603L233.241 420.387L233.065 423.804L222.191 423.232L221.951 427.716L232.071 428.245L231.895 431.641L221.768 431.112L221.479 436.612L232.755 437.198L232.579 440.608L217.244 439.803ZM195.581 438.921L196.285 418.706L200.359 418.848L200.049 427.821L208.59 419.137L214.066 419.328L206.194 426.939L213.777 439.556L208.505 439.372L203.29 429.692L199.922 432.954L199.71 439.062L195.581 438.921ZM161.951 430.97L158.907 423.564L156.447 431.161L161.951 430.97ZM169.703 438.737L165.27 438.892L163.346 434.359L155.284 434.642L153.776 439.295L149.456 439.443L156.609 418.968L160.922 418.812L169.703 438.737ZM126.327 441.561L124.615 421.382L130.696 420.853L135.545 434.268L137.948 420.21L144.037 419.674L145.799 439.824L142.028 440.149L140.619 424.291L138.012 440.53L134.1 440.869L128.737 425.336L130.154 441.152L126.327 441.561ZM168.949 412.613L171.768 412.571C171.723 414.025 171.42 415.459 170.873 416.807C170.738 417.222 170.48 417.586 170.134 417.85C169.788 418.115 169.37 418.268 168.935 418.29C168.935 418.036 168.935 417.753 168.935 417.443C168.935 416.736 168.935 416.179 168.935 415.755L168.949 412.613ZM108 450C106.471 438.901 105.557 428.085 104 417C125.057 414.769 144.939 413.037 165.813 412.648V415.734C165.813 416.546 165.813 417.068 165.813 417.358C165.813 417.791 165.799 418.186 165.771 418.544C165.767 418.61 165.767 418.676 165.771 418.742V419.158C165.769 419.326 165.795 419.493 165.848 419.652C165.983 420.051 166.228 420.403 166.553 420.669C166.807 420.874 167.093 421.036 167.399 421.149C167.653 421.251 167.918 421.327 168.188 421.375C168.455 421.427 168.726 421.453 168.998 421.453C171.169 421.453 172.771 420.351 173.805 418.149C174.555 416.357 174.969 414.442 175.024 412.5C206.948 412.232 237.921 413.861 270 416C268.591 427.367 268.374 438.329 267 450C214.322 444.443 161.799 442.706 108 450Z" fill="#313131"/>
<path d="M105 458L108 450C106.676 437.114 105.931 429.887 104 417L100 424L105 458Z" fill="#3B3B3B"/>
<path d="M267 450L271 458L275 425L270 416C268.744 425.743 268.094 433.477 267 450Z" fill="#3C3C3C"/>
<path fill-rule="evenodd" clip-rule="evenodd" d="M80.962 461.114L105 458L100 424L75.585 428.388L86.332 443.695L80.962 461.114Z" fill="#313131"/>
<path fill-rule="evenodd" clip-rule="evenodd" d="M275 425L271 458L294.22 461L288.85 444.147L299.315 427.71L275 425Z" fill="#313131"/>
<path d="M293.564 373.125C292.507 374.719 291.708 376.471 291.196 378.314C290.747 380.244 290.537 382.222 290.569 384.203C290.552 386.717 291.031 389.211 291.979 391.539C292.754 393.542 293.957 395.352 295.502 396.841C296.912 398.14 298.244 398.797 299.526 398.797C300.009 398.787 300.485 398.672 300.919 398.46C301.354 398.248 301.737 397.944 302.042 397.568C302.747 396.757 303.226 395.33 303.395 393.276V390.628C303.196 388.35 302.661 386.113 301.81 383.991C300.916 381.633 299.707 379.408 298.215 377.375C297.026 375.624 295.445 374.173 293.6 373.139L293.564 373.125ZM291.612 396.961C291.838 399.016 292.007 400.492 292.077 401.339C292.148 402.186 292.246 403.09 292.331 403.986C292.416 404.883 292.472 405.992 292.507 407.34C292.542 408.689 292.557 409.854 292.557 410.828C292.557 417.211 291.055 420.402 288.053 420.402C287.704 420.405 287.357 420.341 287.031 420.211C286.899 420.177 286.776 420.114 286.671 420.026C286.567 419.938 286.483 419.828 286.425 419.703V419.287C286.461 418.581 286.482 417.571 286.482 416.279V410.164C286.39 407.34 286.27 405.222 286.101 403.866C285.869 401.198 285.601 398.218 285.284 394.984C284.967 391.751 284.819 389.068 284.819 386.992C284.779 383.431 285.573 379.91 287.137 376.712C288.497 373.859 290.4 371.299 292.74 369.178C294.887 367.324 296.731 366.394 298.272 366.389C299.59 366.389 300.999 367.046 302.5 368.345C304.179 369.857 305.606 371.628 306.729 373.591C308.068 375.85 309.121 378.266 309.865 380.786C310.632 383.358 311.014 386.03 310.999 388.715C310.999 393.134 310.02 396.651 308.06 399.263C306.101 401.875 303.752 403.179 301.013 403.175C299.141 403.096 297.333 402.47 295.812 401.374C294.063 400.264 292.61 398.745 291.577 396.947L291.612 396.961ZM278.497 372.045L280.344 374.248C279.309 374.952 278.2 375.541 277.038 376.006C275.993 376.469 274.869 376.731 273.726 376.775C272.119 376.775 270.442 375.942 268.666 374.262C268.399 374.015 267.905 373.485 267.208 372.687C266.67 372.057 266.076 371.478 265.432 370.957C264.956 370.606 264.38 370.418 263.79 370.421C261.626 370.421 260.196 371.833 259.505 374.558C258.723 378.018 258.324 381.553 258.314 385.1C259.796 384.009 261.397 383.09 263.085 382.36C264.548 381.591 266.152 381.128 267.799 380.997C268.679 380.996 269.554 381.142 270.386 381.428C271.248 381.786 272.08 382.214 272.874 382.706C273.606 383.204 274.43 383.552 275.298 383.73C276.315 383.696 277.282 383.283 278.011 382.572L279.42 384.507C276.334 388.009 273.79 389.76 271.788 389.76C271.23 389.773 270.673 389.684 270.146 389.498C269.541 389.23 268.961 388.909 268.413 388.538C267.465 387.871 266.466 387.28 265.425 386.773C264.708 386.448 263.928 386.284 263.141 386.293C261.34 386.376 259.636 387.132 258.363 388.411V389.322C258.39 391.499 258.87 393.646 259.773 395.627C260.546 397.313 261.764 398.756 263.296 399.8C264.77 400.786 266.506 401.305 268.279 401.289C271.069 401.289 274.149 400.054 277.518 397.583L278.85 399.086C277.892 400.053 276.839 400.919 275.707 401.671C274.349 402.579 272.871 403.292 271.316 403.789C269.6 404.333 267.809 404.602 266.01 404.587C262.157 404.587 259.019 403.897 256.594 402.518C254.371 401.309 252.499 399.543 251.161 397.392C250.096 395.735 249.321 393.909 248.871 391.991C248.561 390.53 248.364 389.048 248.279 387.557V385.184C248.413 383.16 248.819 381.163 249.484 379.246C250.159 377.225 251.141 375.32 252.394 373.598C253.647 371.878 255.261 370.453 257.123 369.425C259.09 368.343 261.306 367.795 263.55 367.837C265.058 367.769 266.566 367.982 267.997 368.465C269.054 368.909 270.032 369.521 270.893 370.28C271.645 370.986 272.495 371.581 273.416 372.045C274.538 372.478 275.739 372.668 276.94 372.603C277.51 372.617 278.066 372.419 278.497 372.045ZM209.751 368.832H215.319C215.737 368.814 216.156 368.864 216.559 368.981C216.698 369.033 216.824 369.114 216.93 369.219C217.036 369.323 217.118 369.449 217.172 369.588C217.332 370 217.437 370.432 217.482 370.873C217.553 371.423 217.672 372.391 217.827 373.76C218.067 375.667 218.567 378.35 219.35 381.795C220.132 385.241 221.02 388.926 222.021 392.873C222.266 390.867 222.765 388.9 223.508 387.02C224.001 385.979 224.661 385.025 225.46 384.196C226.214 383.418 226.779 382.476 227.109 381.442C227.519 379.589 227.685 377.69 227.602 375.794C227.617 374.25 227.525 372.707 227.327 371.176C227.137 369.948 227.038 369.319 227.038 369.298C227.038 369.023 227.588 368.875 228.68 368.875H234.536C235.537 368.875 236.143 368.988 236.348 369.213C236.552 369.439 236.693 370.357 236.742 371.967C236.792 373.577 236.883 375.151 237.052 376.655C237.336 378.781 237.752 380.887 238.3 382.96C239.265 386.611 240.118 389.47 240.879 391.532C241.64 393.593 242.443 395.57 243.24 397.47C243.81 398.623 244.214 399.852 244.438 401.12C244.438 401.586 244.332 401.868 244.107 401.974C243.708 402.11 243.286 402.162 242.866 402.13H238.025C237.45 402.159 236.879 402.019 236.383 401.727C235.807 401.251 235.357 400.64 235.072 399.948C234.602 399.03 233.923 397.303 233.035 394.765C232.147 392.228 231.534 390.379 231.196 389.216C230.837 388.001 230.491 386.392 230.04 384.351C229.589 382.311 229.314 380.948 229.174 380.242C228.37 382.057 227.623 384.033 226.897 386.18C226.171 388.361 225.559 390.579 225.065 392.824C224.615 394.789 224.321 396.786 224.184 398.797V400.357C224.184 401.501 223.98 402.073 223.592 402.073H218.116C217.531 402.088 216.96 401.889 216.51 401.515C215.81 400.705 215.286 399.758 214.973 398.733C214.088 396.228 213.361 393.67 212.796 391.073C211.929 387.437 210.977 382.939 209.977 377.552C208.807 381.294 206.643 385.319 205.086 389.216C203.754 392.52 202.972 394.081 204.015 397.554C204.272 398.464 204.607 399.35 205.016 400.202C205.269 400.656 205.45 401.146 205.551 401.657C205.551 401.932 205.304 402.073 204.79 402.073H198.588C197.813 402.073 197.433 401 197.433 398.853C197.433 395.599 197.891 393.29 198.793 391.906C203.162 385.248 209.582 385.184 208.032 371.699V369.743C208.068 369.583 208.138 369.432 208.236 369.301C208.335 369.17 208.459 369.06 208.603 368.981C208.974 368.865 209.363 368.814 209.751 368.832ZM175.051 373.125C173.991 374.718 173.191 376.469 172.683 378.314C172.231 380.244 172.018 382.221 172.048 384.203C172.027 386.718 172.507 389.212 173.458 391.539C174.234 393.542 175.436 395.352 176.982 396.841C178.391 398.14 179.716 398.797 181.006 398.797C181.488 398.788 181.962 398.673 182.395 398.461C182.829 398.248 183.211 397.944 183.514 397.568C184.219 396.757 184.705 395.33 184.874 393.276V390.628C184.672 388.35 184.137 386.114 183.289 383.991C182.395 381.633 181.186 379.408 179.695 377.375C178.499 375.615 176.908 374.16 175.051 373.125ZM173.063 396.947C173.289 399.002 173.458 400.477 173.528 401.325C173.599 402.172 173.69 403.076 173.775 403.972C173.86 404.869 173.916 405.978 173.958 407.326C174.001 408.675 174.001 409.84 174.001 410.814C174.001 417.197 172.502 420.388 169.504 420.388C169.155 420.391 168.808 420.326 168.483 420.197C168.35 420.164 168.226 420.101 168.121 420.013C168.017 419.925 167.933 419.814 167.876 419.689V419.272C167.912 418.566 167.933 417.557 167.933 416.265V410.164C167.841 407.34 167.721 405.222 167.552 403.866C167.313 401.198 167.052 398.218 166.728 394.984C166.404 391.751 166.27 389.068 166.27 386.992C166.232 383.43 167.029 379.909 168.595 376.712C169.942 373.856 171.834 371.292 174.163 369.164C176.319 367.31 178.165 366.38 179.702 366.375C181.02 366.375 182.422 367.032 183.93 368.331C185.611 369.841 187.039 371.612 188.158 373.577C189.489 375.84 190.531 378.262 191.259 380.786C192.045 383.355 192.448 386.027 192.457 388.715C192.457 393.134 191.478 396.651 189.519 399.263C187.559 401.875 185.21 403.179 182.471 403.175C180.599 403.098 178.79 402.472 177.27 401.374C175.519 400.267 174.065 398.747 173.035 396.947H173.063ZM159.955 372.045L161.802 374.248C160.764 374.952 159.654 375.541 158.49 376.006C157.447 376.47 156.325 376.731 155.184 376.775C153.578 376.775 151.9 375.942 150.124 374.262C149.85 374.015 149.363 373.485 148.659 372.687C148.115 372.051 147.514 371.467 146.862 370.943C146.386 370.592 145.81 370.404 145.22 370.407C143.049 370.407 141.625 371.819 140.935 374.544C140.149 378.003 139.75 381.538 139.744 385.086C141.235 383.997 142.845 383.082 144.543 382.36C146.006 381.59 147.61 381.126 149.258 380.997C150.135 380.996 151.007 381.141 151.837 381.428C152.7 381.785 153.532 382.212 154.325 382.706C155.053 383.195 155.869 383.538 156.728 383.716C157.744 383.681 158.711 383.268 159.441 382.558L160.85 384.492C157.768 387.994 155.227 389.745 153.225 389.745C152.667 389.759 152.11 389.671 151.583 389.484C150.976 389.216 150.393 388.895 149.843 388.524C148.897 387.854 147.898 387.263 146.855 386.759C146.138 386.432 145.358 386.268 144.571 386.279C142.773 386.362 141.07 387.118 139.8 388.397V389.308C139.824 391.485 140.304 393.633 141.21 395.613C141.98 397.301 143.199 398.745 144.733 399.785C146.21 400.771 147.948 401.29 149.723 401.275C152.509 401.275 155.588 400.04 158.962 397.568L160.294 399.072C159.336 400.039 158.283 400.904 157.151 401.657C155.792 402.563 154.315 403.276 152.76 403.775C151.044 404.319 149.253 404.588 147.454 404.572C143.592 404.572 140.453 403.883 138.038 402.504C135.828 401.308 133.961 399.562 132.619 397.434C131.559 395.776 130.787 393.95 130.336 392.033C130.027 390.572 129.829 389.09 129.744 387.599V385.184C129.876 383.16 130.279 381.163 130.942 379.246C131.62 377.225 132.604 375.32 133.859 373.598C135.11 371.878 136.721 370.453 138.581 369.425C140.549 368.345 142.764 367.797 145.008 367.837C146.519 367.77 148.029 367.983 149.462 368.465C150.514 368.916 151.487 369.534 152.344 370.294C153.096 371.001 153.946 371.595 154.867 372.059C155.989 372.494 157.19 372.684 158.391 372.617C158.966 372.629 159.524 372.425 159.955 372.045ZM88.3693 359.223C85.2732 361.835 82.8654 363.986 81.1459 365.676C79.4109 367.395 77.9216 369.345 76.7202 371.473C75.5095 373.585 74.8728 375.978 74.8738 378.413C74.8904 381.324 75.7524 384.168 77.3545 386.596C79.0035 389.223 81.5828 390.529 85.0008 390.529C86.132 390.552 87.2622 390.445 88.3693 390.211V359.223ZM98.7218 359.223V390.211C99.821 390.453 100.944 390.569 102.069 390.557C104.194 390.645 106.275 389.941 107.911 388.58C109.404 387.292 110.534 385.634 111.188 383.772C111.831 382.053 112.172 380.235 112.196 378.399C112.197 375.964 111.56 373.571 110.35 371.459C109.148 369.331 107.659 367.381 105.924 365.662C104.2 363.977 101.792 361.831 98.7006 359.223H98.7218ZM104.648 402.087H82.4215V399.086H88.3693V392.732C86.7132 393.198 85.4024 393.565 84.444 393.848C83.5551 394.106 82.6514 394.312 81.7379 394.462C80.6657 394.604 79.5846 394.668 78.5032 394.652C75.824 394.68 73.1734 394.099 70.7512 392.951C68.5009 391.9 66.5591 390.285 65.1134 388.263C63.7378 386.375 62.9974 384.097 62.9992 381.76C62.9519 379.146 63.6883 376.579 65.1134 374.389C66.5104 372.262 68.2376 370.371 70.2297 368.79C72.2311 367.187 75.2403 365.034 79.2643 362.301C83.2883 359.569 86.3115 357.359 88.3341 355.742V355.036H82.351V352H104.698V355.008H98.7006V355.714C100.726 357.361 103.779 359.571 107.862 362.344C111.942 365.125 114.966 367.286 116.911 368.832C118.87 370.392 120.564 372.259 121.928 374.361C123.348 376.553 124.084 379.119 124.043 381.732C124.051 384.055 123.326 386.321 121.971 388.206C120.525 390.229 118.583 391.843 116.333 392.894C113.913 394.052 111.262 394.644 108.581 394.624C107.738 394.635 106.896 394.598 106.058 394.511C105.406 394.431 104.759 394.315 104.12 394.165C103.415 394.003 102.534 393.777 101.527 393.459C100.519 393.142 99.5745 392.894 98.7077 392.697V399.051H104.634L104.648 402.087Z" fill="#313131"/>
</svg>
