<svg width="54" height="21" viewBox="0 0 54 21" fill="none" xmlns="http://www.w3.org/2000/svg">
<path d="M25.2367 10.1135V16.2444H23.291V1.10449H28.4491C29.7564 1.10449 30.8711 1.54025 31.7832 2.41176C32.7155 3.28326 33.1816 4.34731 33.1816 5.60391C33.1816 6.8909 32.7155 7.95495 31.7832 8.81632C30.8812 9.6777 29.7665 10.1033 28.4491 10.1033H25.2367V10.1135ZM25.2367 2.96912V8.24883H28.4897C29.2598 8.24883 29.9084 7.98535 30.4151 7.46853C30.9319 6.9517 31.1954 6.3234 31.1954 5.61404C31.1954 4.9148 30.9319 4.29664 30.4151 3.77982C29.9084 3.24273 29.27 2.97925 28.4897 2.97925H25.2367V2.96912Z" fill="white"/>
<path d="M38.2687 5.54346C39.7077 5.54346 40.8427 5.92854 41.6737 6.69871C42.5046 7.46888 42.9201 8.5228 42.9201 9.86046V16.2448H41.0656V14.8058H40.9846C40.184 15.9914 39.1098 16.5792 37.7721 16.5792C36.627 16.5792 35.6745 16.2448 34.9043 15.5658C34.1341 14.8868 33.749 14.0457 33.749 13.0323C33.749 11.9582 34.1544 11.1069 34.9651 10.4786C35.7758 9.84019 36.8601 9.52604 38.2079 9.52604C39.3632 9.52604 40.3157 9.73886 41.0555 10.1645V9.71859C41.0555 9.03962 40.792 8.47213 40.2549 7.99584C39.7178 7.51955 39.0895 7.28647 38.37 7.28647C37.2857 7.28647 36.4244 7.74249 35.7961 8.66467L34.0834 7.59049C35.0259 6.22242 36.4244 5.54346 38.2687 5.54346ZM35.7555 13.0627C35.7555 13.5694 35.9683 13.9951 36.4041 14.3295C36.8297 14.6639 37.3364 14.8362 37.914 14.8362C38.7349 14.8362 39.4645 14.5321 40.1029 13.9241C40.7414 13.3161 41.0656 12.6067 41.0656 11.7859C40.4576 11.3096 39.6165 11.0664 38.5322 11.0664C37.7417 11.0664 37.083 11.2589 36.5561 11.6339C36.019 12.0291 35.7555 12.5054 35.7555 13.0627Z" fill="white"/>
<path d="M53.4998 5.87744L47.0142 20.7944H45.0077L47.4195 15.5755L43.1431 5.87744H45.261L48.3417 13.3157H48.3822L51.3819 5.87744H53.4998Z" fill="white"/>
<path d="M17.4975 8.87735C17.4975 8.24297 17.4408 7.63595 17.3354 7.05225H9.17969V10.3964L13.8767 10.3974C13.6862 11.5101 13.0731 12.4586 12.1337 13.091V15.2606H14.9296C16.5622 13.7497 17.4975 11.5162 17.4975 8.87735Z" fill="#4285F4"/>
<path d="M12.1348 13.0907C11.3565 13.6156 10.3543 13.9227 9.18179 13.9227C6.91688 13.9227 4.99551 12.3965 4.30742 10.3394H1.42334V12.5769C2.85221 15.4123 5.78899 17.358 9.18179 17.358C11.5267 17.358 13.4968 16.5869 14.9307 15.2593L12.1348 13.0907Z" fill="#34A853"/>
<path d="M4.03569 8.67973C4.03569 8.1021 4.13196 7.54373 4.30727 7.0188V4.78125H1.42319C0.832388 5.95373 0.5 7.27721 0.5 8.67973C0.5 10.0822 0.833401 11.4057 1.42319 12.5782L4.30727 10.3407C4.13196 9.81573 4.03569 9.25735 4.03569 8.67973Z" fill="#FABB05"/>
<path d="M9.18179 3.43536C10.4617 3.43536 11.6078 3.87618 12.5128 4.73756L14.9905 2.26187C13.4856 0.860361 11.5237 0 9.18179 0C5.79 0 2.85221 1.94569 1.42334 4.78113L4.30742 7.01868C4.99551 4.96151 6.91688 3.43536 9.18179 3.43536Z" fill="#E94235"/>
</svg>
