<svg width="38" height="15" viewBox="0 0 38 15" fill="none" xmlns="http://www.w3.org/2000/svg">
<path d="M17.5991 7.19522V11.5572H16.2148V0.785645H19.8847C20.8147 0.785645 21.6078 1.09567 22.2567 1.71572C22.92 2.33577 23.2517 3.0928 23.2517 3.98683C23.2517 4.90248 22.92 5.65952 22.2567 6.27236C21.615 6.88519 20.8219 7.18801 19.8847 7.18801H17.5991V7.19522ZM17.5991 2.11226V5.8686H19.9135C20.4615 5.8686 20.9229 5.68115 21.2834 5.31344C21.6511 4.94574 21.8385 4.49873 21.8385 3.99404C21.8385 3.49656 21.6511 3.05676 21.2834 2.68905C20.9229 2.30693 20.4687 2.11947 19.9135 2.11947H17.5991V2.11226Z" fill="#3C4043"/>
<path d="M26.8709 3.94385C27.8947 3.94385 28.7022 4.21782 29.2934 4.76577C29.8846 5.31372 30.1802 6.06355 30.1802 7.01525V11.5575H28.8608V10.5337H28.8031C28.2335 11.3772 27.4693 11.7954 26.5176 11.7954C25.7029 11.7954 25.0252 11.5575 24.4772 11.0744C23.9293 10.5913 23.6553 9.99293 23.6553 9.27194C23.6553 8.50769 23.9437 7.90206 24.5205 7.45505C25.0972 7.00083 25.8687 6.77733 26.8276 6.77733C27.6495 6.77733 28.3273 6.92873 28.8536 7.23155V6.91431C28.8536 6.43125 28.6661 6.0275 28.284 5.68863C27.9019 5.34977 27.4549 5.18394 26.943 5.18394C26.1715 5.18394 25.5587 5.50839 25.1117 6.16449L23.8932 5.40024C24.5637 4.42691 25.5587 3.94385 26.8709 3.94385ZM25.0828 9.29357C25.0828 9.65406 25.2342 9.95688 25.5443 10.1948C25.8471 10.4327 26.2076 10.5553 26.6185 10.5553C27.2025 10.5553 27.7216 10.339 28.1759 9.90641C28.6301 9.47382 28.8608 8.96913 28.8608 8.38513C28.4282 8.04626 27.8298 7.87323 27.0583 7.87323C26.496 7.87323 26.0273 8.01021 25.6524 8.27698C25.2703 8.55816 25.0828 8.89703 25.0828 9.29357Z" fill="#3C4043"/>
<path d="M37.7074 4.18164L33.093 14.7946H31.6655L33.3814 11.0815L30.3389 4.18164H31.8457L34.0375 9.47368H34.0664L36.2005 4.18164H37.7074Z" fill="#3C4043"/>
<path d="M12.0932 6.31608C12.0932 5.86474 12.0528 5.43287 11.9778 5.01758H6.17529V7.39684L9.51707 7.39756C9.38152 8.1892 8.94532 8.86404 8.27697 9.31394V10.8576H10.2662C11.4277 9.78258 12.0932 8.19353 12.0932 6.31608Z" fill="#4285F4"/>
<path d="M8.27806 9.31344C7.72434 9.68691 7.01128 9.90537 6.1771 9.90537C4.5657 9.90537 3.1987 8.81956 2.70915 7.35596H0.657227V8.9479C1.67382 10.9652 3.76324 12.3495 6.1771 12.3495C7.84547 12.3495 9.24707 11.8008 10.2673 10.8563L8.27806 9.31344Z" fill="#34A853"/>
<path d="M2.51552 6.17549C2.51552 5.76453 2.58402 5.36727 2.70875 4.9938V3.40186H0.656818C0.236483 4.23604 0 5.17765 0 6.17549C0 7.17334 0.237204 8.11495 0.656818 8.94913L2.70875 7.35719C2.58402 6.98372 2.51552 6.58645 2.51552 6.17549Z" fill="#FABB05"/>
<path d="M6.1771 2.44415C7.08771 2.44415 7.90315 2.75778 8.54699 3.37061L10.3098 1.60924C9.23914 0.612118 7.8433 0 6.1771 0C3.76396 0 1.67382 1.38429 0.657227 3.40162L2.70916 4.99356C3.19871 3.52995 4.5657 2.44415 6.1771 2.44415Z" fill="#E94235"/>
</svg>
