<svg width="18" height="18" viewBox="0 0 18 18" fill="none" xmlns="http://www.w3.org/2000/svg">
<path fill-rule="evenodd" clip-rule="evenodd" d="M9 18C13.9706 18 18 13.9706 18 9C18 4.02944 13.9706 0 9 0C4.02944 0 0 4.02944 0 9C0 13.9706 4.02944 18 9 18ZM5.30421 6.4713C4.98193 6.14902 4.98193 5.6265 5.30421 5.30421C5.6265 4.98193 6.14902 4.98193 6.4713 5.30421L9 7.83291L11.5287 5.30421C11.851 4.98193 12.3735 4.98193 12.6958 5.30421C13.0181 5.6265 13.0181 6.14902 12.6958 6.4713L10.1671 9L12.6958 11.5287C13.0181 11.851 13.0181 12.3735 12.6958 12.6958C12.3735 13.0181 11.851 13.0181 11.5287 12.6958L9 10.1671L6.4713 12.6958C6.14902 13.0181 5.6265 13.0181 5.30421 12.6958C4.98193 12.3735 4.98193 11.851 5.30421 11.5287L7.83291 9L5.30421 6.4713Z" fill="#FA4A0C"/>
</svg>
