<svg width="24" height="24" viewBox="0 0 24 24" fill="none" xmlns="http://www.w3.org/2000/svg">
<path d="M19.6364 14.25V5.25C19.6364 4.0125 18.6545 3 17.4545 3H2.18182C0.981818 3 0 4.0125 0 5.25V14.25C0 15.4875 0.981818 16.5 2.18182 16.5H17.4545C18.6545 16.5 19.6364 15.4875 19.6364 14.25ZM9.81818 13.125C8.00727 13.125 6.54545 11.6175 6.54545 9.75C6.54545 7.8825 8.00727 6.375 9.81818 6.375C11.6291 6.375 13.0909 7.8825 13.0909 9.75C13.0909 11.6175 11.6291 13.125 9.81818 13.125ZM24 6.375V18.75C24 19.9875 23.0182 21 21.8182 21H3.27273V18.75H21.8182V6.375H24Z" fill="#B8B8B8"/>
</svg>
