<svg width="24" height="18" viewBox="0 0 24 18" fill="none" xmlns="http://www.w3.org/2000/svg">
<path d="M19.6364 11.25V2.25C19.6364 1.0125 18.6545 0 17.4545 0H2.18182C0.981818 0 0 1.0125 0 2.25V11.25C0 12.4875 0.981818 13.5 2.18182 13.5H17.4545C18.6545 13.5 19.6364 12.4875 19.6364 11.25ZM9.81818 10.125C8.00727 10.125 6.54545 8.6175 6.54545 6.75C6.54545 4.8825 8.00727 3.375 9.81818 3.375C11.6291 3.375 13.0909 4.8825 13.0909 6.75C13.0909 8.6175 11.6291 10.125 9.81818 10.125ZM24 3.375V15.75C24 16.9875 23.0182 18 21.8182 18H3.27273V15.75H21.8182V3.375H24Z" fill="#B8B8B8"/>
</svg>
