<svg width="26" height="22" viewBox="0 0 26 22" fill="none" xmlns="http://www.w3.org/2000/svg">
<path fill-rule="evenodd" clip-rule="evenodd" d="M13 18C14.8565 18 16.637 17.2625 17.9497 15.9497C19.2625 14.637 20 12.8565 20 11C20 9.14348 19.2625 7.36301 17.9497 6.05025C16.637 4.7375 14.8565 4 13 4C11.1435 4 9.36301 4.7375 8.05025 6.05025C6.7375 7.36301 6 9.14348 6 11C6 12.8565 6.7375 14.637 8.05025 15.9497C9.36301 17.2625 11.1435 18 13 18ZM13 19C15.1217 19 17.1566 18.1571 18.6569 16.6569C20.1571 15.1566 21 13.1217 21 11C21 8.87827 20.1571 6.84344 18.6569 5.34315C17.1566 3.84285 15.1217 3 13 3C10.8783 3 8.84344 3.84285 7.34315 5.34315C5.84285 6.84344 5 8.87827 5 11C5 13.1217 5.84285 15.1566 7.34315 16.6569C8.84344 18.1571 10.8783 19 13 19Z" fill="black"/>
<path d="M13.93 9.58801L11.64 9.87501L11.558 10.255L12.008 10.338C12.302 10.408 12.36 10.514 12.296 10.807L11.558 14.275C11.364 15.172 11.663 15.594 12.366 15.594C12.911 15.594 13.544 15.342 13.831 14.996L13.919 14.58C13.719 14.756 13.427 14.826 13.233 14.826C12.958 14.826 12.858 14.633 12.929 14.293L13.93 9.58801Z" fill="black"/>
<path d="M13 8.5C13.5523 8.5 14 8.05228 14 7.5C14 6.94772 13.5523 6.5 13 6.5C12.4477 6.5 12 6.94772 12 7.5C12 8.05228 12.4477 8.5 13 8.5Z" fill="black"/>
</svg>
