<svg width="108" height="120" viewBox="0 0 108 120" fill="none" xmlns="http://www.w3.org/2000/svg">
<path d="M38.675 25.4702C40.1176 25.4702 41.3347 24.3431 41.3347 22.9005C41.3347 21.4128 40.1176 20.1955 38.675 20.1955H22.8057C21.3631 20.1955 20.1909 21.4128 20.1909 22.9005C20.1909 24.3431 21.3631 25.4702 22.8057 25.4702H27.7648V38.499C27.7648 40.0319 29.1624 41.3394 30.7403 41.3394C32.3182 41.3394 33.7159 40.0319 33.7159 38.499V25.4702H38.675ZM60.6515 19.7898C59.0734 19.7898 57.9915 20.7816 57.4053 22.5398L53.4833 34.577L48.4339 21.9538C48.1184 21.0972 47.1716 19.7898 45.3232 19.7898C43.4748 19.7898 42.0322 21.2775 42.0322 23.1259C42.0322 23.8021 42.438 24.7038 42.7083 25.2899L50.5526 42.3313C49.4258 44.6756 47.8026 45.7575 45.5487 45.7575C43.9706 45.7575 42.7083 47.0198 42.7083 48.5979C42.7083 50.1756 43.9706 51.4379 45.5487 51.4379C49.7413 51.4379 54.3849 48.823 56.9547 42.0155L63.3112 25.2448C63.5367 24.6136 63.8522 23.8472 63.8522 23.0357C63.8522 21.2324 62.4096 19.7898 60.6515 19.7898ZM73.3122 22.7202C73.3122 21.0972 72.0048 19.8349 70.3818 19.8349C68.7589 19.8349 67.4063 21.0972 67.4063 22.7202V38.499C67.4063 40.0319 68.7589 41.3394 70.3818 41.3394C71.9596 41.3394 73.3122 40.0319 73.3122 38.499V33.0441H75.4313L80.9762 39.9868C81.7426 40.9336 82.4639 41.3394 83.5459 41.3394C85.214 41.3394 86.4314 40.0771 86.4314 38.409C86.4314 37.6877 86.1159 36.9213 85.6198 36.3351L80.4804 30.1588L85.214 24.6587C85.7101 24.0727 85.9804 23.4415 85.9804 22.7653C85.9804 21.1874 84.8533 19.8349 83.1404 19.8349C82.0133 19.8349 81.4271 20.3759 80.841 21.0972L75.4761 27.8596H73.3122V22.7202Z" fill="black"/>
<path d="M13.4701 18.9182C14.5221 19.9702 16.2754 19.9383 17.3912 18.8226C18.4113 17.8025 18.5069 15.9854 17.4549 14.9334L10.1229 7.60142C9.03904 6.51755 7.22196 6.61317 6.20185 7.63328C5.08609 8.74904 5.05423 10.5023 6.1381 11.5862L13.4701 18.9182Z" fill="black"/>
<path d="M13.1191 28.067C14.6069 28.067 15.8241 26.8047 15.8241 25.2268C15.8241 23.7841 14.6069 22.4316 13.1191 22.4316H2.75006C1.21724 22.4316 3.13609e-07 23.7841 0 25.2268C0 26.8047 1.21724 28.067 2.75006 28.067H13.1191Z" fill="black"/>
<path d="M21.2184 13.4966C21.6035 14.9336 23.1378 15.7827 24.6619 15.3743C26.0555 15.0009 27.0468 13.4751 26.6618 12.038L23.9781 2.02229C23.5813 0.5417 21.9599 -0.284014 20.5664 0.0893724C19.0423 0.497764 18.138 2.00024 18.5347 3.48083L21.2184 13.4966Z" fill="black"/>
<path d="M93.573 100.777C92.5208 99.7256 90.7675 99.7573 89.6519 100.873C88.6318 101.893 88.5361 103.71 89.588 104.762L96.9201 112.094C98.004 113.178 99.821 113.083 100.841 112.062C101.957 110.947 101.989 109.193 100.905 108.109L93.573 100.777Z" fill="black"/>
<path d="M93.9244 91.6292C92.4367 91.6292 91.2192 92.8914 91.2192 94.4692C91.2192 95.9118 92.4367 97.2644 93.9244 97.2644H104.293C105.826 97.2644 107.043 95.9118 107.043 94.4692C107.043 92.8914 105.826 91.6292 104.293 91.6292H93.9244Z" fill="black"/>
<path d="M85.8251 106.199C85.4399 104.762 83.9055 103.913 82.3813 104.321C80.988 104.695 79.9966 106.22 80.3814 107.658L83.0653 117.673C83.462 119.154 85.0834 119.98 86.4771 119.606C88.0012 119.198 88.9053 117.695 88.5086 116.215L85.8251 106.199Z" fill="black"/>
<path d="M38.6755 83.134C40.1181 83.134 41.3352 82.0069 41.3352 80.5643C41.3352 79.0765 40.1181 77.8594 38.6755 77.8594H22.8062C21.3636 77.8594 20.1914 79.0765 20.1914 80.5643C20.1914 82.0069 21.3636 83.134 22.8062 83.134H27.7653V96.1632C27.7653 97.6958 29.1629 99.0033 30.7408 99.0033C32.3186 99.0033 33.7164 97.6958 33.7164 96.1632V83.134H38.6755ZM60.652 77.4536C59.0739 77.4536 57.9919 78.4456 57.4058 80.2037L53.4838 92.2409L48.4344 79.6175C48.1189 78.761 47.1721 77.4536 45.3237 77.4536C43.4753 77.4536 42.0327 78.9414 42.0327 80.7898C42.0327 81.4659 42.4385 82.3679 42.7088 82.9537L50.5531 99.9952C49.4263 102.339 47.8031 103.421 45.5492 103.421C43.9711 103.421 42.7088 104.684 42.7088 106.262C42.7088 107.84 43.9711 109.102 45.5492 109.102C49.7418 109.102 54.3854 106.487 56.9551 99.6794L63.3117 82.9088C63.5372 82.2775 63.8527 81.5111 63.8527 80.6998C63.8527 78.8962 62.4101 77.4536 60.652 77.4536ZM73.3127 80.384C73.3127 78.761 72.0053 77.4988 70.3823 77.4988C68.7594 77.4988 67.4068 78.761 67.4068 80.384V96.1632C67.4068 97.6958 68.7594 99.0033 70.3823 99.0033C71.9601 99.0033 73.3127 97.6958 73.3127 96.1632V90.708H75.4317L80.9767 97.6507C81.7431 98.5975 82.4644 99.0033 83.5464 99.0033C85.2145 99.0033 86.4319 97.741 86.4319 96.0729C86.4319 95.3516 86.1164 94.5851 85.6203 93.999L80.4809 87.8228L85.2145 82.3227C85.7106 81.7366 85.9809 81.1053 85.9809 80.4291C85.9809 78.8514 84.8538 77.4988 83.1409 77.4988C82.0138 77.4988 81.4276 78.0398 80.8415 78.7611L75.4766 85.5234H73.3127V80.384Z" fill="black"/>
<path d="M70.2821 41.1633L31.6282 46.642C24.0039 47.7226 18.6993 54.7793 19.7799 62.4036L20.8904 70.2382C21.971 77.8625 29.0277 83.1671 36.652 82.0865L75.3059 76.6079C82.9301 75.5272 88.2348 68.4705 87.1541 60.8462L86.0437 53.0116C84.9631 45.3873 77.9063 40.0827 70.2821 41.1633Z" fill="#09B44D"/>
<path d="M40.1867 65.9161C39.2073 66.055 38.5659 67.0846 36.4883 67.3791C34.5593 67.6525 33.2035 66.8453 32.5908 65.0853L40.0107 64.0338C41.2279 63.8613 41.8265 62.9587 41.6287 61.5638C41.4396 60.2281 40.8264 58.6802 39.3312 57.5295C38.1112 56.6125 36.4372 56.1233 34.2407 56.4344C32.1037 56.7374 30.513 57.6895 29.494 59.0449C28.4792 60.4301 27.9854 62.2867 28.2757 64.3345C28.5786 66.4715 29.5476 68.181 31.0089 69.3062C32.4365 70.4057 34.3777 70.8573 36.663 70.5333C37.9688 70.3483 39.2835 70.0106 40.4288 69.3335C41.4938 68.7285 41.9777 68.0844 41.8642 67.2831C41.7422 66.4226 41.0177 65.7985 40.1867 65.9161ZM32.195 62.5075C32.2392 60.8964 33.0756 59.7486 34.7079 59.5172C36.3108 59.2898 37.4542 60.3087 37.775 61.7165L32.195 62.5075ZM55.7025 57.1774L56.649 63.8554L51.0394 64.6503C51.7962 62.5147 51.8329 60.2084 51.6064 57.7578L55.7025 57.1774ZM47.5803 56.6935C48.0006 59.8735 48.1288 62.7013 47.1215 65.2058L45.9342 65.3742C44.8359 65.5297 44.093 66.4828 44.2404 67.5218L44.9303 72.3893C45.0774 73.428 46.0603 74.1668 47.1585 74.0113C48.227 73.8598 48.9655 72.8769 48.8185 71.8383L48.3556 68.5733L61.2076 66.7518L61.6702 70.0165C61.8176 71.0555 62.7706 71.7984 63.8686 71.6426C64.9668 71.487 65.6759 70.5086 65.5288 69.4696L64.8389 64.6021C64.6915 63.5634 63.7428 62.8499 62.6446 63.0058L60.5669 63.3003L59.393 55.0191C59.25 54.0099 58.2675 53.2714 57.1693 53.4269L49.2443 54.5503C48.1759 54.7017 47.4373 55.6843 47.5803 56.6935ZM66.0673 62.0966C66.4373 64.7084 68.6787 65.9954 71.1719 65.6423C72.4778 65.457 73.6143 65.1446 74.7047 64.2938C75.103 64.752 75.7725 64.99 76.455 64.8934C77.4939 64.746 78.2921 63.755 78.1447 62.716L77.1352 55.5927C76.8953 53.9011 76.2944 52.8659 75.4389 52.1696C74.1004 51.0576 72.2818 51.0429 70.9461 51.232C69.5806 51.4255 68.2152 51.8309 67.1207 52.4403C66.1959 52.965 65.5338 53.6342 65.6643 54.5543C65.7778 55.3556 66.4897 55.8906 67.291 55.7771C68.4485 55.6128 69.3273 54.5496 70.9003 54.3267C71.6125 54.226 72.2018 54.3241 72.5872 54.6933C72.9388 55.037 73.1288 55.5246 73.2298 56.2372L73.2637 56.4746C69.358 57.3307 65.5752 58.624 66.0673 62.0966ZM72.0061 62.5567C70.9082 62.7126 69.925 62.3977 69.7901 61.4478C69.5841 59.9936 71.8656 59.4278 73.6378 59.1161L74.0038 61.6983C73.3803 62.2108 72.6888 62.4601 72.0061 62.5567Z" fill="white"/>
</svg>
